<svg width="21" height="13" viewBox="0 0 21 13" fill="none" xmlns="http://www.w3.org/2000/svg">
<path d="M10.8025 9.20584C10.8025 7.66583 10.07 6.5275 8.55667 6.10083C9.66083 5.575 10.2367 4.77833 10.2367 3.53917C10.2367 1.09583 8.41 0.5 6.3025 0.5H0.5V12.7675H6.465C8.70166 12.7675 10.8025 11.6983 10.8025 9.20584ZM3.205 2.59417H5.74333C6.71917 2.59417 7.5975 2.8675 7.5975 3.99583C7.5975 5.0375 6.91417 5.45667 5.9475 5.45667H3.205V2.59417ZM3.20417 10.6842V7.30583H6.1525C7.34333 7.30583 8.09667 7.80084 8.09667 9.0575C8.09667 10.2967 7.1975 10.6842 6.09667 10.6842H3.20417Z" fill="#A0A3AA"/>
<path d="M16.1616 12.9978C18.2899 12.9978 19.6682 12.042 20.3316 10.0103H18.1716C17.9391 10.7686 16.9807 11.1695 16.2374 11.1695C14.8032 11.1695 14.0499 10.332 14.0499 8.90864H20.4774C20.6807 6.06031 19.0941 3.63281 16.1607 3.63281C13.4449 3.63281 11.6016 5.66781 11.6016 8.33364C11.6016 11.1003 13.3482 12.9978 16.1616 12.9978ZM16.0849 5.47614C17.3141 5.47614 17.9324 6.19615 18.0357 7.37364H14.0532C14.1341 6.20614 14.9116 5.47614 16.0849 5.47614Z" fill="#A0A3AA"/>
<path d="M13.5547 1.14453H18.5447V2.35286H13.5547V1.14453Z" fill="#A0A3AA"/>
</svg>
