<svg width="20" height="20" viewBox="0 0 20 20" fill="none" xmlns="http://www.w3.org/2000/svg">
<g clip-path="url(#clip0_6910_4684)">
<path d="M10.3025 12.4558C10.3025 10.9158 9.57 9.7775 8.05667 9.35083C9.16083 8.825 9.73667 8.02833 9.73667 6.78917C9.73667 4.34583 7.91 3.75 5.8025 3.75H0V16.0175H5.965C8.20167 16.0175 10.3025 14.9483 10.3025 12.4558ZM2.705 5.84417H5.24333C6.21917 5.84417 7.0975 6.1175 7.0975 7.24583C7.0975 8.2875 6.41417 8.70667 5.4475 8.70667H2.705V5.84417ZM2.70417 13.9342V10.5558H5.6525C6.84333 10.5558 7.59667 11.0508 7.59667 12.3075C7.59667 13.5467 6.6975 13.9342 5.59667 13.9342H2.70417Z" fill="white"/>
<path d="M15.6624 16.2488C17.7908 16.2488 19.1691 15.293 19.8324 13.2613H17.6724C17.4399 14.0196 16.4816 14.4205 15.7382 14.4205C14.3041 14.4205 13.5507 13.583 13.5507 12.1596H19.9783C20.1816 9.31129 18.5949 6.88379 15.6616 6.88379C12.9458 6.88379 11.1024 8.91879 11.1024 11.5846C11.1024 14.3513 12.8491 16.2488 15.6624 16.2488ZM15.5858 8.72712C16.8149 8.72712 17.4333 9.44712 17.5366 10.6246H13.5541C13.6349 9.45712 14.4124 8.72712 15.5858 8.72712Z" fill="white"/>
<path d="M13.0555 4.39453H18.0455V5.60286H13.0555V4.39453Z" fill="white"/>
</g>
<defs>
<clipPath id="clip0_6910_4684">
<rect width="20" height="20" fill="white"/>
</clipPath>
</defs>
</svg>
