<svg width="20" height="21" viewBox="0 0 20 21" fill="none" xmlns="http://www.w3.org/2000/svg">
<g clip-path="url(#clip0_6911_6450)">
<path d="M10.3025 12.9558C10.3025 11.4158 9.57 10.2775 8.05667 9.85083C9.16083 9.325 9.73667 8.52833 9.73667 7.28917C9.73667 4.84583 7.91 4.25 5.8025 4.25H0V16.5175H5.965C8.20167 16.5175 10.3025 15.4483 10.3025 12.9558ZM2.705 6.34417H5.24333C6.21917 6.34417 7.0975 6.6175 7.0975 7.74583C7.0975 8.7875 6.41417 9.20667 5.4475 9.20667H2.705V6.34417ZM2.70417 14.4342V11.0558H5.6525C6.84333 11.0558 7.59667 11.5508 7.59667 12.8075C7.59667 14.0467 6.6975 14.4342 5.59667 14.4342H2.70417Z" fill="#171717"/>
<path d="M15.6616 16.7478C17.7899 16.7478 19.1682 15.792 19.8316 13.7603H17.6716C17.4391 14.5186 16.4807 14.9195 15.7374 14.9195C14.3032 14.9195 13.5499 14.082 13.5499 12.6586H19.9774C20.1807 9.81031 18.5941 7.38281 15.6607 7.38281C12.9449 7.38281 11.1016 9.41781 11.1016 12.0836C11.1016 14.8503 12.8482 16.7478 15.6616 16.7478ZM15.5849 9.22615C16.8141 9.22615 17.4324 9.94615 17.5357 11.1236H13.5532C13.6341 9.95615 14.4116 9.22615 15.5849 9.22615Z" fill="#171717"/>
<path d="M13.0547 4.89453H18.0447V6.10286H13.0547V4.89453Z" fill="#171717"/>
</g>
<defs>
<clipPath id="clip0_6911_6450">
<rect width="20" height="20" fill="white" transform="translate(0 0.5)"/>
</clipPath>
</defs>
</svg>
