<svg width="20" height="21" viewBox="0 0 20 21" fill="none" xmlns="http://www.w3.org/2000/svg">
<path d="M10 0.25C4.47715 0.25 0 4.72715 0 10.25C0 15.7728 4.47715 20.25 10 20.25C15.5228 20.25 20 15.7728 20 10.25C19.9936 4.72982 15.5202 0.256429 10 0.25Z" fill="#171717"/>
<path d="M15.7722 7.08362L10.068 14.8245C9.93197 15.0049 9.72912 15.1232 9.50503 15.1527C9.28094 15.1821 9.05441 15.1203 8.87634 14.9811L4.80301 11.7245C4.44356 11.4368 4.38536 10.9122 4.67301 10.5528C4.96066 10.1933 5.48523 10.1351 5.84468 10.4228L9.24134 13.1403L14.4305 6.09778C14.6007 5.84244 14.8974 5.70127 15.2029 5.73032C15.5083 5.75936 15.7731 5.95393 15.8921 6.23676C16.0111 6.5196 15.965 6.84494 15.7722 7.08362Z" fill="white"/>
</svg>
