<svg width="20" height="20" viewBox="0 0 20 20" fill="none" xmlns="http://www.w3.org/2000/svg">
<path d="M10 0C4.47715 0 0 4.47715 0 10C0 15.5228 4.47715 20 10 20C15.5228 20 20 15.5228 20 10C19.9936 4.47982 15.5202 0.00642897 10 0Z" fill="url(#paint0_linear_6918_5533)"/>
<path d="M15.7741 6.83334L10.07 14.5742C9.93392 14.7547 9.73107 14.8729 9.50698 14.9024C9.28289 14.9318 9.05636 14.87 8.8783 14.7308L4.80496 11.4742C4.44552 11.1865 4.38731 10.6619 4.67496 10.3025C4.96261 9.94306 5.48718 9.88485 5.84663 10.1725L9.2433 12.89L14.4325 5.8475C14.6026 5.59216 14.8993 5.45099 15.2048 5.48003C15.5103 5.50908 15.7751 5.70364 15.8941 5.98648C16.013 6.26931 15.967 6.59466 15.7741 6.83334Z" fill="white"/>
<defs>
<linearGradient id="paint0_linear_6918_5533" x1="0" y1="20" x2="20.633" y2="19.3241" gradientUnits="userSpaceOnUse">
<stop offset="0.00491534" stop-color="#456AEB"/>
<stop offset="1" stop-color="#DF5788"/>
</linearGradient>
</defs>
</svg>
