<svg width="41" height="41" viewBox="0 0 41 41" fill="none" xmlns="http://www.w3.org/2000/svg">
<g clip-path="url(#clip0_6962_17713)">
<path d="M32.1109 25.2834C31.292 24.4308 30.3042 23.9749 29.2574 23.9749C28.219 23.9749 27.2228 24.4223 26.3701 25.275L23.7024 27.9343C23.4829 27.8161 23.2634 27.7064 23.0523 27.5966C22.7484 27.4447 22.4613 27.3011 22.2165 27.1492C19.7176 25.562 17.4466 23.4937 15.2685 20.8175C14.2132 19.4836 13.5041 18.3608 12.9891 17.2211C13.6814 16.5879 14.323 15.9294 14.9477 15.2962C15.1841 15.0599 15.4205 14.815 15.6569 14.5786C17.4297 12.8058 17.4297 10.5095 15.6569 8.73659L13.3521 6.43185C13.0904 6.17014 12.8203 5.89999 12.567 5.62983C12.0605 5.10641 11.5286 4.56611 10.9798 4.05957C10.1609 3.24911 9.18164 2.81856 8.15169 2.81856C7.12173 2.81856 6.12554 3.24911 5.28131 4.05957L5.26443 4.07646L2.39406 6.97216C1.31344 8.05277 0.697159 9.36976 0.562082 10.8978C0.359468 13.363 1.0855 15.6593 1.64269 17.162C3.01034 20.8513 5.05337 24.2704 8.10103 27.9343C11.7987 32.3496 16.2478 35.8363 21.3301 38.293C23.2718 39.2132 25.8636 40.3022 28.7593 40.488C28.9366 40.4964 29.1223 40.5049 29.2911 40.5049C31.2413 40.5049 32.8791 39.8042 34.1623 38.4112C34.1708 38.3943 34.1877 38.3859 34.1961 38.369C34.6351 37.8371 35.1416 37.3559 35.6735 36.8409C36.0365 36.4948 36.408 36.1318 36.771 35.7519C37.6068 34.8823 38.0458 33.8692 38.0458 32.8308C38.0458 31.784 37.5983 30.7794 36.7457 29.9351L32.1109 25.2834ZM35.1332 34.1732C35.1248 34.1732 35.1248 34.1816 35.1332 34.1732C34.8039 34.5277 34.4663 34.8485 34.1032 35.2031C33.5545 35.7265 32.9973 36.2753 32.4739 36.8916C31.6212 37.8033 30.6166 38.2339 29.2996 38.2339C29.173 38.2339 29.0379 38.2339 28.9112 38.2255C26.4039 38.065 24.0738 37.0857 22.3263 36.25C17.5479 33.9368 13.3521 30.6527 9.86547 26.4907C6.98665 23.0209 5.06182 19.8129 3.78703 16.3684C3.0019 14.2663 2.71486 12.6285 2.8415 11.0835C2.92592 10.0958 3.30582 9.2769 4.00653 8.57619L6.88535 5.69737C7.29902 5.30903 7.73802 5.09797 8.16857 5.09797C8.70044 5.09797 9.13099 5.41878 9.40114 5.68893L9.42647 5.71426C9.94145 6.19547 10.4311 6.69356 10.9461 7.22542C11.2078 7.49558 11.4779 7.76573 11.7481 8.04432L14.0528 10.3491C14.9477 11.2439 14.9477 12.0713 14.0528 12.9662C13.808 13.211 13.5716 13.4558 13.3268 13.6922C12.6177 14.4182 11.9423 15.0936 11.2078 15.7521C11.1909 15.769 11.174 15.7774 11.1656 15.7943C10.4395 16.5204 10.5746 17.2295 10.7266 17.7107L10.7519 17.7867C11.3513 19.2388 12.1955 20.6064 13.4788 22.2358L13.4872 22.2442C15.8173 25.1146 18.274 27.3518 20.9839 29.0656C21.3301 29.2851 21.6847 29.4624 22.0223 29.6312C22.3263 29.7832 22.6133 29.9267 22.8581 30.0787C22.8919 30.0955 22.9257 30.1209 22.9594 30.1378C23.2465 30.2813 23.5166 30.3488 23.7952 30.3488C24.4959 30.3488 24.9349 29.9098 25.0784 29.7663L27.9657 26.879C28.2527 26.592 28.7086 26.2459 29.2405 26.2459C29.7639 26.2459 30.1945 26.5751 30.4562 26.8622L30.4731 26.879L35.1248 31.5307C35.9943 32.3918 35.9943 33.2783 35.1332 34.1732ZM22.1152 10.0198C24.3271 10.3913 26.3363 11.4381 27.9404 13.0422C29.5444 14.6462 30.5828 16.6554 30.9627 18.8673C31.0556 19.4245 31.5368 19.8129 32.0855 19.8129C32.1531 19.8129 32.2122 19.8044 32.2797 19.796C32.9044 19.6947 33.3181 19.1037 33.2168 18.479C32.7609 15.8028 31.4946 13.363 29.5613 11.4297C27.628 9.4964 25.1882 8.23005 22.512 7.77417C21.8873 7.67286 21.3048 8.08654 21.195 8.70282C21.0853 9.31911 21.4905 9.91851 22.1152 10.0198ZM40.4518 18.1497C39.7005 13.7429 37.6237 9.73278 34.4325 6.5416C31.2413 3.35042 27.2312 1.27362 22.8244 0.522258C22.2081 0.412509 21.6256 0.834622 21.5158 1.45091C21.4145 2.07564 21.8282 2.65815 22.4529 2.7679C26.387 3.43484 29.975 5.30058 32.8285 8.14563C35.6819 10.9991 37.5392 14.5871 38.2062 18.5212C38.299 19.0784 38.7803 19.4667 39.329 19.4667C39.3965 19.4667 39.4556 19.4583 39.5232 19.4498C40.1395 19.357 40.5616 18.766 40.4518 18.1497Z" fill="#FFD84F"/>
</g>
<defs>
<clipPath id="clip0_6962_17713">
<rect width="40" height="40" fill="white" transform="translate(0.5 0.504883)"/>
</clipPath>
</defs>
</svg>
