<svg width="37" height="41" viewBox="0 0 37 41" fill="none" xmlns="http://www.w3.org/2000/svg">
<path d="M25.1778 26.9334C29.4343 20.2543 28.8992 21.0875 29.0219 20.9134C30.5716 18.7276 31.3906 16.155 31.3906 13.4736C31.3906 6.3627 25.6202 0.504883 18.5 0.504883C11.403 0.504883 5.60938 6.35113 5.60938 13.4736C5.60938 16.1533 6.44563 18.7932 8.04609 21.0085L11.822 26.9335C7.78492 27.5539 0.921875 29.4027 0.921875 33.4736C0.921875 34.9576 1.89047 37.0725 6.50484 38.7204C9.72688 39.8711 13.9868 40.5049 18.5 40.5049C26.9395 40.5049 36.0781 38.1243 36.0781 33.4736C36.0781 29.402 29.2231 27.5551 25.1778 26.9334ZM10.0038 19.7193C9.99095 19.6992 9.97748 19.6795 9.96344 19.6601C8.63164 17.8279 7.95312 15.6565 7.95312 13.4736C7.95312 7.61285 12.6723 2.84863 18.5 2.84863C24.3155 2.84863 29.0469 7.61496 29.0469 13.4736C29.0469 15.66 28.3812 17.7578 27.1214 19.5417C27.0085 19.6906 27.5975 18.7756 18.5 33.0509L10.0038 19.7193ZM18.5 38.1611C9.28172 38.1611 3.26562 35.4515 3.26562 33.4736C3.26562 32.1443 6.35687 29.9584 13.2069 29.1064L17.5117 35.8613C17.6176 36.0274 17.7636 36.1642 17.9363 36.259C18.1091 36.3537 18.3029 36.4034 18.4999 36.4034C18.6969 36.4034 18.8908 36.3537 19.0635 36.259C19.2362 36.1642 19.3823 36.0274 19.4881 35.8613L23.7929 29.1064C30.643 29.9584 33.7344 32.1443 33.7344 33.4736C33.7344 35.4347 27.7724 38.1611 18.5 38.1611Z" fill="#FFD84F"/>
<path d="M18.5 7.61426C15.2691 7.61426 12.6406 10.2428 12.6406 13.4736C12.6406 16.7045 15.2691 19.333 18.5 19.333C21.7309 19.333 24.3594 16.7045 24.3594 13.4736C24.3594 10.2428 21.7309 7.61426 18.5 7.61426ZM18.5 16.9893C16.5615 16.9893 14.9844 15.4121 14.9844 13.4736C14.9844 11.5351 16.5615 9.95801 18.5 9.95801C20.4385 9.95801 22.0156 11.5351 22.0156 13.4736C22.0156 15.4121 20.4385 16.9893 18.5 16.9893Z" fill="#FFD84F"/>
</svg>
