<svg width="41" height="29" viewBox="0 0 41 29" fill="none" xmlns="http://www.w3.org/2000/svg">
<path d="M36.9844 0.442383H4.01562C2.08109 0.442383 0.5 2.01652 0.5 3.95801V25.0518C0.5 26.9939 2.08211 28.5674 4.01562 28.5674H36.9844C38.9189 28.5674 40.5 26.9932 40.5 25.0518V3.95801C40.5 2.01605 38.9181 0.442383 36.9844 0.442383ZM36.4445 2.78613L21.4081 17.8716C20.95 18.3311 20.0502 18.3314 19.5919 17.8716L4.55547 2.78613H36.4445ZM2.84375 24.6209V4.38887L12.927 14.5049L2.84375 24.6209ZM4.55547 26.2236L14.5816 16.1649L17.932 19.5262C19.3049 20.9036 21.6956 20.9031 23.0681 19.5262L26.4185 16.165L36.4445 26.2236H4.55547ZM38.1562 24.6209L28.073 14.5049L38.1562 4.38887V24.6209Z" fill="#FFD84F"/>
</svg>
