<svg width="20" height="21" viewBox="0 0 20 21" fill="none" xmlns="http://www.w3.org/2000/svg">
<g clip-path="url(#clip0_6911_6446)">
<path d="M18.6592 5.48038C17.7649 3.94836 16.5519 2.73536 15.0199 1.84115C13.4875 0.94699 11.8148 0.5 10.0003 0.5C8.18602 0.5 6.51276 0.94699 4.9807 1.84115C3.44854 2.73522 2.23554 3.94822 1.34129 5.48038C0.44699 7.01262 0 8.68588 0 10.5C0 12.3143 0.447127 13.9872 1.34115 15.5196C2.23536 17.0516 3.44836 18.2646 4.98052 19.1589C6.51276 20.053 8.18588 20.5 10.0001 20.5C11.8143 20.5 13.4877 20.053 15.0198 19.1589C16.5519 18.2649 17.7648 17.0516 18.659 15.5196C19.553 13.9874 20 12.3142 20 10.5C20 8.6857 19.553 7.01239 18.6592 5.48038ZM10.0002 1.95836C12.1528 1.95836 14.0322 2.67014 15.6381 4.09366L15.4753 4.32138C15.4102 4.41268 15.2475 4.58827 14.9872 4.84882C14.7268 5.10914 14.4425 5.35669 14.1344 5.59102C13.826 5.82544 13.4074 6.09233 12.8777 6.39182C12.3481 6.69132 11.7839 6.95406 11.1849 7.17972C10.1867 5.33927 9.11909 3.68129 7.98189 2.20569C8.66776 2.04077 9.34046 1.95836 10.0002 1.95836ZM3.30757 5.20022C4.14085 4.15008 5.15633 3.34266 6.35437 2.77851C7.43073 4.21078 8.48967 5.85152 9.53142 7.70041C6.89253 8.39487 4.26239 8.74212 1.64083 8.74198C1.91876 7.43129 2.4743 6.25058 3.30757 5.20022ZM2.03132 13.5797C1.64932 12.6032 1.45836 11.5765 1.45836 10.5C1.45836 10.3784 1.46283 10.2873 1.47141 10.2266C4.61393 10.2266 7.53503 9.82304 10.2347 9.01557C10.5125 9.55373 10.7425 10.0355 10.9248 10.461C10.8897 10.4783 10.8337 10.4977 10.7555 10.5195C10.6771 10.5412 10.6208 10.5563 10.5858 10.5651L10.1041 10.7343C9.77413 10.8559 9.34215 11.0643 8.80851 11.3592C8.27473 11.6547 7.70834 12.006 7.10934 12.4141C6.51034 12.8223 5.89183 13.3626 5.25388 14.0356C4.61584 14.7083 4.07983 15.4307 3.64579 16.2033C2.95134 15.4307 2.41323 14.556 2.03132 13.5797ZM10.0002 19.0418C7.96884 19.0418 6.15461 18.3907 4.55733 17.0887L4.75266 17.232C5.05645 16.5634 5.50344 15.921 6.09386 15.3048C6.6842 14.6886 7.25273 14.1914 7.7996 13.8137C8.34647 13.4364 8.94104 13.0805 9.5835 12.7459C10.2258 12.4119 10.664 12.199 10.8986 12.1082C11.133 12.017 11.3197 11.9452 11.4585 11.8931L11.4844 11.88H11.5107C12.3611 14.1109 12.969 16.2725 13.3335 18.3645C12.257 18.8161 11.1461 19.0417 10.0002 19.0418ZM17.188 15.116C16.5456 16.11 15.7425 16.9326 14.7792 17.5835C14.423 15.587 13.8678 13.5511 13.1124 11.4766C14.8398 11.2072 16.6149 11.3333 18.4379 11.854C18.2468 13.0346 17.8301 14.1221 17.188 15.116ZM18.4117 10.3829C18.3249 10.3656 18.2162 10.3459 18.0861 10.3243C17.9559 10.3028 17.7973 10.2766 17.6107 10.2462C17.4243 10.2158 17.2156 10.1877 16.9858 10.1616C16.7557 10.1356 16.5105 10.1118 16.2499 10.0901C15.9895 10.0683 15.7117 10.0511 15.4167 10.0379C15.1212 10.025 14.8219 10.0184 14.518 10.0184C14.2145 10.0184 13.8952 10.0272 13.5612 10.0445C13.2271 10.0616 12.9038 10.0923 12.5913 10.1356C12.5651 10.0922 12.5326 10.0205 12.4936 9.92064C12.4546 9.82089 12.4262 9.74482 12.4093 9.69274C12.2442 9.32816 12.0531 8.91578 11.8359 8.45584C12.4349 8.21262 13.0058 7.93278 13.5487 7.61586C14.091 7.29894 14.5247 7.017 14.8505 6.76963C15.1761 6.52199 15.4842 6.25938 15.7749 5.98168C16.0658 5.70394 16.2544 5.51089 16.3415 5.40234C16.4284 5.29362 16.5108 5.18735 16.5889 5.08333L16.6019 5.07019C17.8693 6.61534 18.5162 8.39478 18.542 10.4089L18.4117 10.3829Z" fill="#171717"/>
</g>
<defs>
<clipPath id="clip0_6911_6446">
<rect width="20" height="20" fill="white" transform="translate(0 0.5)"/>
</clipPath>
</defs>
</svg>
