<svg width="20" height="20" viewBox="0 0 20 20" fill="none" xmlns="http://www.w3.org/2000/svg">
<g clip-path="url(#clip0_6910_4680)">
<path d="M18.6592 4.98038C17.7649 3.44836 16.5519 2.23536 15.0199 1.34115C13.4875 0.44699 11.8148 0 10.0003 0C8.18602 0 6.51276 0.44699 4.9807 1.34115C3.44854 2.23522 2.23554 3.44822 1.34129 4.98038C0.44699 6.51262 0 8.18588 0 10C0 11.8143 0.447127 13.4872 1.34115 15.0196C2.23536 16.5516 3.44836 17.7646 4.98052 18.6589C6.51276 19.553 8.18588 20 10.0001 20C11.8143 20 13.4877 19.553 15.0198 18.6589C16.5519 17.7649 17.7648 16.5516 18.659 15.0196C19.553 13.4874 20 11.8142 20 10C20 8.1857 19.553 6.51239 18.6592 4.98038ZM10.0002 1.45836C12.1528 1.45836 14.0322 2.17014 15.6381 3.59366L15.4753 3.82138C15.4102 3.91268 15.2475 4.08827 14.9872 4.34882C14.7268 4.60914 14.4425 4.85669 14.1344 5.09102C13.826 5.32544 13.4074 5.59233 12.8777 5.89182C12.3481 6.19132 11.7839 6.45406 11.1849 6.67972C10.1867 4.83927 9.11909 3.18129 7.98189 1.70569C8.66776 1.54077 9.34046 1.45836 10.0002 1.45836ZM3.30757 4.70022C4.14085 3.65008 5.15633 2.84266 6.35437 2.27851C7.43073 3.71078 8.48967 5.35152 9.53142 7.20041C6.89253 7.89487 4.26239 8.24212 1.64083 8.24198C1.91876 6.93129 2.4743 5.75058 3.30757 4.70022ZM2.03132 13.0797C1.64932 12.1032 1.45836 11.0765 1.45836 10C1.45836 9.87843 1.46283 9.78727 1.47141 9.72656C4.61393 9.72656 7.53503 9.32304 10.2347 8.51557C10.5125 9.05373 10.7425 9.53552 10.9248 9.96098C10.8897 9.97831 10.8337 9.99774 10.7555 10.0195C10.6771 10.0412 10.6208 10.0563 10.5858 10.0651L10.1041 10.2343C9.77413 10.3559 9.34215 10.5643 8.80851 10.8592C8.27473 11.1547 7.70834 11.506 7.10934 11.9141C6.51034 12.3223 5.89183 12.8626 5.25388 13.5356C4.61584 14.2083 4.07983 14.9307 3.64579 15.7033C2.95134 14.9307 2.41323 14.056 2.03132 13.0797ZM10.0002 18.5418C7.96884 18.5418 6.15461 17.8907 4.55733 16.5887L4.75266 16.732C5.05645 16.0634 5.50344 15.421 6.09386 14.8048C6.6842 14.1886 7.25273 13.6914 7.7996 13.3137C8.34647 12.9364 8.94104 12.5805 9.5835 12.2459C10.2258 11.9119 10.664 11.699 10.8986 11.6082C11.133 11.517 11.3197 11.4452 11.4585 11.3931L11.4844 11.38H11.5107C12.3611 13.6109 12.969 15.7725 13.3335 17.8645C12.257 18.3161 11.1461 18.5417 10.0002 18.5418ZM17.188 14.616C16.5456 15.61 15.7425 16.4326 14.7792 17.0835C14.423 15.087 13.8678 13.0511 13.1124 10.9766C14.8398 10.7072 16.6149 10.8333 18.4379 11.354C18.2468 12.5346 17.8301 13.6221 17.188 14.616ZM18.4117 9.88286C18.3249 9.86562 18.2162 9.84592 18.0861 9.82434C17.9559 9.80277 17.7973 9.77659 17.6107 9.74622C17.4243 9.71585 17.2156 9.68771 16.9858 9.66162C16.7557 9.63558 16.5105 9.61177 16.2499 9.59006C15.9895 9.56826 15.7117 9.55107 15.4167 9.53794C15.1212 9.52498 14.8219 9.51842 14.518 9.51842C14.2145 9.51842 13.8952 9.52722 13.5612 9.54446C13.2271 9.56156 12.9038 9.5923 12.5913 9.63562C12.5651 9.59216 12.5326 9.52051 12.4936 9.42064C12.4546 9.32089 12.4262 9.24482 12.4093 9.19274C12.2442 8.82816 12.0531 8.41578 11.8359 7.95584C12.4349 7.71262 13.0058 7.43278 13.5487 7.11586C14.091 6.79894 14.5247 6.517 14.8505 6.26963C15.1761 6.02199 15.4842 5.75938 15.7749 5.48168C16.0658 5.20394 16.2544 5.01089 16.3415 4.90234C16.4284 4.79362 16.5108 4.68735 16.5889 4.58333L16.6019 4.57019C17.8693 6.11534 18.5162 7.89478 18.542 9.90885L18.4117 9.88286Z" fill="white"/>
</g>
<defs>
<clipPath id="clip0_6910_4680">
<rect width="20" height="20" fill="white"/>
</clipPath>
</defs>
</svg>
