<svg width="21" height="21" viewBox="0 0 21 21" fill="none" xmlns="http://www.w3.org/2000/svg">
<g clip-path="url(#clip0_6760_3369)">
<path d="M19.1592 5.73038C18.2649 4.19836 17.0519 2.98536 15.5199 2.09115C13.9875 1.19699 12.3148 0.75 10.5003 0.75C8.68602 0.75 7.01276 1.19699 5.4807 2.09115C3.94854 2.98522 2.73554 4.19822 1.84129 5.73038C0.94699 7.26262 0.5 8.93588 0.5 10.75C0.5 12.5643 0.947127 14.2372 1.84115 15.7696C2.73536 17.3016 3.94836 18.5146 5.48052 19.4089C7.01276 20.303 8.68588 20.75 10.5001 20.75C12.3143 20.75 13.9877 20.303 15.5198 19.4089C17.0519 18.5149 18.2648 17.3016 19.159 15.7696C20.053 14.2374 20.5 12.5642 20.5 10.75C20.5 8.9357 20.053 7.26239 19.1592 5.73038ZM10.5002 2.20836C12.6528 2.20836 14.5322 2.92014 16.1381 4.34366L15.9753 4.57138C15.9102 4.66268 15.7475 4.83827 15.4872 5.09882C15.2268 5.35914 14.9425 5.60669 14.6344 5.84102C14.326 6.07544 13.9074 6.34233 13.3777 6.64182C12.8481 6.94132 12.2839 7.20406 11.6849 7.42972C10.6867 5.58927 9.61909 3.93129 8.48189 2.45569C9.16776 2.29077 9.84046 2.20836 10.5002 2.20836ZM3.80757 5.45022C4.64085 4.40008 5.65633 3.59266 6.85437 3.02851C7.93073 4.46078 8.98967 6.10152 10.0314 7.95041C7.39253 8.64487 4.76239 8.99212 2.14083 8.99198C2.41876 7.68129 2.9743 6.50058 3.80757 5.45022ZM2.53132 13.8297C2.14932 12.8532 1.95836 11.8265 1.95836 10.75C1.95836 10.6284 1.96283 10.5373 1.97141 10.4766C5.11393 10.4766 8.03503 10.073 10.7347 9.26557C11.0125 9.80373 11.2425 10.2855 11.4248 10.711C11.3897 10.7283 11.3337 10.7477 11.2555 10.7695C11.1771 10.7912 11.1208 10.8063 11.0858 10.8151L10.6041 10.9843C10.2741 11.1059 9.84215 11.3143 9.30851 11.6092C8.77473 11.9047 8.20834 12.256 7.60934 12.6641C7.01034 13.0723 6.39183 13.6126 5.75388 14.2856C5.11584 14.9583 4.57983 15.6807 4.14579 16.4533C3.45134 15.6807 2.91323 14.806 2.53132 13.8297ZM10.5002 19.2918C8.46884 19.2918 6.65461 18.6407 5.05733 17.3387L5.25266 17.482C5.55645 16.8134 6.00344 16.171 6.59386 15.5548C7.1842 14.9386 7.75273 14.4414 8.2996 14.0637C8.84647 13.6864 9.44104 13.3305 10.0835 12.9959C10.7258 12.6619 11.164 12.449 11.3986 12.3582C11.633 12.267 11.8197 12.1952 11.9585 12.1431L11.9844 12.13H12.0107C12.8611 14.3609 13.469 16.5225 13.8335 18.6145C12.757 19.0661 11.6461 19.2917 10.5002 19.2918ZM17.688 15.366C17.0456 16.36 16.2425 17.1826 15.2792 17.8335C14.923 15.837 14.3678 13.8011 13.6124 11.7266C15.3398 11.4572 17.1149 11.5833 18.9379 12.104C18.7468 13.2846 18.3301 14.3721 17.688 15.366ZM18.9117 10.6329C18.8249 10.6156 18.7162 10.5959 18.5861 10.5743C18.4559 10.5528 18.2973 10.5266 18.1107 10.4962C17.9243 10.4658 17.7156 10.4377 17.4858 10.4116C17.2557 10.3856 17.0105 10.3618 16.7499 10.3401C16.4895 10.3183 16.2117 10.3011 15.9167 10.2879C15.6212 10.275 15.3219 10.2684 15.018 10.2684C14.7145 10.2684 14.3952 10.2772 14.0612 10.2945C13.7271 10.3116 13.4038 10.3423 13.0913 10.3856C13.0651 10.3422 13.0326 10.2705 12.9936 10.1706C12.9546 10.0709 12.9262 9.99482 12.9093 9.94274C12.7442 9.57816 12.5531 9.16578 12.3359 8.70584C12.9349 8.46262 13.5058 8.18278 14.0487 7.86586C14.591 7.54894 15.0247 7.267 15.3505 7.01963C15.6761 6.77199 15.9842 6.50938 16.2749 6.23168C16.5658 5.95394 16.7544 5.76089 16.8415 5.65234C16.9284 5.54362 17.0108 5.43735 17.0889 5.33333L17.1019 5.32019C18.3693 6.86534 19.0162 8.64478 19.042 10.6589L18.9117 10.6329Z" fill="#A0A3AA"/>
</g>
<defs>
<clipPath id="clip0_6760_3369">
<rect width="20" height="20" fill="white" transform="translate(0.5 0.75)"/>
</clipPath>
</defs>
</svg>
