<svg width="23" height="24" viewBox="0 0 23 24" fill="none" xmlns="http://www.w3.org/2000/svg">
<path d="M12.3393 18.5759C12.2296 18.6856 12.0993 18.7726 11.956 18.832C11.8127 18.8914 11.659 18.9219 11.5039 18.9219C11.3487 18.9219 11.1951 18.8914 11.0518 18.832C10.9084 18.7726 10.7782 18.6856 10.6685 18.5759L6.21317 14.1206C5.99162 13.899 5.86715 13.5985 5.86715 13.2852C5.86715 12.9719 5.99162 12.6714 6.21317 12.4498C6.43473 12.2283 6.73522 12.1038 7.04855 12.1038C7.36188 12.1038 7.66237 12.2283 7.88392 12.4498L10.3225 14.8884V1.98853C10.3225 1.6752 10.447 1.37471 10.6685 1.15315C10.8901 0.931598 11.1906 0.807129 11.5039 0.807129C11.8172 0.807129 12.1177 0.931598 12.3393 1.15315C12.5608 1.37471 12.6853 1.6752 12.6853 1.98853V14.8884L15.1239 12.4498C15.3454 12.2283 15.6459 12.1038 15.9592 12.1038C16.2726 12.1038 16.573 12.2283 16.7946 12.4498C17.0162 12.6714 17.1406 12.9719 17.1406 13.2852C17.1406 13.5985 17.0162 13.899 16.7946 14.1206L12.3393 18.5759Z" fill="#171717"/>
<path d="M1.26283 11.0464C1.57616 11.0464 1.87665 11.1709 2.09821 11.3924C2.31977 11.614 2.44423 11.9145 2.44423 12.2278V21.2852H20.5591V12.2278C20.5591 11.9145 20.6835 11.614 20.9051 11.3924C21.1267 11.1709 21.4271 11.0464 21.7405 11.0464C22.0538 11.0464 22.3543 11.1709 22.5759 11.3924C22.7974 11.614 22.9219 11.9145 22.9219 12.2278V21.679C22.9219 22.2012 22.7144 22.702 22.3452 23.0713C21.9759 23.4406 21.4751 23.648 20.9529 23.648H2.05043C1.52822 23.648 1.0274 23.4406 0.658136 23.0713C0.288877 22.702 0.0814285 22.2012 0.0814285 21.679V12.2278C0.0814285 11.9145 0.205898 11.614 0.427454 11.3924C0.64901 11.1709 0.949503 11.0464 1.26283 11.0464Z" fill="#171717"/>
</svg>
