<svg width="20" height="20" viewBox="0 0 20 20" fill="none" xmlns="http://www.w3.org/2000/svg">
<path d="M0.835022 10.0534C0.835992 14.1781 3.81702 17.6902 7.86586 18.3366V12.4766H5.75169V10.0534H7.86836V8.20879C7.77373 7.33472 8.07046 6.4636 8.67806 5.83168C9.28565 5.19977 10.1411 4.87255 11.0125 4.93878C11.638 4.94894 12.2618 5.00499 12.8792 5.10647V7.16825H11.8259C11.4632 7.12047 11.0987 7.24097 10.8348 7.49581C10.571 7.75066 10.4365 8.11227 10.4692 8.47877V10.0534H12.7784L12.4092 12.4774H10.4692V18.3366C14.8479 17.6403 17.9184 13.6167 17.4563 9.18063C16.9941 4.74456 13.1611 1.44903 8.73404 1.6815C4.30699 1.91396 0.835726 5.59304 0.835022 10.0534Z" fill="white"/>
</svg>
