<svg width="20" height="21" viewBox="0 0 20 21" fill="none" xmlns="http://www.w3.org/2000/svg">
<path d="M0.835938 10.5534C0.836907 14.6781 3.81794 18.1902 7.86677 18.8366V12.9766H5.7526V10.5534H7.86927V8.70879C7.77465 7.83472 8.07137 6.9636 8.67897 6.33168C9.28657 5.69977 10.1421 5.37255 11.0134 5.43878C11.6389 5.44894 12.2628 5.50499 12.8801 5.60647V7.66825H11.8268C11.4641 7.62047 11.0996 7.74097 10.8357 7.99581C10.5719 8.25066 10.4374 8.61227 10.4701 8.97877V10.5534H12.7793L12.4101 12.9774H10.4701V18.8366C14.8488 18.1403 17.9193 14.1167 17.4572 9.68063C16.995 5.24456 13.162 1.94903 8.73496 2.1815C4.30791 2.41396 0.836641 6.09304 0.835938 10.5534Z" fill="#171717"/>
</svg>
