<svg width="18" height="18" viewBox="0 0 18 18" fill="none" xmlns="http://www.w3.org/2000/svg">
<path d="M0.335938 8.80341C0.336907 12.9281 3.31794 16.4402 7.36677 17.0866V11.2266H5.2526V8.80341H7.36927V6.95879C7.27465 6.08472 7.57137 5.2136 8.17897 4.58168C8.78657 3.94977 9.64207 3.62255 10.5134 3.68878C11.1389 3.69894 11.7628 3.75499 12.3801 3.85647V5.91825H11.3268C10.9641 5.87047 10.5996 5.99097 10.3357 6.24581C10.0719 6.50066 9.93742 6.86227 9.9701 7.22877V8.80341H12.2793L11.9101 11.2274H9.9701V17.0866C14.3488 16.3903 17.4193 12.3667 16.9572 7.93063C16.495 3.49456 12.662 0.199033 8.23496 0.431497C3.80791 0.66396 0.336641 4.34304 0.335938 8.80341Z" fill="#A0A3AA"/>
</svg>
