<svg width="80" height="81" viewBox="0 0 80 81" fill="none" xmlns="http://www.w3.org/2000/svg">
<g clip-path="url(#clip0_6918_8990)">
<path d="M66.6693 21.3925V55.6782C66.6693 57.6989 65.8666 59.6368 64.4377 61.0657C63.0089 62.4945 61.0709 63.2972 59.0502 63.2972H47.6217L40.0026 74.7258L32.3836 63.2972H20.955C18.9343 63.2972 16.9964 62.4945 15.5675 61.0657C14.1387 59.6368 13.3359 57.6989 13.3359 55.6782V21.3925C13.3359 19.3718 14.1387 17.4339 15.5675 16.005C16.9964 14.5762 18.9343 13.7734 20.955 13.7734H59.0502C61.0709 13.7734 63.0089 14.5762 64.4377 16.005C65.8666 17.4339 66.6693 19.3718 66.6693 21.3925Z" fill="white"/>
<path d="M66.6693 48.0596V55.6786C66.6693 57.6993 65.8666 59.6372 64.4377 61.0661C63.0089 62.4949 61.0709 63.2977 59.0502 63.2977H47.6217L40.0026 74.7262L32.3836 63.2977H20.955C18.9343 63.2977 16.9964 62.4949 15.5675 61.0661C14.1387 59.6372 13.3359 57.6993 13.3359 55.6786V48.0596H66.6693Z" fill="url(#paint0_linear_6918_8990)"/>
<path d="M32.381 32.8214C32.381 33.8318 31.9796 34.8007 31.2652 35.5152C30.5507 36.2296 29.5818 36.631 28.5714 36.631C27.5611 36.631 26.5921 36.2296 25.8777 35.5152C25.1633 34.8007 24.7619 33.8318 24.7619 32.8214C24.7619 31.8111 25.1633 30.8421 25.8777 30.1277C26.5921 29.4133 27.5611 29.0119 28.5714 29.0119C29.5818 29.0119 30.5507 29.4133 31.2652 30.1277C31.9796 30.8421 32.381 31.8111 32.381 32.8214ZM51.4286 29.0119C50.4182 29.0119 49.4493 29.4133 48.7348 30.1277C48.0204 30.8421 47.619 31.8111 47.619 32.8214C47.619 33.8318 48.0204 34.8007 48.7348 35.5152C49.4493 36.2296 50.4182 36.631 51.4286 36.631C52.4389 36.631 53.4079 36.2296 54.1223 35.5152C54.8367 34.8007 55.2381 33.8318 55.2381 32.8214C55.2381 31.8111 54.8367 30.8421 54.1223 30.1277C53.4079 29.4133 52.4389 29.0119 51.4286 29.0119ZM68.5714 21.3929V55.6786C68.5714 60.9319 64.3009 65.2024 59.0476 65.2024H48.64L41.5848 75.7814C41.4102 76.0415 41.1744 76.2546 40.898 76.402C40.6216 76.5494 40.3132 76.6264 40 76.6264C39.6868 76.6264 39.3784 76.5494 39.102 76.402C38.8256 76.2546 38.5898 76.0415 38.4152 75.7814L31.36 65.2024H20.9524C18.4271 65.2004 16.0059 64.1963 14.2203 62.4107C12.4346 60.6251 11.4306 58.2038 11.4286 55.6786V21.3929C11.4286 16.1395 15.699 11.869 20.9524 11.869H38.0952V6.15476C38.0952 5.64959 38.2959 5.1651 38.6531 4.80789C39.0103 4.45068 39.4948 4.25 40 4.25C40.5052 4.25 40.9897 4.45068 41.3469 4.80789C41.7041 5.1651 41.9048 5.64959 41.9048 6.15476V11.869H59.0476C64.3009 11.869 68.5714 16.1395 68.5714 21.3929ZM64.7619 49.9643H15.2381V55.6786C15.2381 58.8291 17.8019 61.3929 20.9524 61.3929H32.381C33.0171 61.3929 33.6114 61.7129 33.9657 62.2424L40 71.2938L46.0343 62.2424C46.2083 61.9815 46.4439 61.7675 46.7204 61.6193C46.9968 61.4711 47.3054 61.3934 47.619 61.3929H59.0476C62.1981 61.3929 64.7619 58.8291 64.7619 55.6786V49.9643ZM64.7619 21.3929C64.7619 18.2424 62.1981 15.6786 59.0476 15.6786H20.9524C17.8019 15.6786 15.2381 18.2424 15.2381 21.3929V46.1548H64.7619V21.3929ZM1.90476 23.2976C1.39959 23.2976 0.915104 23.4983 0.557892 23.8555C0.20068 24.2127 0 24.6972 0 25.2024V40.4405C0 40.9457 0.20068 41.4301 0.557892 41.7874C0.915104 42.1446 1.39959 42.3452 1.90476 42.3452C2.40994 42.3452 2.89442 42.1446 3.25163 41.7874C3.60884 41.4301 3.80952 40.9457 3.80952 40.4405V25.2024C3.80952 24.6972 3.60884 24.2127 3.25163 23.8555C2.89442 23.4983 2.40994 23.2976 1.90476 23.2976ZM78.0952 23.2976C77.5901 23.2976 77.1056 23.4983 76.7484 23.8555C76.3912 24.2127 76.1905 24.6972 76.1905 25.2024V40.4405C76.1905 40.9457 76.3912 41.4301 76.7484 41.7874C77.1056 42.1446 77.5901 42.3452 78.0952 42.3452C78.6004 42.3452 79.0849 42.1446 79.4421 41.7874C79.7993 41.4301 80 40.9457 80 40.4405V25.2024C80 24.6972 79.7993 24.2127 79.4421 23.8555C79.0849 23.4983 78.6004 23.2976 78.0952 23.2976Z" fill="#3A3B3E"/>
</g>
<defs>
<linearGradient id="paint0_linear_6918_8990" x1="13.3355" y1="74.7262" x2="30.86" y2="33.0149" gradientUnits="userSpaceOnUse">
<stop stop-color="#52DA98"/>
<stop offset="1" stop-color="#F8FAB5"/>
</linearGradient>
<clipPath id="clip0_6918_8990">
<rect width="80" height="80" fill="white" transform="translate(0 0.25)"/>
</clipPath>
</defs>
</svg>
