<svg width="80" height="81" viewBox="0 0 80 81" fill="none" xmlns="http://www.w3.org/2000/svg">
<g clip-path="url(#clip0_6918_8966)">
<path d="M13.3467 78.9163V72.2509C13.2963 70.2101 13.8987 68.2066 15.0663 66.532C15.954 65.3653 17.1085 64.4285 18.4329 63.7999C19.7573 63.1713 21.213 62.8694 22.6782 62.9194C24.1925 62.9027 25.6913 63.2261 27.064 63.8659C25.8964 65.5404 25.2939 67.544 25.3443 69.5848V78.9163H13.3467Z" fill="white"/>
<path d="M34.675 54.9213C36.8837 54.9213 38.6742 53.1308 38.6742 50.9221C38.6742 48.7134 36.8837 46.9229 34.675 46.9229C32.4663 46.9229 30.6758 48.7134 30.6758 50.9221C30.6758 53.1308 32.4663 54.9213 34.675 54.9213Z" fill="white"/>
<path d="M22.6789 57.5873C24.8876 57.5873 26.6781 55.7968 26.6781 53.5881C26.6781 51.3794 24.8876 49.5889 22.6789 49.5889C20.4702 49.5889 18.6797 51.3794 18.6797 53.5881C18.6797 55.7968 20.4702 57.5873 22.6789 57.5873Z" fill="white"/>
<path d="M10.6789 60.2543C12.8876 60.2543 14.6781 58.4638 14.6781 56.2551C14.6781 54.0464 12.8876 52.2559 10.6789 52.2559C8.4702 52.2559 6.67969 54.0464 6.67969 56.2551C6.67969 58.4638 8.4702 60.2543 10.6789 60.2543Z" fill="white"/>
<path d="M15.0647 66.5322C13.692 65.8924 12.1933 65.569 10.6789 65.5857C9.43682 65.5225 8.19529 65.7207 7.03454 66.1673C5.8738 66.6139 4.81966 67.2991 3.94023 68.1785C3.0608 69.0579 2.37564 70.1121 1.92902 71.2728C1.48241 72.4336 1.28427 73.6751 1.3474 74.9172V78.9164H25.3427M45.3388 78.9164H25.3427V69.5849C25.2923 67.5441 25.8948 65.5405 27.0624 63.866C27.9501 62.6993 29.1045 61.7624 30.4289 61.1339C31.7533 60.5053 33.2091 60.2034 34.6742 60.2534C37.1412 60.1965 39.5329 61.1053 41.3396 62.7862" fill="white"/>
<path d="M34.6711 56.2544C33.6165 56.2544 32.5855 55.9417 31.7086 55.3558C30.8317 54.7699 30.1483 53.9371 29.7447 52.9627C29.3411 51.9884 29.2355 50.9162 29.4413 49.8819C29.647 48.8475 30.1549 47.8974 30.9006 47.1516C31.6463 46.4059 32.5965 45.8981 33.6308 45.6923C34.6652 45.4866 35.7373 45.5922 36.7117 45.9957C37.686 46.3993 38.5188 47.0828 39.1047 47.9597C39.6907 48.8366 40.0034 49.8675 40.0034 50.9221C40.0034 52.3364 39.4416 53.6926 38.4416 54.6926C37.4416 55.6926 36.0853 56.2544 34.6711 56.2544ZM34.6711 48.256C34.1438 48.256 33.6283 48.4124 33.1899 48.7053C32.7514 48.9983 32.4097 49.4147 32.2079 49.9019C32.0061 50.389 31.9533 50.9251 32.0562 51.4423C32.159 51.9595 32.413 52.4345 32.7858 52.8074C33.1587 53.1803 33.6338 53.4342 34.151 53.5371C34.6681 53.6399 35.2042 53.5871 35.6914 53.3853C36.1786 53.1835 36.595 52.8418 36.8879 52.4034C37.1809 51.9649 37.3372 51.4495 37.3372 50.9221C37.3372 50.215 37.0563 49.5369 36.5563 49.0369C36.0563 48.5369 35.3782 48.256 34.6711 48.256ZM22.6734 58.9206C21.6188 58.9206 20.5879 58.6078 19.711 58.0219C18.8341 57.436 18.1506 56.6032 17.747 55.6289C17.3435 54.6545 17.2379 53.5824 17.4436 52.548C17.6494 51.5136 18.1572 50.5635 18.9029 49.8178C19.6487 49.0721 20.5988 48.5642 21.6332 48.3585C22.6675 48.1527 23.7397 48.2583 24.714 48.6619C25.6884 49.0655 26.5212 49.7489 27.1071 50.6258C27.693 51.5027 28.0057 52.5337 28.0057 53.5883C28.0057 55.0025 27.4439 56.3588 26.4439 57.3588C25.4439 58.3588 24.0876 58.9206 22.6734 58.9206ZM22.6734 50.9221C22.1461 50.9221 21.6307 51.0785 21.1922 51.3715C20.7538 51.6644 20.412 52.0808 20.2102 52.568C20.0084 53.0552 19.9556 53.5912 20.0585 54.1084C20.1614 54.6256 20.4153 55.1007 20.7882 55.4735C21.1611 55.8464 21.6361 56.1003 22.1533 56.2032C22.6705 56.3061 23.2066 56.2533 23.6937 56.0515C24.1809 55.8497 24.5973 55.508 24.8903 55.0695C25.1832 54.6311 25.3396 54.1156 25.3396 53.5883C25.3396 52.8812 25.0587 52.203 24.5587 51.703C24.0587 51.203 23.3805 50.9221 22.6734 50.9221ZM10.6758 61.5867C9.62115 61.5867 8.59021 61.274 7.71332 60.6881C6.83643 60.1021 6.15298 59.2694 5.74939 58.295C5.3458 57.3207 5.2402 56.2485 5.44595 55.2142C5.6517 54.1798 6.15955 53.2297 6.90528 52.4839C7.65102 51.7382 8.60114 51.2303 9.6355 51.0246C10.6699 50.8188 11.742 50.9244 12.7164 51.328C13.6907 51.7316 14.5235 52.4151 15.1094 53.292C15.6953 54.1689 16.0081 55.1998 16.0081 56.2544C16.0081 57.6686 15.4463 59.0249 14.4463 60.0249C13.4463 61.0249 12.09 61.5867 10.6758 61.5867ZM10.6758 53.5883C10.1485 53.5883 9.633 53.7446 9.19455 54.0376C8.75611 54.3306 8.41438 54.747 8.21258 55.2341C8.01079 55.7213 7.95799 56.2574 8.06086 56.7746C8.16374 57.2918 8.41767 57.7668 8.79053 58.1397C9.1634 58.5125 9.63846 58.7665 10.1556 58.8693C10.6728 58.9722 11.2089 58.9194 11.6961 58.7176C12.1832 58.5158 12.5996 58.1741 12.8926 57.7357C13.1856 57.2972 13.3419 56.7817 13.3419 56.2544C13.3419 55.5473 13.061 54.8692 12.561 54.3692C12.061 53.8692 11.3829 53.5883 10.6758 53.5883ZM25.3396 80.2497H1.34427C0.990719 80.2497 0.651646 80.1093 0.401646 79.8593C0.151647 79.6093 0.0111985 79.2702 0.0111985 78.9167V74.9175C-0.0553139 73.4993 0.175008 72.0829 0.687422 70.7589C1.19983 69.4349 1.98305 68.2325 2.98693 67.2286C3.99081 66.2247 5.19323 65.4415 6.51723 64.9291C7.84124 64.4167 9.25764 64.1864 10.6758 64.2529C12.3893 64.2323 14.085 64.6015 15.6348 65.3327L14.4884 67.7322C13.2934 67.182 11.9912 66.9043 10.6758 66.919C9.60972 66.8592 8.54304 67.0251 7.5455 67.4058C6.54797 67.7866 5.64207 68.3737 4.88707 69.1287C4.13206 69.8837 3.54496 70.7896 3.16417 71.7872C2.78339 72.7847 2.61749 73.8514 2.67734 74.9175V77.5836H25.3396V80.2497Z" fill="#3A3B3E"/>
<path d="M45.3352 80.2494H25.3391C24.9856 80.2494 24.6465 80.1089 24.3965 79.8589C24.1465 79.6089 24.0061 79.2698 24.0061 78.9163V69.5848C23.9602 67.2624 24.6508 64.9851 25.979 63.0794C26.9931 61.7454 28.3104 60.6723 29.822 59.949C31.3335 59.2257 32.9956 58.873 34.6706 58.9202C37.4886 58.8662 40.2175 59.9081 42.2825 61.8263L40.4162 63.7459C38.8559 62.3044 36.7942 61.5294 34.6706 61.5863C33.4167 61.5423 32.1702 61.7974 31.0344 62.3306C29.8985 62.8638 28.9059 63.6596 28.1386 64.6524C27.134 66.097 26.6199 67.826 26.6722 69.5848V77.5832H45.3352V80.2494Z" fill="#3A3B3E"/>
<path d="M25.3407 80.2502H13.343C12.9895 80.2502 12.6504 80.1098 12.4004 79.8598C12.1504 79.6098 12.01 79.2707 12.01 78.9171V72.2518C11.9641 69.9294 12.6548 67.6521 13.9829 65.7464C14.997 64.4124 16.3143 63.3393 17.8259 62.616C19.3374 61.8926 20.9995 61.54 22.6745 61.5872C24.388 61.5666 26.0838 61.9358 27.6336 62.667C27.8095 62.7501 27.9652 62.8708 28.0895 63.0205C28.2139 63.1702 28.304 63.3453 28.3534 63.5335C28.4029 63.7243 28.4094 63.9237 28.3725 64.1173C28.3356 64.3109 28.2563 64.494 28.1401 64.6533C27.1355 66.0978 26.6215 67.8269 26.6738 69.5856V78.9171C26.6738 79.2707 26.5333 79.6098 26.2833 79.8598C26.0333 80.1098 25.6942 80.2502 25.3407 80.2502ZM14.6761 77.5841H24.0076V69.5856C23.989 67.8495 24.3626 66.1315 25.1007 64.5599C24.3085 64.3538 23.4931 64.2508 22.6745 64.2533C21.4206 64.2093 20.1741 64.4644 19.0383 64.9976C17.9024 65.5307 16.9098 66.3266 16.1425 67.3194C15.1379 68.764 14.6238 70.493 14.6761 72.2518V77.5841Z" fill="#3A3B3E"/>
<path d="M74.6628 28.2598C73.6021 28.2598 72.5849 28.6811 71.8349 29.4311C71.0849 30.1811 70.6635 31.1983 70.6635 32.259V40.2574C70.6635 46.1496 68.9705 50.922 58.6659 50.922C49.3344 51.4952 41.3359 56.041 41.3359 61.5866V74.784C41.3359 75.8447 41.7573 76.8619 42.5073 77.6119C43.2573 78.3619 44.2745 78.7832 45.3352 78.7832C46.3958 78.7832 47.413 78.3619 48.163 77.6119C48.913 76.8619 49.3344 75.8447 49.3344 74.784V73.5842C56.7729 69.7183 67.0642 66.7856 70.6635 66.9189V56.7609C75.4493 53.6681 78.662 49.109 78.662 45.5897V32.259C78.662 31.1983 78.2406 30.1811 77.4906 29.4311C76.7406 28.6811 75.7234 28.2598 74.6628 28.2598Z" fill="white"/>
<path d="M58.6659 50.9219C49.3344 51.4951 41.3359 56.0409 41.3359 61.5865V74.7839C41.3359 75.8445 41.7573 76.8618 42.5073 77.6118C43.2573 78.3618 44.2745 78.7831 45.3352 78.7831C46.3958 78.7831 47.413 78.3618 48.163 77.6118C48.913 76.8618 49.3344 75.8445 49.3344 74.7839V73.5841" fill="white"/>
<path d="M58.6693 45.5905C62.3504 45.5905 65.3346 42.6063 65.3346 38.9251C65.3346 35.244 62.3504 32.2598 58.6693 32.2598C54.9881 32.2598 52.0039 35.244 52.0039 38.9251C52.0039 42.6063 54.9881 45.5905 58.6693 45.5905Z" fill="white"/>
<path d="M45.5356 29.9128L46.4421 35.0851L14.7283 40.3108L24.5931 26.8601L10.6758 17.3419L36.924 12.9961" fill="url(#paint0_linear_6918_8966)"/>
<path d="M73.7032 24.5142L40.0031 30.9262L36.0039 6.82428L70.2905 1.59863L74.663 28.2601" fill="url(#paint1_linear_6918_8966)"/>
<path d="M14.675 41.5909C14.4286 41.5916 14.1868 41.5239 13.9765 41.3954C13.7662 41.2668 13.5956 41.0826 13.4837 40.863C13.3719 40.6434 13.3231 40.397 13.3427 40.1514C13.3624 39.9057 13.4498 39.6703 13.5952 39.4713L22.6735 27.1804L9.92929 18.4354C9.71058 18.285 9.54175 18.0728 9.44442 17.8258C9.34709 17.5789 9.32569 17.3085 9.38297 17.0494C9.44025 16.7902 9.57359 16.554 9.76592 16.3711C9.95824 16.1881 10.2008 16.0668 10.4625 16.0226L36.7107 11.6768L37.1373 14.3429L14.1685 18.1155L25.3396 25.7673C25.4883 25.866 25.6156 25.9936 25.7141 26.1424C25.8126 26.2913 25.8802 26.4584 25.9128 26.6338C25.9429 26.8102 25.9371 26.9907 25.8959 27.1648C25.8546 27.3389 25.7788 27.5028 25.6729 27.647L17.7411 38.4715L44.8958 33.9924L44.2293 30.1398L46.8954 29.6866L47.7486 34.9255C47.7806 35.098 47.7782 35.2751 47.7416 35.4467C47.705 35.6183 47.6349 35.7809 47.5353 35.9254C47.4325 36.0706 47.3017 36.1937 47.1506 36.2876C46.9995 36.3814 46.8312 36.4441 46.6554 36.4719L14.9416 41.5909H14.675ZM58.6664 46.9232C57.0845 46.9232 55.5381 46.4541 54.2227 45.5752C52.9074 44.6964 51.8822 43.4472 51.2768 41.9856C50.6715 40.5241 50.5131 38.9159 50.8217 37.3644C51.1303 35.8128 51.8921 34.3876 53.0107 33.269C54.1293 32.1504 55.5545 31.3886 57.106 31.08C58.6576 30.7714 60.2658 30.9298 61.7273 31.5352C63.1888 32.1406 64.438 33.1657 65.3169 34.4811C66.1958 35.7964 66.6649 37.3428 66.6649 38.9248C66.6649 41.0461 65.8222 43.0805 64.3222 44.5805C62.8222 46.0805 60.7878 46.9232 58.6664 46.9232ZM58.6664 33.5925C57.6118 33.5925 56.5809 33.9052 55.704 34.4911C54.8271 35.077 54.1436 35.9098 53.74 36.8842C53.3365 37.8585 53.2309 38.9307 53.4366 39.965C53.6423 40.9994 54.1502 41.9495 54.8959 42.6953C55.6417 43.441 56.5918 43.9489 57.6262 44.1546C58.6605 44.3604 59.7327 44.2548 60.707 43.8512C61.6814 43.4476 62.5142 42.7641 63.1001 41.8872C63.686 41.0103 63.9987 39.9794 63.9987 38.9248C63.9987 37.5106 63.4369 36.1543 62.4369 35.1543C61.4369 34.1543 60.0807 33.5925 58.6664 33.5925Z" fill="#3A3B3E"/>
<path d="M40.0043 32.2594C39.7324 32.2587 39.4673 32.175 39.2444 32.0194C39.0967 31.9179 38.9711 31.7877 38.8749 31.6365C38.7787 31.4854 38.7139 31.3163 38.6845 31.1396L34.672 7.03763C34.6419 6.86427 34.6464 6.68667 34.6853 6.51507C34.7242 6.34348 34.7967 6.18128 34.8986 6.03783C35.0026 5.89509 35.1339 5.77446 35.285 5.68292C35.436 5.59138 35.6038 5.53076 35.7784 5.5046L70.0917 0.26562C70.4398 0.211868 70.795 0.298066 71.0798 0.505383C71.3645 0.712701 71.5557 1.02429 71.6114 1.37207L75.9839 28.0335L73.3177 28.4601L72.9178 26.0073L40.2575 32.2594H40.0043ZM37.5381 7.94412L41.0974 29.3666L72.5179 23.3811L69.1986 3.1184L37.5381 7.94412Z" fill="#3A3B3E"/>
<path d="M45.3366 80.2506C44.6276 80.242 43.9272 80.0937 43.2755 79.8143C42.6238 79.5349 42.0335 79.1299 41.5384 78.6223C41.0432 78.1148 40.6529 77.5147 40.3897 76.8563C40.1265 76.1979 39.9955 75.4941 40.0043 74.7851V61.5876C40.0043 55.5221 48.1627 50.2698 58.574 49.59C67.5856 49.59 69.3319 46.164 69.3319 40.2585V32.26C69.3319 30.8458 69.8937 29.4895 70.8937 28.4895C71.8937 27.4895 73.25 26.9277 74.6642 26.9277C76.0784 26.9277 77.4347 27.4895 78.4347 28.4895C79.4347 29.4895 79.9965 30.8458 79.9965 32.26V45.5908C79.9965 49.4567 76.8105 54.1624 71.9981 57.4818V66.9199C71.9981 67.2735 71.8576 67.6125 71.6076 67.8625C71.3576 68.1125 71.0186 68.253 70.665 68.253C67.7322 68.253 58.2141 70.6659 50.6689 74.3985V74.7851C50.6777 75.4941 50.5468 76.1979 50.2836 76.8563C50.0203 77.5147 49.63 78.1148 49.1348 78.6223C48.6397 79.1299 48.0494 79.5349 47.3977 79.8143C46.746 80.0937 46.0456 80.242 45.3366 80.2506ZM74.6642 29.5939C73.9571 29.5939 73.279 29.8748 72.779 30.3748C72.279 30.8748 71.9981 31.5529 71.9981 32.26V40.2585C71.9981 46.1906 70.4117 52.2561 58.6673 52.2561C50.0424 52.7893 42.6705 57.0419 42.6705 61.5876V74.7851C42.6705 75.4922 42.9514 76.1703 43.4514 76.6703C43.9514 77.1703 44.6295 77.4512 45.3366 77.4512C46.0437 77.4512 46.7219 77.1703 47.2219 76.6703C47.7219 76.1703 48.0028 75.4922 48.0028 74.7851V73.5853C48.0023 73.3405 48.0692 73.1003 48.1961 72.891C48.3231 72.6817 48.5053 72.5115 48.7226 72.3989C55.6413 68.7996 64.7195 66.0668 69.3319 65.6402V56.7619C69.3323 56.5389 69.3886 56.3195 69.4958 56.1238C69.6029 55.9282 69.7574 55.7626 69.9451 55.6421C74.291 52.8293 77.3304 48.6968 77.3304 45.5908V32.26C77.3304 31.5529 77.0495 30.8748 76.5495 30.3748C76.0495 29.8748 75.3713 29.5939 74.6642 29.5939Z" fill="#3A3B3E"/>
<path d="M48.0039 61.5869H50.6701V73.5846H48.0039V61.5869Z" fill="#3A3B3E"/>
</g>
<defs>
<linearGradient id="paint0_linear_6918_8966" x1="10.6755" y1="40.3108" x2="33.5235" y2="4.70621" gradientUnits="userSpaceOnUse">
<stop stop-color="#52DA98"/>
<stop offset="1" stop-color="#F8FAB5"/>
</linearGradient>
<linearGradient id="paint1_linear_6918_8966" x1="36.0036" y1="30.9262" x2="60.4669" y2="-7.4505" gradientUnits="userSpaceOnUse">
<stop stop-color="#52DA98"/>
<stop offset="1" stop-color="#F8FAB5"/>
</linearGradient>
<clipPath id="clip0_6918_8966">
<rect width="80" height="80" fill="white" transform="translate(0 0.25)"/>
</clipPath>
</defs>
</svg>
