<svg width="80" height="79" viewBox="0 0 80 79" fill="none" xmlns="http://www.w3.org/2000/svg">
<path d="M7.9987 34.2666H42.6654C46.3987 34.2666 49.332 37.1999 49.332 40.9333V60.9333C49.332 64.6666 46.3987 67.5999 42.6654 67.5999H25.332C25.9987 72.7999 21.332 77.7333 16.132 77.4666C17.9987 74.5333 17.8654 70.3999 15.8654 67.5999H7.9987C4.26536 67.5999 1.33203 64.6666 1.33203 60.9333V40.9333C1.33203 37.3333 4.26536 34.2666 7.9987 34.2666Z" fill="white"/>
<path d="M16.2667 78.9336C15.2 79.0669 14.2667 77.8669 14.9333 76.9336C16.4 74.6669 16.4 71.6003 15.0667 69.0669H8C3.6 69.0669 0 65.4669 0 61.0669V40.9336C0 36.5336 3.6 32.9336 8 32.9336H42.6667C47.0667 32.9336 50.6667 36.5336 50.6667 40.9336V60.9336C50.6667 65.3336 47.0667 68.9336 42.6667 68.9336H26.6667C26.5333 74.4003 21.6 78.9336 16.2667 78.9336ZM8 35.6003C5.06667 35.6003 2.66667 38.0003 2.66667 40.9336V60.9336C2.66667 63.8669 5.06667 66.2669 8 66.2669H15.8667C16.2667 66.2669 16.8 66.5336 16.9333 66.9336C18.6667 69.6003 19.2 73.0669 18.2667 76.0003C21.8667 75.0669 24.4 71.6003 24 67.8669C23.8667 67.0669 24.5333 66.4003 25.3333 66.4003H42.6667C45.6 66.4003 48 64.0003 48 61.0669V40.9336C48 38.0003 45.6 35.6003 42.6667 35.6003H8Z" fill="#3A3B3E"/>
<path d="M72.0013 28.2666H37.3346C33.6013 28.2666 30.668 31.1999 30.668 34.9333V54.9333C30.668 58.6666 33.6013 61.5999 37.3346 61.5999H50.0013C49.3346 66.7999 54.0013 71.7333 59.2013 71.4666C57.3346 68.5333 57.468 64.3999 59.468 61.5999H72.0013C75.7346 61.5999 78.668 58.6666 78.668 54.9333V34.9333C78.668 31.1999 75.7346 28.2666 72.0013 28.2666Z" fill="white"/>
<path d="M69.5977 16.5331C69.5977 7.99979 62.5311 1.19979 53.8644 1.59979C40.2644 2.39979 34.6644 19.5998 45.1977 28.1331C46.7977 29.4665 47.731 31.4665 47.731 33.5998H61.731C61.731 31.4665 62.6644 29.4665 64.2644 28.1331C67.5977 25.3331 69.5977 21.1998 69.5977 16.5331Z" fill="url(#paint0_linear_6918_8938)"/>
<path d="M59.0693 72.7999C53.7359 72.7999 48.8026 68.2666 48.6693 62.7999H37.3359C32.9359 62.7999 29.3359 59.1999 29.3359 54.7999V34.7999C29.3359 30.3999 32.9359 26.7999 37.3359 26.7999H72.0026C76.4026 26.7999 80.0026 30.3999 80.0026 34.7999V54.7999C80.0026 59.1999 76.4026 62.7999 72.0026 62.7999H60.1359C58.8026 65.3332 58.8026 68.3999 60.2693 70.6666C60.9359 71.7332 60.1359 73.0666 59.0693 72.7999ZM37.3359 29.5999C34.4026 29.5999 32.0026 31.9999 32.0026 34.9332V54.9332C32.0026 57.8666 34.4026 60.2666 37.3359 60.2666H50.0026C50.8026 60.2666 51.4693 60.9332 51.3359 61.7332C50.9359 65.4666 53.4693 68.9332 57.0693 69.8666C56.1359 66.9332 56.5359 63.5999 58.4026 60.7999C58.6693 60.3999 59.0693 60.1332 59.4693 60.1332H72.0026C74.9359 60.1332 77.3359 57.7332 77.3359 54.7999V34.7999C77.3359 31.8666 74.9359 29.4666 72.0026 29.4666C72.0026 29.5999 37.3359 29.5999 37.3359 29.5999ZM72.8026 11.9999C71.6026 11.9999 70.9359 10.2666 72.0026 9.59989L75.2026 7.19989C76.6693 6.13322 78.1359 8.26656 76.8026 9.33323L73.6026 11.7332C73.3359 11.8666 73.0693 11.9999 72.8026 11.9999ZM78.6693 17.7332H74.6693C72.9359 17.7332 72.9359 15.0666 74.6693 15.0666H78.6693C80.4026 15.1999 80.4026 17.7332 78.6693 17.7332ZM76.0026 25.9999C75.7359 25.9999 75.4693 25.8666 75.2026 25.7332L72.0026 23.3332C71.4693 22.9332 71.3359 22.1332 71.7359 21.4666C72.1359 20.9332 72.9359 20.7999 73.6026 21.1999L76.8026 23.5999C77.8693 24.2666 77.2026 25.9999 76.0026 25.9999ZM36.5359 11.9999C36.2693 11.9999 36.0026 11.8666 35.7359 11.7332L32.5359 9.33323C32.0026 8.93323 31.8693 8.13323 32.2693 7.46656C32.6693 6.93323 33.4693 6.79989 34.1359 7.19989L37.3359 9.59989C38.4026 10.2666 37.8693 11.9999 36.5359 11.9999ZM34.6693 17.7332H30.6693C28.9359 17.7332 28.9359 15.0666 30.6693 15.0666H34.6693C36.4026 15.1999 36.4026 17.7332 34.6693 17.7332ZM33.3359 25.9999C32.1359 25.9999 31.4693 24.2666 32.5359 23.5999L35.7359 21.1999C37.2026 20.1332 38.6693 22.2666 37.3359 23.3332L34.1359 25.7332C33.8693 25.8666 33.6026 25.9999 33.3359 25.9999Z" fill="#3A3B3E"/>
<path d="M42.668 36.9329C42.668 35.0663 44.1346 33.5996 46.0013 33.5996H63.3346C65.2013 33.5996 66.668 35.0663 66.668 36.9329C66.668 38.7996 65.2013 40.2663 63.3346 40.2663H46.0013C44.1346 40.2663 42.668 38.7996 42.668 36.9329ZM52.0013 33.5996V24.2663C52.0013 22.7996 53.2013 21.5996 54.668 21.5996C56.1346 21.5996 57.3346 22.7996 57.3346 24.2663V33.5996H52.0013Z" fill="white"/>
<path d="M57.3346 34.9333H52.0013C51.2013 34.9333 50.668 34.3999 50.668 33.5999V24.2666C50.668 21.9999 52.4013 20.2666 54.668 20.2666C56.9346 20.2666 58.668 21.9999 58.668 24.2666V33.5999C58.668 34.2666 58.1346 34.9333 57.3346 34.9333ZM53.3346 32.2666H56.0013V24.2666C56.0013 23.4666 55.468 22.9333 54.668 22.9333C53.868 22.9333 53.3346 23.4666 53.3346 24.2666V32.2666Z" fill="#3A3B3E"/>
<path d="M61.5965 34.9333H47.7298C46.9299 34.9333 46.3965 34.3999 46.3965 33.5999C46.3965 31.8666 45.5965 30.2666 44.3965 29.1999C40.3965 25.8666 38.2632 21.0666 38.3965 15.8666C38.6632 7.59992 45.4632 0.666583 53.8632 0.266583C69.4632 -0.400084 77.0632 19.1999 65.0632 29.1999C63.7298 30.2666 62.9299 31.8666 62.9299 33.5999C62.9299 34.2666 62.3965 34.9333 61.5965 34.9333ZM48.9299 32.2666H60.5299C60.7965 30.2666 61.8632 28.3999 63.4632 27.0666C66.6632 24.3999 68.3965 20.6666 68.3965 16.5332C68.5298 8.93325 61.7298 2.39992 54.1298 2.93325C47.0632 3.19992 41.4632 9.06658 41.0632 15.9999C40.9299 20.2666 42.6632 24.3999 45.9965 27.0666C47.5965 28.3999 48.5299 30.2666 48.9299 32.2666Z" fill="#3A3B3E"/>
<path d="M56.2669 47.7333H52.9336C50.6669 47.7333 48.9336 46 48.9336 43.7333V40H60.2669V43.7333C60.2669 45.8667 58.5336 47.7333 56.2669 47.7333Z" fill="white"/>
<path d="M63.3318 41.5999H45.9984C39.8651 41.4666 39.8651 32.3999 45.9984 32.2666H63.3318C69.4651 32.3999 69.4651 41.3333 63.3318 41.5999ZM45.9984 34.9333C43.3318 34.9333 43.3318 38.9333 45.9984 38.9333H63.3318C65.9984 38.9333 65.9984 34.9333 63.3318 34.9333H45.9984Z" fill="#3A3B3E"/>
<defs>
<linearGradient id="paint0_linear_6918_8938" x1="39.7146" y1="33.5998" x2="69.0127" y2="1.05653" gradientUnits="userSpaceOnUse">
<stop stop-color="#52DA98"/>
<stop offset="1" stop-color="#F8FAB5"/>
</linearGradient>
</defs>
</svg>
