<svg width="80" height="81" viewBox="0 0 80 81" fill="none" xmlns="http://www.w3.org/2000/svg">
<g clip-path="url(#clip0_6918_8954)">
<path d="M77.5 23.6992H2.5C2.2928 23.6992 2.09409 23.7815 1.94757 23.928C1.80106 24.0746 1.71875 24.2733 1.71875 24.4805V63.2362C1.71983 64.1697 2.09109 65.0645 2.7511 65.7246C3.4111 66.3846 4.30596 66.7559 5.23938 66.757H74.7606C75.694 66.7559 76.5889 66.3846 77.2489 65.7246C77.9089 65.0645 78.2802 64.1697 78.2812 63.2362V24.4805C78.2812 24.2733 78.1989 24.0746 78.0524 23.928C77.9059 23.7815 77.7072 23.6992 77.5 23.6992ZM54.0413 37.4787C53.991 37.3208 53.8917 37.1829 53.7579 37.0851C53.6241 36.9873 53.4626 36.9345 53.2969 36.9345H51.0916C50.9672 36.9345 50.848 36.8851 50.7601 36.7972C50.6722 36.7093 50.6228 36.5901 50.6228 36.4658C50.6228 36.3415 50.6722 36.2222 50.7601 36.1343C50.848 36.0464 50.9672 35.997 51.0916 35.997H57.1127C57.1832 35.9971 57.2529 36.013 57.3164 36.0437C57.38 36.0744 57.4358 36.1191 57.4797 36.1744C57.5235 36.2296 57.5544 36.2941 57.5698 36.363C57.5853 36.4318 57.5851 36.5033 57.5691 36.572L56.2222 42.3556C56.2085 42.4157 56.183 42.4724 56.1473 42.5226C56.1115 42.5727 56.0662 42.6153 56.0139 42.6479C55.9616 42.6804 55.9034 42.7022 55.8426 42.7122C55.7818 42.7221 55.7196 42.7199 55.6597 42.7056C55.5387 42.6774 55.4339 42.6023 55.3682 42.4968C55.3025 42.3914 55.2814 42.2641 55.3095 42.1431L55.8877 39.6605C55.9236 39.5061 55.9118 39.3444 55.8537 39.1969C55.7956 39.0494 55.694 38.923 55.5624 38.8346C55.4307 38.7463 55.2754 38.7 55.1168 38.702C54.9583 38.704 54.8042 38.7542 54.6748 38.8459L41.0633 48.4947C40.9867 48.549 40.8955 48.579 40.8016 48.5809C40.7077 48.5827 40.6154 48.5564 40.5367 48.5052L33.4769 43.9164C33.325 43.8177 33.1435 43.7749 32.9635 43.7952C32.7835 43.8155 32.6162 43.8977 32.4902 44.0278L23.2236 53.5883C23.1812 53.6341 23.13 53.671 23.0731 53.6968C23.0162 53.7226 22.9547 53.7367 22.8922 53.7384C22.8298 53.7401 22.7676 53.7293 22.7094 53.7066C22.6512 53.6839 22.5981 53.6498 22.5533 53.6063C22.5084 53.5628 22.4727 53.5108 22.4483 53.4533C22.4238 53.3959 22.4111 53.3341 22.4109 53.2716C22.4106 53.2091 22.4229 53.1472 22.4469 53.0896C22.4709 53.0319 22.5063 52.9796 22.5508 52.9358L32.5334 42.6362C32.609 42.5581 32.7094 42.5087 32.8174 42.4965C32.9254 42.4844 33.0343 42.5102 33.1253 42.5697L40.3361 47.2572C40.4673 47.3425 40.6211 47.3864 40.7776 47.3833C40.9341 47.3801 41.0861 47.3301 41.2138 47.2395L53.7486 38.3539C53.884 38.258 53.9853 38.1215 54.0379 37.9642C54.0906 37.8068 54.0917 37.6368 54.0413 37.4787Z" fill="white"/>
<path d="M74.7606 13.7432H5.23938C4.30595 13.7442 3.41107 14.1155 2.75105 14.7756C2.09103 15.4356 1.71978 16.3305 1.71875 17.2639V21.9804C1.71875 22.1876 1.80106 22.3863 1.94757 22.5328C2.09409 22.6793 2.2928 22.7616 2.5 22.7616H77.5C77.7072 22.7616 77.9059 22.6793 78.0524 22.5328C78.1989 22.3863 78.2812 22.1876 78.2812 21.9804V17.2639C78.2802 16.3305 77.909 15.4356 77.2489 14.7756C76.5889 14.1155 75.694 13.7442 74.7606 13.7432ZM22.6753 18.3097C22.6753 18.434 22.6259 18.5533 22.538 18.6412C22.4501 18.7291 22.3309 18.7785 22.2066 18.7785H19.9806C19.8563 18.7785 19.7371 18.7291 19.6492 18.6412C19.5613 18.5533 19.5119 18.434 19.5119 18.3097C19.5119 18.1854 19.5613 18.0662 19.6492 17.9783C19.7371 17.8904 19.8563 17.841 19.9806 17.841H22.2066C22.3309 17.841 22.4501 17.8904 22.538 17.9783C22.6259 18.0662 22.6753 18.1854 22.6753 18.3097ZM16.0413 18.3097C16.0413 18.434 15.9919 18.5533 15.904 18.6412C15.816 18.7291 15.6968 18.7785 15.5725 18.7785H13.3466C13.2222 18.7785 13.103 18.7291 13.0151 18.6412C12.9272 18.5533 12.8778 18.434 12.8778 18.3097C12.8778 18.1854 12.9272 18.0662 13.0151 17.9783C13.103 17.8904 13.2222 17.841 13.3466 17.841H15.5725C15.6968 17.841 15.816 17.8904 15.904 17.9783C15.9919 18.0662 16.0413 18.1854 16.0413 18.3097ZM9.40719 18.3097C9.40719 18.434 9.3578 18.5533 9.26989 18.6412C9.18199 18.7291 9.06276 18.7785 8.93844 18.7785H6.7125C6.58818 18.7785 6.46895 18.7291 6.38104 18.6412C6.29314 18.5533 6.24375 18.434 6.24375 18.3097C6.24375 18.1854 6.29314 18.0662 6.38104 17.9783C6.46895 17.8904 6.58818 17.841 6.7125 17.841H8.93844C9.06276 17.841 9.18199 17.8904 9.26989 17.9783C9.3578 18.0662 9.40719 18.1854 9.40719 18.3097Z" fill="url(#paint0_linear_6918_8954)"/>
<path d="M8.93688 17.0596H6.71094C6.37942 17.0596 6.06147 17.1913 5.82705 17.4257C5.59263 17.6601 5.46094 17.978 5.46094 18.3096C5.46094 18.6411 5.59263 18.959 5.82705 19.1935C6.06147 19.4279 6.37942 19.5596 6.71094 19.5596H8.93688C9.2684 19.5596 9.58634 19.4279 9.82076 19.1935C10.0552 18.959 10.1869 18.6411 10.1869 18.3096C10.1869 17.978 10.0552 17.6601 9.82076 17.4257C9.58634 17.1913 9.2684 17.0596 8.93688 17.0596ZM15.5709 17.0596H13.345C13.0135 17.0596 12.6955 17.1913 12.4611 17.4257C12.2267 17.6601 12.095 17.978 12.095 18.3096C12.095 18.6411 12.2267 18.959 12.4611 19.1935C12.6955 19.4279 13.0135 19.5596 13.345 19.5596H15.5709C15.9025 19.5596 16.2204 19.4279 16.4548 19.1935C16.6892 18.959 16.8209 18.6411 16.8209 18.3096C16.8209 17.978 16.6892 17.6601 16.4548 17.4257C16.2204 17.1913 15.9025 17.0596 15.5709 17.0596ZM22.8856 54.5113C23.0531 54.5115 23.2189 54.478 23.3732 54.4127C23.5274 54.3474 23.6669 54.2517 23.7833 54.1313L33.0489 44.5708L40.1087 49.1596C40.3187 49.2961 40.5648 49.3663 40.8151 49.3613C41.0654 49.3563 41.3085 49.2762 41.5128 49.1314L55.1245 39.4827L54.5464 41.9654C54.5071 42.1259 54.5001 42.2927 54.5257 42.456C54.5513 42.6194 54.6091 42.776 54.6956 42.9168C54.7822 43.0577 54.8958 43.18 55.0299 43.2766C55.1641 43.3733 55.3161 43.4423 55.4771 43.4798C55.6381 43.5173 55.8049 43.5225 55.968 43.4951C56.131 43.4677 56.287 43.4082 56.4268 43.32C56.5667 43.2319 56.6877 43.1169 56.7829 42.9817C56.878 42.8465 56.9454 42.6938 56.9811 42.5324L58.3281 36.7491C58.3708 36.5657 58.3716 36.3751 58.3303 36.1914C58.289 36.0077 58.2068 35.8357 58.0897 35.6883C57.9727 35.5408 57.8238 35.4217 57.6543 35.3399C57.4847 35.258 57.2989 35.2155 57.1106 35.2155H51.09C50.7585 35.2155 50.4405 35.3472 50.2061 35.5816C49.9717 35.816 49.84 36.134 49.84 36.4655C49.84 36.797 49.9717 37.115 50.2061 37.3494C50.4405 37.5838 50.7585 37.7155 51.09 37.7155H53.2953L40.7603 46.601L33.5495 41.9135C33.3066 41.7557 33.0164 41.6872 32.7285 41.7197C32.4407 41.7522 32.1731 41.8836 31.9714 42.0916L21.9889 52.391C21.818 52.5673 21.7029 52.7901 21.6578 53.0314C21.6128 53.2728 21.6398 53.5221 21.7355 53.7482C21.8313 53.9743 21.9914 54.1672 22.1961 54.3028C22.4008 54.4384 22.6409 54.5108 22.8864 54.5108L22.8856 54.5113ZM22.205 17.0596H19.9791C19.6475 17.0596 19.3296 17.1913 19.0952 17.4257C18.8608 17.6601 18.7291 17.978 18.7291 18.3096C18.7291 18.6411 18.8608 18.959 19.0952 19.1935C19.3296 19.4279 19.6475 19.5596 19.9791 19.5596H22.205C22.5365 19.5596 22.8545 19.4279 23.0889 19.1935C23.3233 18.959 23.455 18.6411 23.455 18.3096C23.455 17.978 23.3233 17.6601 23.0889 17.4257C22.8545 17.1913 22.5365 17.0596 22.205 17.0596Z" fill="#3A3B3E"/>
<path d="M74.7606 12.0244H5.23938C3.85026 12.026 2.5185 12.5785 1.53626 13.5608C0.554021 14.543 0.00153016 15.8748 0 17.2639L0 63.2361C0.00153016 64.6252 0.554021 65.957 1.53626 66.9393C2.5185 67.9216 3.85026 68.4741 5.23938 68.4757H74.7606C76.1497 68.4741 77.4815 67.9216 78.4637 66.9393C79.446 65.957 79.9985 64.6252 80 63.2361V17.2639C79.9985 15.8748 79.446 14.543 78.4637 13.5608C77.4815 12.5785 76.1497 12.026 74.7606 12.0244ZM77.5 63.2361C77.4992 63.9624 77.2103 64.6587 76.6968 65.1723C76.1832 65.6859 75.4869 65.9748 74.7606 65.9757H5.23938C4.51309 65.9748 3.8168 65.6859 3.30325 65.1723C2.7897 64.6587 2.50083 63.9624 2.5 63.2361V24.4804H77.5V63.2361ZM77.5 21.9804H2.5V17.2639C2.50079 16.5376 2.78964 15.8413 3.3032 15.3277C3.81676 14.8141 4.51307 14.5252 5.23938 14.5244H74.7606C75.4869 14.5252 76.1832 14.8141 76.6968 15.3277C77.2104 15.8413 77.4992 16.5376 77.5 17.2639V21.9804Z" fill="#3A3B3E"/>
</g>
<defs>
<linearGradient id="paint0_linear_6918_8954" x1="1.71807" y1="22.7616" x2="3.34481" y2="6.32618" gradientUnits="userSpaceOnUse">
<stop stop-color="#52DA98"/>
<stop offset="1" stop-color="#F8FAB5"/>
</linearGradient>
<clipPath id="clip0_6918_8954">
<rect width="80" height="80" fill="white" transform="translate(0 0.25)"/>
</clipPath>
</defs>
</svg>
