<svg width="13" height="14" viewBox="0 0 13 14" fill="none" xmlns="http://www.w3.org/2000/svg">
<path d="M12.3908 7.17857C12.3908 7.47991 12.2875 7.73382 12.0811 7.94029L6.63184 13.3895C6.4142 13.596 6.1603 13.6992 5.87012 13.6992C5.58552 13.6992 5.3344 13.596 5.11677 13.3895L4.48898 12.7617C4.27693 12.5497 4.1709 12.2958 4.1709 12C4.1709 11.7042 4.27693 11.4503 4.48898 11.2383L6.94155 8.78571H1.04869C0.75851 8.78571 0.521345 8.68248 0.337193 8.476C0.158622 8.26395 0.0693359 8.01004 0.0693359 7.71429V6.64286C0.0693359 6.3471 0.158622 6.09598 0.337193 5.88951C0.521345 5.67745 0.75851 5.57143 1.04869 5.57143H6.94155L4.48898 3.11049C4.27693 2.9096 4.1709 2.65848 4.1709 2.35714C4.1709 2.0558 4.27693 1.80469 4.48898 1.60379L5.11677 0.976004C5.32882 0.76395 5.57994 0.657923 5.87012 0.657923C6.16588 0.657923 6.41978 0.76395 6.63184 0.976004L12.0811 6.42522C12.2875 6.62054 12.3908 6.87165 12.3908 7.17857Z" fill="white"/>
</svg>
