<svg width="88" height="62" viewBox="0 0 88 62" fill="none" xmlns="http://www.w3.org/2000/svg">
<g clip-path="url(#clip0_7669_75)">
<path fill-rule="evenodd" clip-rule="evenodd" d="M87.1212 13.5644C87.1212 13.5644 86.2615 7.55515 83.6228 4.90887C80.2765 1.43568 76.5256 1.41843 74.8055 1.21516C62.4912 0.333008 44.019 0.333008 44.019 0.333008H43.9808C43.9808 0.333008 25.5091 0.333008 13.1944 1.21516C11.4742 1.41843 7.72465 1.43568 4.37713 4.90887C1.73863 7.55515 0.880043 13.5644 0.880043 13.5644C0.880043 13.5644 0 20.6213 0 27.6781V34.2938C0 41.3505 0.880043 48.4073 0.880043 48.4073C0.880043 48.4073 1.73863 54.4166 4.37713 57.0629C7.72465 60.5362 12.1219 60.4263 14.0803 60.7903C21.1204 61.4593 44 61.6663 44 61.6663C44 61.6663 62.4912 61.6388 74.8055 60.7567C76.5256 60.5533 80.2765 60.5362 83.6228 57.0629C86.2615 54.4166 87.1212 48.4073 87.1212 48.4073C87.1212 48.4073 88 41.3505 88 34.2938V27.6781C88 20.6213 87.1212 13.5644 87.1212 13.5644Z" fill="#FB5858"/>
<path fill-rule="evenodd" clip-rule="evenodd" d="M34.9142 41.8096L34.9102 17.8096L58.9102 29.8514L34.9142 41.8096Z" fill="white"/>
</g>
<defs>
<clipPath id="clip0_7669_75">
<rect width="88" height="61.3333" fill="white" transform="translate(0 0.333008)"/>
</clipPath>
</defs>
</svg>
