<svg width="13" height="13" viewBox="0 0 13 13" fill="none" xmlns="http://www.w3.org/2000/svg">
<path d="M2.92132 4.37444V12.6696H0.15904V4.37444H2.92132ZM3.0971 1.81306C3.10268 2.22042 2.96038 2.56083 2.6702 2.83426C2.3856 3.1077 2.00893 3.24442 1.54018 3.24442H1.52344C1.06585 3.24442 0.697545 3.1077 0.418527 2.83426C0.139509 2.56083 0 2.22042 0 1.81306C0 1.40011 0.142299 1.05971 0.426897 0.791852C0.717076 0.518415 1.09375 0.381696 1.55692 0.381696C2.02009 0.381696 2.39118 0.518415 2.6702 0.791852C2.94922 1.05971 3.09152 1.40011 3.0971 1.81306ZM12.8571 7.91518V12.6696H10.1032V8.23326C10.1032 7.64732 9.98884 7.18973 9.76005 6.86049C9.53683 6.52567 9.18527 6.35826 8.70536 6.35826C8.3538 6.35826 8.05804 6.45591 7.81808 6.65123C7.58371 6.84096 7.40792 7.07812 7.29074 7.36272C7.22935 7.53013 7.19866 7.75614 7.19866 8.04074V12.6696H4.44475C4.45592 10.4431 4.4615 8.63783 4.4615 7.25391C4.4615 5.86998 4.45871 5.04408 4.45312 4.77623L4.44475 4.37444H7.19866V5.5798H7.18192C7.29353 5.40123 7.40792 5.24498 7.52511 5.11105C7.6423 4.97712 7.79855 4.83203 7.99386 4.67578C8.19476 4.51953 8.4375 4.39955 8.7221 4.31585C9.01228 4.22656 9.33315 4.18192 9.68471 4.18192C10.639 4.18192 11.4063 4.5 11.9866 5.13616C12.567 5.76674 12.8571 6.69308 12.8571 7.91518Z" fill="black"/>
</svg>
