<svg width="13" height="14" viewBox="0 0 13 14" fill="none" xmlns="http://www.w3.org/2000/svg">
<path d="M7.94364 8.15792C8.36217 7.7394 8.57143 7.23437 8.57143 6.64286C8.57143 6.05134 8.36217 5.54632 7.94364 5.12779C7.52511 4.70926 7.02009 4.5 6.42857 4.5C5.83705 4.5 5.33203 4.70926 4.9135 5.12779C4.49498 5.54632 4.28571 6.05134 4.28571 6.64286C4.28571 7.23437 4.49498 7.7394 4.9135 8.15792C5.33203 8.57645 5.83705 8.78571 6.42857 8.78571C7.02009 8.78571 7.52511 8.57645 7.94364 8.15792ZM8.76395 4.30748C9.40569 4.94922 9.72656 5.72768 9.72656 6.64286C9.72656 7.55804 9.40569 8.3365 8.76395 8.97824C8.12221 9.61998 7.34375 9.94085 6.42857 9.94085C5.51339 9.94085 4.73493 9.61998 4.09319 8.97824C3.45145 8.3365 3.13058 7.55804 3.13058 6.64286C3.13058 5.72768 3.45145 4.94922 4.09319 4.30748C4.73493 3.66574 5.51339 3.34487 6.42857 3.34487C7.34375 3.34487 8.12221 3.66574 8.76395 4.30748ZM10.4046 2.66685C10.5552 2.81752 10.6306 2.99888 10.6306 3.21094C10.6306 3.42299 10.5552 3.60435 10.4046 3.75502C10.2539 3.90569 10.0725 3.98103 9.86049 3.98103C9.64844 3.98103 9.46708 3.90569 9.31641 3.75502C9.16574 3.60435 9.0904 3.42299 9.0904 3.21094C9.0904 2.99888 9.16574 2.81752 9.31641 2.66685C9.46708 2.51618 9.64844 2.44085 9.86049 2.44085C10.0725 2.44085 10.2539 2.51618 10.4046 2.66685ZM7.06473 1.36942C6.67969 1.36942 6.46763 1.36942 6.42857 1.36942C6.38951 1.36942 6.17467 1.36942 5.78404 1.36942C5.399 1.36384 5.10603 1.36384 4.90513 1.36942C4.70424 1.36942 4.43359 1.37779 4.09319 1.39453C3.75837 1.40569 3.47098 1.43359 3.23103 1.47824C2.99665 1.5173 2.79855 1.56752 2.63672 1.62891C2.3577 1.74051 2.11217 1.90234 1.90011 2.1144C1.68806 2.32645 1.52623 2.57199 1.41462 2.851C1.35324 3.01283 1.30022 3.21373 1.25558 3.45368C1.21652 3.68806 1.18862 3.97545 1.17188 4.31585C1.16071 4.65067 1.15234 4.91853 1.14676 5.11942C1.14676 5.32031 1.14676 5.61607 1.14676 6.0067C1.15234 6.39174 1.15513 6.60379 1.15513 6.64286C1.15513 6.68192 1.15234 6.89676 1.14676 7.28739C1.14676 7.67243 1.14676 7.9654 1.14676 8.16629C1.15234 8.36719 1.16071 8.63783 1.17188 8.97824C1.18862 9.31306 1.21652 9.60045 1.25558 9.8404C1.30022 10.0748 1.35324 10.2729 1.41462 10.4347C1.52623 10.7137 1.68806 10.9593 1.90011 11.1713C2.11217 11.3834 2.3577 11.5452 2.63672 11.6568C2.79855 11.7182 2.99665 11.7712 3.23103 11.8158C3.47098 11.8549 3.75837 11.8828 4.09319 11.8996C4.43359 11.9107 4.70424 11.9191 4.90513 11.9247C5.10603 11.9247 5.399 11.9247 5.78404 11.9247C6.17467 11.9191 6.38951 11.9163 6.42857 11.9163C6.46763 11.9163 6.67969 11.9191 7.06473 11.9247C7.45536 11.9247 7.75112 11.9247 7.95201 11.9247C8.1529 11.9191 8.42076 11.9107 8.75558 11.8996C9.09598 11.8828 9.38337 11.8549 9.61775 11.8158C9.8577 11.7712 10.0586 11.7182 10.2204 11.6568C10.4994 11.5452 10.745 11.3834 10.957 11.1713C11.1691 10.9593 11.3309 10.7137 11.4425 10.4347C11.5039 10.2729 11.5541 10.0748 11.5932 9.8404C11.6378 9.60045 11.6657 9.31306 11.6769 8.97824C11.6936 8.63783 11.702 8.36719 11.702 8.16629C11.7076 7.9654 11.7076 7.67243 11.702 7.28739C11.702 6.89676 11.702 6.68192 11.702 6.64286C11.702 6.60379 11.702 6.39174 11.702 6.0067C11.7076 5.61607 11.7076 5.32031 11.702 5.11942C11.702 4.91853 11.6936 4.65067 11.6769 4.31585C11.6657 3.97545 11.6378 3.68806 11.5932 3.45368C11.5541 3.21373 11.5039 3.01283 11.4425 2.851C11.3309 2.57199 11.1691 2.32645 10.957 2.1144C10.745 1.90234 10.4994 1.74051 10.2204 1.62891C10.0586 1.56752 9.8577 1.5173 9.61775 1.47824C9.38337 1.43359 9.09598 1.40569 8.75558 1.39453C8.42076 1.37779 8.1529 1.36942 7.95201 1.36942C7.75112 1.36384 7.45536 1.36384 7.06473 1.36942ZM12.8153 3.9894C12.8432 4.48047 12.8571 5.36496 12.8571 6.64286C12.8571 7.92076 12.8432 8.80525 12.8153 9.29632C12.7595 10.457 12.4135 11.3555 11.7773 11.9916C11.1412 12.6278 10.2427 12.9738 9.08203 13.0296C8.59096 13.0575 7.70647 13.0714 6.42857 13.0714C5.15067 13.0714 4.26618 13.0575 3.77511 13.0296C2.6144 12.9738 1.71596 12.6278 1.0798 11.9916C0.443638 11.3555 0.0976563 10.457 0.0418527 9.29632C0.0139509 8.80525 0 7.92076 0 6.64286C0 5.36496 0.0139509 4.48047 0.0418527 3.9894C0.0976563 2.82868 0.443638 1.93025 1.0798 1.29408C1.71596 0.657923 2.6144 0.311941 3.77511 0.256138C4.26618 0.228236 5.15067 0.214285 6.42857 0.214285C7.70647 0.214285 8.59096 0.228236 9.08203 0.256138C10.2427 0.311941 11.1412 0.657923 11.7773 1.29408C12.4135 1.93025 12.7595 2.82868 12.8153 3.9894Z" fill="black"/>
</svg>
