<svg width="15" height="14" viewBox="0 0 15 14" fill="none" xmlns="http://www.w3.org/2000/svg">
<path d="M7.50156 3.40982C5.51517 3.40982 3.91294 5.01205 3.91294 6.99844C3.91294 8.98483 5.51517 10.5871 7.50156 10.5871C9.48795 10.5871 11.0902 8.98483 11.0902 6.99844C11.0902 5.01205 9.48795 3.40982 7.50156 3.40982ZM7.50156 9.33151C6.2179 9.33151 5.16849 8.28522 5.16849 6.99844C5.16849 5.71166 6.21478 4.66537 7.50156 4.66537C8.78834 4.66537 9.83463 5.71166 9.83463 6.99844C9.83463 8.28522 8.78522 9.33151 7.50156 9.33151ZM12.074 3.26302C12.074 3.72839 11.6992 4.10006 11.237 4.10006C10.7716 4.10006 10.3999 3.72526 10.3999 3.26302C10.3999 2.80078 10.7747 2.42599 11.237 2.42599C11.6992 2.42599 12.074 2.80078 12.074 3.26302ZM14.4508 4.11255C14.3977 2.9913 14.1416 1.9981 13.3202 1.17981C12.5019 0.361517 11.5087 0.10541 10.3875 0.0491913C9.23185 -0.0163971 5.76815 -0.0163971 4.61255 0.0491913C3.49442 0.102287 2.50123 0.358394 1.67981 1.17669C0.858394 1.99498 0.60541 2.98818 0.549191 4.10943C0.483603 5.26503 0.483603 8.72872 0.549191 9.88433C0.602287 11.0056 0.858394 11.9988 1.67981 12.8171C2.50123 13.6354 3.4913 13.8915 4.61255 13.9477C5.76815 14.0133 9.23185 14.0133 10.3875 13.9477C11.5087 13.8946 12.5019 13.6385 13.3202 12.8171C14.1385 11.9988 14.3946 11.0056 14.4508 9.88433C14.5164 8.72872 14.5164 5.26815 14.4508 4.11255ZM12.9579 11.1243C12.7143 11.7364 12.2427 12.208 11.6274 12.4548C10.706 12.8202 8.51974 12.7359 7.50156 12.7359C6.48338 12.7359 4.29398 12.8171 3.37574 12.4548C2.76358 12.2112 2.29197 11.7395 2.04523 11.1243C1.67981 10.2029 1.76414 8.01662 1.76414 6.99844C1.76414 5.98026 1.68293 3.79085 2.04523 2.87262C2.28885 2.26046 2.76046 1.78885 3.37574 1.54211C4.2971 1.17669 6.48338 1.26101 7.50156 1.26101C8.51974 1.26101 10.7091 1.17981 11.6274 1.54211C12.2395 1.78572 12.7112 2.25733 12.9579 2.87262C13.3233 3.79398 13.239 5.98026 13.239 6.99844C13.239 8.01662 13.3233 10.206 12.9579 11.1243Z" fill="#171717"/>
</svg>
