<svg width="21" height="20" viewBox="0 0 21 20" fill="none" xmlns="http://www.w3.org/2000/svg">
<path d="M18.5002 18.0005V12.1405C18.5002 9.26055 17.8802 7.06055 14.5202 7.06055C12.9002 7.06055 11.8202 7.94055 11.3802 8.78055H11.3402V7.32055H8.16016V18.0005H11.4802V12.7005C11.4802 11.3005 11.7402 9.96055 13.4602 9.96055C15.1602 9.96055 15.1802 11.5405 15.1802 12.7805V17.9805H18.5002V18.0005Z" fill="#A0A3AA"/>
<path d="M2.75781 7.32031H6.07781V18.0003H2.75781V7.32031Z" fill="#A0A3AA"/>
<path d="M4.42 2C3.36 2 2.5 2.86 2.5 3.92C2.5 4.98 3.36 5.86 4.42 5.86C5.48 5.86 6.34 4.98 6.34 3.92C6.34 2.86 5.48 2 4.42 2Z" fill="#A0A3AA"/>
</svg>
