<svg width="21" height="20" viewBox="0 0 21 20" fill="none" xmlns="http://www.w3.org/2000/svg">
<path d="M18.5 18.127V12.267C18.5 9.38695 17.88 7.18695 14.52 7.18695C12.9 7.18695 11.82 8.06695 11.38 8.90695H11.34V7.44695H8.16V18.127H11.48V12.827C11.48 11.427 11.74 10.087 13.46 10.087C15.16 10.087 15.18 11.667 15.18 12.907V18.107H18.5V18.127ZM2.76 7.44695H6.08V18.127H2.76V7.44695ZM4.42 2.12695C3.36 2.12695 2.5 2.98695 2.5 4.04695C2.5 5.10695 3.36 5.98695 4.42 5.98695C5.48 5.98695 6.34 5.10695 6.34 4.04695C6.34 2.98695 5.48 2.12695 4.42 2.12695Z" fill="#171717"/>
</svg>
