<svg width="21" height="20" viewBox="0 0 21 20" fill="none" xmlns="http://www.w3.org/2000/svg">
<g clip-path="url(#clip0_7336_3815)">
<path d="M13.4602 10.8301L11.7851 12.5108C11.1059 13.1924 9.9107 13.2071 9.21676 12.5108L7.54164 10.8301L1.52539 16.8659C1.74934 16.9694 1.99625 17.0312 2.25875 17.0312H18.7431C19.0056 17.0312 19.2525 16.9695 19.4763 16.8659L13.4602 10.8301Z" fill="white"/>
<path d="M18.7422 2.96875H2.25781C1.99531 2.96875 1.7484 3.03055 1.52453 3.1341L7.95332 9.58422C7.95375 9.58465 7.95426 9.58473 7.95469 9.58516C7.95495 9.58544 7.95513 9.58579 7.9552 9.58617L10.0455 11.6834C10.2676 11.9055 10.7325 11.9055 10.9545 11.6834L13.0445 9.58652C13.0445 9.58652 13.045 9.58559 13.0454 9.58516C13.0454 9.58516 13.0463 9.58465 13.0468 9.58422L19.4754 3.13406C19.2515 3.03047 19.0047 2.96875 18.7422 2.96875ZM0.686953 3.95359C0.571094 4.18789 0.5 4.44797 0.5 4.72656V15.2734C0.5 15.552 0.571016 15.8121 0.686914 16.0464L6.71359 10.0002L0.686953 3.95359ZM20.313 3.95352L14.2864 10.0002L20.313 16.0465C20.4289 15.8122 20.5 15.5521 20.5 15.2734V4.72656C20.5 4.44789 20.4289 4.18781 20.313 3.95352Z" fill="white"/>
</g>
<defs>
<clipPath id="clip0_7336_3815">
<rect width="20" height="20" fill="white" transform="translate(0.5)"/>
</clipPath>
</defs>
</svg>
