<svg width="16" height="17" viewBox="0 0 16 17" fill="none" xmlns="http://www.w3.org/2000/svg">
<path d="M11.2881 2.49219H2.45191C1.59757 2.49219 0.90625 3.18653 0.90625 4.04087V8.87407C0.90625 9.30275 1.07833 9.68917 1.35908 9.96992C1.63682 10.2507 2.02323 10.4228 2.45191 10.4228C2.55455 10.4228 2.63304 10.5133 2.61795 10.619L2.35833 12.2854C2.33116 12.4484 2.52436 12.545 2.63908 12.4303L4.64059 10.4711C4.6738 10.4409 4.71304 10.4228 4.75833 10.4228H11.2881C12.1425 10.4228 12.8368 9.73143 12.8368 8.87407V4.04087C12.8368 3.18653 12.1425 2.49219 11.2881 2.49219ZM4.44436 6.32615L4.01568 6.74275C3.97946 6.77898 3.96134 6.83332 3.9704 6.88464L4.07304 7.47332C4.09417 7.60011 3.95833 7.69973 3.84361 7.63936L3.31229 7.36162C3.28999 7.34973 3.26511 7.34351 3.23983 7.34351C3.21456 7.34351 3.18968 7.34973 3.16738 7.36162L2.63304 7.63936C2.51833 7.69973 2.38248 7.60313 2.40663 7.47332L2.50625 6.88464C2.51044 6.85956 2.50852 6.83383 2.50063 6.80966C2.49275 6.78548 2.47914 6.76356 2.46097 6.74577L2.03229 6.32615C2.01117 6.30539 1.99624 6.27916 1.98917 6.2504C1.9821 6.22164 1.98316 6.19148 1.99225 6.16329C2.00133 6.13511 2.01807 6.11 2.0406 6.09078C2.06314 6.07156 2.09057 6.05898 2.11983 6.05445L2.71153 5.96992C2.76285 5.96389 2.80814 5.93068 2.83229 5.8854L3.09795 5.34502C3.15531 5.22728 3.32436 5.22728 3.38172 5.34502L3.64436 5.8854C3.66851 5.93068 3.7138 5.96389 3.76512 5.96992L4.35682 6.05445C4.48663 6.07558 4.53795 6.23256 4.44436 6.32615ZM8.07606 6.32615L7.64738 6.74275C7.61116 6.77898 7.59304 6.83332 7.6021 6.88464L7.70474 7.47332C7.72587 7.60011 7.59304 7.69973 7.47531 7.63936L6.94399 7.36162C6.92169 7.34973 6.8968 7.34351 6.87153 7.34351C6.84626 7.34351 6.82138 7.34973 6.79908 7.36162L6.26776 7.63936C6.15002 7.69973 6.01719 7.60313 6.03833 7.47332L6.13795 6.88464C6.14214 6.85956 6.14021 6.83383 6.13233 6.80966C6.12445 6.78548 6.11084 6.76356 6.09267 6.74577L5.66399 6.32615C5.64287 6.30539 5.62794 6.27916 5.62087 6.2504C5.6138 6.22164 5.61486 6.19148 5.62395 6.16329C5.63303 6.13511 5.64977 6.11 5.6723 6.09078C5.69483 6.07156 5.72227 6.05898 5.75153 6.05445L6.34323 5.96992C6.39455 5.96389 6.43984 5.93068 6.46399 5.8854L6.72965 5.34502C6.787 5.22728 6.95606 5.22728 7.01342 5.34502L7.27606 5.8854C7.30021 5.93068 7.3455 5.96389 7.39682 5.96992L7.98851 6.05445C8.11833 6.07558 8.16965 6.23256 8.07606 6.32615ZM11.7078 6.32615L11.2791 6.74275C11.2429 6.77898 11.2278 6.83332 11.2368 6.88464L11.3364 7.47332C11.3606 7.60011 11.2247 7.69973 11.107 7.63936L10.5787 7.36162C10.5559 7.34972 10.5305 7.3435 10.5047 7.3435C10.479 7.3435 10.4536 7.34972 10.4308 7.36162L9.89946 7.63936C9.78474 7.69973 9.64889 7.60313 9.67002 7.47332L9.76965 6.88464C9.77384 6.85956 9.77191 6.83383 9.76403 6.80966C9.75614 6.78548 9.74254 6.76356 9.72436 6.74577L9.29568 6.32615C9.27457 6.30539 9.25964 6.27916 9.25257 6.2504C9.2455 6.22164 9.24656 6.19148 9.25564 6.16329C9.26473 6.13511 9.28147 6.11 9.304 6.09078C9.32653 6.07156 9.35396 6.05898 9.38323 6.05445L9.97795 5.96992C10.0293 5.96389 10.0715 5.93068 10.0957 5.8854L10.3613 5.34502C10.4217 5.22728 10.5878 5.22728 10.6451 5.34502L10.9108 5.8854C10.9217 5.90823 10.9383 5.92794 10.9588 5.94272C10.9794 5.95749 11.0034 5.96684 11.0285 5.96992L11.6202 6.05445C11.75 6.07558 11.8013 6.23256 11.7078 6.32615Z" fill="#171717"/>
<path d="M15.0956 6.06626V10.9025C15.0956 11.3312 14.9205 11.7176 14.6428 11.9983C14.362 12.2761 13.9726 12.4481 13.5469 12.4481C13.4443 12.4481 13.3658 12.5417 13.3839 12.6444L13.6405 14.3108C13.6677 14.4738 13.4745 14.5704 13.3598 14.4587L11.3583 12.4964C11.3259 12.4671 11.2842 12.45 11.2405 12.4481H4.7107C4.36655 12.4481 4.04957 12.3364 3.79297 12.1463L4.93712 11.0263H11.2888C12.4752 11.0263 13.4413 10.0602 13.4413 8.8738V4.51758H13.5469C14.4013 4.51758 15.0956 5.2089 15.0956 6.06626Z" fill="#171717"/>
</svg>
