<svg width="16" height="15" viewBox="0 0 16 15" fill="none" xmlns="http://www.w3.org/2000/svg">
<path d="M14.5938 2.34375H11.7751L11.257 0.789188C11.226 0.695859 11.1663 0.614678 11.0865 0.55716C11.0067 0.499643 10.9109 0.46871 10.8125 0.46875H5.1875C5.08914 0.46871 4.99327 0.499643 4.91348 0.55716C4.8337 0.614678 4.77405 0.695859 4.743 0.789188L4.22494 2.34375H1.40625C0.629594 2.34375 0 2.97334 0 3.75V5.51444C0 5.692 0.100313 5.85428 0.259156 5.93369L5.83375 8.70522C6.07269 8.26881 6.53081 7.96875 7.0625 7.96875H8.9375C9.46919 7.96875 9.92731 8.26881 10.1663 8.70525L15.7409 5.93337C15.8188 5.89444 15.8842 5.8346 15.93 5.76055C15.9758 5.6865 16 5.60117 16 5.51412V3.75C16 2.97334 15.3704 2.34375 14.5938 2.34375ZM5.21284 2.34375L5.52531 1.40625H10.4747L10.7871 2.34375H5.21284ZM8.9375 8.90625H7.0625C6.80387 8.90625 6.59375 9.11637 6.59375 9.375C6.59375 9.63363 6.80387 9.84375 7.0625 9.84375H8.9375C9.19613 9.84375 9.40625 9.63363 9.40625 9.375C9.40625 9.11637 9.19613 8.90625 8.9375 8.90625Z" fill="#171717"/>
<path d="M10.3074 9.68316C10.1663 10.3106 9.60688 10.7815 8.9375 10.7815H7.0625C6.39313 10.7815 5.83369 10.3107 5.69259 9.68326L0.46875 7.0871V13.1253C0.46875 13.9019 1.09834 14.5315 1.875 14.5315H14.125C14.9017 14.5315 15.5312 13.9019 15.5312 13.1253V7.08691L10.3074 9.68316Z" fill="#171717"/>
</svg>
