<svg width="16" height="17" viewBox="0 0 16 17" fill="none" xmlns="http://www.w3.org/2000/svg">
<g clip-path="url(#clip0_6963_5723)">
<path d="M2.33563 10.7524C2.29147 10.8405 2.27615 10.9402 2.29184 11.0374C2.30753 11.1347 2.35343 11.2246 2.42303 11.2943L2.53766 11.4089C2.86885 11.0164 3.25485 10.5905 3.72297 10.1225C3.75603 10.0894 3.7901 10.0735 3.82328 10.0429L3.08588 9.30537C2.65716 10.0808 2.40716 10.6106 2.33563 10.7524ZM6.37457 12.7741C5.90535 13.2434 5.4805 13.6301 5.09028 13.9615L5.24553 14.1168C5.31571 14.187 5.40639 14.2331 5.50449 14.2485C5.60258 14.2639 5.70302 14.2477 5.79132 14.2022C6.03413 14.0771 6.41594 13.8974 7.2265 13.446L6.45432 12.6738C6.42378 12.7071 6.40775 12.7411 6.37457 12.7741ZM6.12469 10.373C5.78594 10.0343 4.83332 10.338 4.38582 10.7854C2.88872 12.2824 2.2126 13.3438 1.909 13.9706C1.86654 14.0582 1.85243 14.1568 1.86861 14.2528C1.8848 14.3488 1.93048 14.4373 1.99932 14.5062C2.06825 14.5751 2.15696 14.6208 2.25309 14.637C2.34922 14.6532 2.44801 14.639 2.53572 14.5965C3.14838 14.299 4.19685 13.6261 5.71172 12.1113C6.20378 11.619 6.4466 10.695 6.12507 10.3734L6.12469 10.373ZM1.46307 6.7409L0.137284 8.06677C0.0643206 8.13973 0.0174728 8.23472 0.00400819 8.33702C-0.00945641 8.43932 0.0112149 8.54321 0.0628153 8.63256C0.16644 8.81396 0.383472 8.90637 0.590003 8.85106C1.30657 8.65893 1.93707 8.57774 2.36163 8.68665C2.96563 7.61277 3.61469 6.62427 4.30207 5.72634C3.90447 5.47143 2.59063 5.6134 1.46307 6.74096V6.7409ZM7.93416 16.4496C8.02216 16.4941 8.12196 16.5096 8.21931 16.494C8.31667 16.4784 8.40659 16.4324 8.47625 16.3626L9.80219 15.0368C10.8287 14.0101 11.0093 12.6854 10.7764 12.2653C9.77497 13.0201 8.76044 13.6574 7.81391 14.191C7.87922 14.5598 7.83578 14.9176 7.68135 15.9625C7.66678 16.06 7.68338 16.1596 7.72878 16.2471C7.77418 16.3346 7.84606 16.4054 7.93416 16.4496ZM9.30619 5.20212C8.758 5.75046 8.758 6.64243 9.30619 7.19074C9.85456 7.73909 10.7467 7.73909 11.295 7.19074C11.8433 6.6424 11.8433 5.75043 11.295 5.20212C10.7466 4.6538 9.85456 4.65377 9.30622 5.20212H9.30619ZM15.9723 0.957243C15.9555 0.72543 15.7709 0.542212 15.5398 0.524868C14.3886 0.43818 13.2419 0.579805 12.1178 0.923555C12.2024 1.69574 12.6019 2.53146 13.2838 3.21334C13.9738 3.90327 14.8322 4.30259 15.6182 4.37727C15.921 3.31637 16.0645 2.18015 15.9723 0.957243Z" fill="#171717"/>
<path d="M12.6221 3.87647C11.8421 3.09644 11.3657 2.16091 11.2129 1.25C8.39806 2.40444 5.7035 4.92541 3.57422 8.46691L4.63206 9.52478C5.35487 9.23134 6.23228 9.15381 6.78881 9.71022C7.34606 10.2676 7.26709 11.1447 6.97375 11.8665L8.06641 12.9591C10.7913 11.3169 13.9636 8.72962 15.3126 5.28734C14.3795 5.14637 13.4148 4.66922 12.6221 3.87647ZM11.959 7.85388C11.0453 8.76759 9.55834 8.76759 8.64453 7.85388C7.73072 6.94006 7.73072 5.453 8.64453 4.53931C9.55834 3.62562 11.0453 3.62562 11.959 4.53931C12.8728 5.45312 12.8728 6.94006 11.959 7.85388Z" fill="#171717"/>
</g>
<defs>
<clipPath id="clip0_6963_5723">
<rect width="16" height="16" fill="white" transform="translate(0 0.5)"/>
</clipPath>
</defs>
</svg>
