<svg width="16" height="17" viewBox="0 0 16 17" fill="none" xmlns="http://www.w3.org/2000/svg">
<path d="M13.0365 11.1699L11.4168 10.0381C11.2822 9.9441 11.1304 9.87754 10.97 9.84222C10.8097 9.80689 10.6439 9.80351 10.4823 9.83225C10.3206 9.86099 10.1662 9.9213 10.0279 10.0097C9.88956 10.0981 9.77 10.213 9.67604 10.3476L9.30004 10.8866C8.67004 10.4641 7.96679 9.8741 7.29654 9.2036C6.62654 8.5336 6.03654 7.83035 5.61404 7.20035L6.15254 6.82435C6.28768 6.73086 6.40289 6.61144 6.49147 6.47303C6.58005 6.33461 6.64024 6.17998 6.66854 6.0181C6.6975 5.85638 6.69416 5.69052 6.65872 5.53009C6.62328 5.36966 6.55643 5.21783 6.46204 5.08335L5.33079 3.46385C5.09404 3.12535 4.71204 2.92285 4.30954 2.92285C4.17063 2.9228 4.03282 2.94743 3.90254 2.9956C3.75526 3.04968 3.61407 3.11906 3.48129 3.2026L3.25754 3.3601C3.20216 3.4037 3.14956 3.45071 3.10004 3.50085C2.82704 3.77335 2.63354 4.11885 2.52429 4.52685C2.05804 6.27435 3.21279 8.9171 5.39804 11.1021C7.23304 12.9371 9.43729 14.0771 11.1508 14.0771C11.4445 14.0771 11.721 14.0431 11.9733 13.9756C12.3815 13.8666 12.7268 13.6731 12.9995 13.4001C13.0493 13.3504 13.0965 13.2984 13.1473 13.2326L13.3048 13.0079C13.385 12.8783 13.4518 12.7409 13.5043 12.5979C13.695 12.0829 13.5025 11.4954 13.0365 11.1696V11.1699Z" fill="#171717"/>
</svg>
