<svg width="16" height="15" viewBox="0 0 16 15" fill="none" xmlns="http://www.w3.org/2000/svg">
<path d="M5.345 0H2.155C1.24097 0 0.5 0.740969 0.5 1.655V4.845C0.5 5.75903 1.24097 6.5 2.155 6.5H5.345C6.25903 6.5 7 5.75903 7 4.845V1.655C7 0.740969 6.25903 0 5.345 0Z" fill="#171717"/>
<path d="M13.845 0H10.655C9.74097 0 9 0.740969 9 1.655V4.845C9 5.75903 9.74097 6.5 10.655 6.5H13.845C14.759 6.5 15.5 5.75903 15.5 4.845V1.655C15.5 0.740969 14.759 0 13.845 0Z" fill="#171717"/>
<path d="M5.345 8.5H2.155C1.24097 8.5 0.5 9.24097 0.5 10.155V13.345C0.5 14.259 1.24097 15 2.155 15H5.345C6.25903 15 7 14.259 7 13.345V10.155C7 9.24097 6.25903 8.5 5.345 8.5Z" fill="#171717"/>
<path d="M12.25 15C14.0449 15 15.5 13.5449 15.5 11.75C15.5 9.95507 14.0449 8.5 12.25 8.5C10.4551 8.5 9 9.95507 9 11.75C9 13.5449 10.4551 15 12.25 15Z" fill="#171717"/>
</svg>
