<svg width="16" height="17" viewBox="0 0 16 17" fill="none" xmlns="http://www.w3.org/2000/svg">
<g clip-path="url(#clip0_6963_5700)">
<path d="M7.88598 8.20725C8.94479 8.20725 9.86166 7.82747 10.6108 7.07819C11.36 6.32907 11.7397 5.41245 11.7397 4.35352C11.7397 3.2949 11.36 2.37818 10.6107 1.62878C9.86141 0.879748 8.94466 0.5 7.88598 0.5C6.82701 0.5 5.91036 0.879749 5.16124 1.6289C4.41212 2.37806 4.03221 3.2948 4.03221 4.35352C4.03221 5.41245 4.41208 6.3292 5.16136 7.07835C5.91064 7.82738 6.82739 8.20725 7.88598 8.20725ZM14.629 12.8032C14.6074 12.4914 14.5637 12.1513 14.4993 11.7922C14.4344 11.4304 14.3508 11.0883 14.2507 10.7757C14.1473 10.4526 14.0067 10.1335 13.8329 9.82771C13.6524 9.51034 13.4405 9.23397 13.2027 9.00656C12.9541 8.76865 12.6496 8.57737 12.2976 8.43781C11.9467 8.29906 11.5579 8.22875 11.1421 8.22875C10.9787 8.22875 10.8208 8.29575 10.5157 8.49437C10.2989 8.63558 10.0814 8.77579 9.86325 8.915C9.65366 9.04856 9.36972 9.17368 9.019 9.28697C8.67685 9.39768 8.32944 9.45384 7.98654 9.45384C7.64367 9.45384 7.29635 9.39768 6.95382 9.28697C6.60351 9.17378 6.31958 9.04869 6.1102 8.91512C5.86739 8.75997 5.6477 8.61837 5.45714 8.49422C5.15246 8.29563 4.99436 8.22859 4.83105 8.22859C4.41502 8.22859 4.02637 8.29903 3.67565 8.43797C3.32384 8.57725 3.01928 8.76853 2.77037 9.00669C2.53272 9.23422 2.32069 9.51043 2.1405 9.82771C1.96681 10.1335 1.82619 10.4525 1.72266 10.7758C1.62266 11.0885 1.53906 11.4304 1.47413 11.7922C1.40978 12.1508 1.3661 12.491 1.34447 12.8035C1.32296 13.118 1.3123 13.4331 1.3125 13.7484C1.3125 14.5836 1.578 15.2597 2.10156 15.7583C2.61865 16.2504 3.30284 16.5001 4.13487 16.5001H11.839C12.671 16.5001 13.3549 16.2506 13.8721 15.7584C14.3958 15.2601 14.6613 14.5838 14.6613 13.7482C14.6612 13.4259 14.6504 13.1079 14.629 12.8032Z" fill="#171717"/>
</g>
<defs>
<clipPath id="clip0_6963_5700">
<rect width="16" height="16" fill="white" transform="translate(0 0.5)"/>
</clipPath>
</defs>
</svg>
