<svg width="9" height="13" viewBox="0 0 9 13" fill="none" xmlns="http://www.w3.org/2000/svg">
<path d="M1.99407 0.575608C1.68209 0.302796 1.20833 0.334718 0.935584 0.646484C0.663123 0.95846 0.694975 1.43223 1.00674 1.70497L6.36145 6.3901L1.00646 11.0755C0.694413 11.3482 0.662842 11.822 0.935302 12.1337C1.20804 12.4458 1.68181 12.4776 1.99386 12.2049L7.99376 6.95478C8.07427 6.88436 8.13879 6.79754 8.183 6.70014C8.22721 6.60275 8.25008 6.49702 8.25008 6.39006C8.25008 6.2831 8.22721 6.17738 8.183 6.07998C8.13879 5.98258 8.07427 5.89576 7.99376 5.82535L1.99407 0.575608Z" fill="#A0A3AA"/>
</svg>
