<svg width="21" height="20" viewBox="0 0 21 20" fill="none" xmlns="http://www.w3.org/2000/svg">
<g clip-path="url(#clip0_7336_3804)">
<path d="M10.6746 0.25C6.56325 0.25 2.5 2.99089 2.5 7.42681C2.5 10.2478 4.08683 11.8507 5.04855 11.8507C5.44526 11.8507 5.67366 10.7447 5.67366 10.4322C5.67366 10.0595 4.72397 9.26609 4.72397 7.71532C4.72397 4.49357 7.17634 2.2095 10.35 2.2095C13.0789 2.2095 15.0985 3.76026 15.0985 6.60935C15.0985 8.73715 14.245 12.7283 11.48 12.7283C10.4822 12.7283 9.62872 12.007 9.62872 10.9731C9.62872 9.45843 10.6866 7.99182 10.6866 6.42903C10.6866 3.77629 6.92389 4.25715 6.92389 7.46287C6.92389 8.13607 7.00804 8.8814 7.30858 9.4945C6.75559 11.8747 5.62558 15.4211 5.62558 17.8734C5.62558 18.6308 5.73377 19.3761 5.8059 20.1335C5.94214 20.2858 5.87402 20.2697 6.08239 20.1936C8.102 17.4287 8.02987 16.8877 8.9435 13.2692C9.43638 14.2069 10.7107 14.7118 11.7205 14.7118C15.976 14.7118 17.8875 10.5644 17.8875 6.82574C17.8875 2.84663 14.4493 0.25 10.6746 0.25Z" fill="white"/>
</g>
<defs>
<clipPath id="clip0_7336_3804">
<rect width="20" height="20" fill="white" transform="translate(0.5)"/>
</clipPath>
</defs>
</svg>
