<svg width="20" height="20" viewBox="0 0 20 20" fill="none" xmlns="http://www.w3.org/2000/svg">
<g clip-path="url(#clip0_6910_4689)">
<path d="M18.6593 4.98042C17.7651 3.44839 16.5521 2.23538 15.02 1.34117C13.488 0.446994 11.8148 0 10.0004 0C8.1861 0 6.51286 0.446994 4.98083 1.34117C3.44857 2.23525 2.23556 3.44826 1.34139 4.98042C0.446994 6.51268 0 8.18578 0 10.0001C0 12.0228 0.551161 13.859 1.65362 15.5079C2.75603 17.1576 4.20136 18.3772 5.98962 19.1671C5.95486 18.2383 6.01132 17.4701 6.15877 16.8625L7.44795 11.4194C7.23086 10.9939 7.12236 10.4648 7.12236 9.83082C7.12236 9.09313 7.30884 8.47679 7.68218 7.98187C8.05552 7.48703 8.51118 7.23966 9.04944 7.23966C9.48334 7.23966 9.8175 7.38286 10.052 7.66928C10.2865 7.95583 10.4034 8.31603 10.4034 8.75016C10.4034 9.01906 10.3532 9.34688 10.2534 9.73318C10.1536 10.1195 10.0235 10.5666 9.86288 11.0744C9.7023 11.5821 9.58719 11.9882 9.51782 12.2918C9.39637 12.8212 9.49611 13.2747 9.81732 13.6526C10.1385 14.0301 10.564 14.2192 11.0935 14.2192C12.0223 14.2192 12.784 13.7027 13.3788 12.6698C13.9734 11.6366 14.2706 10.3822 14.2706 8.90659C14.2706 7.76925 13.9038 6.8447 13.1701 6.1331C12.4365 5.42122 11.4144 5.06512 10.1036 5.06512C8.63678 5.06512 7.44959 5.5361 6.54246 6.47793C5.63529 7.4199 5.18173 8.5463 5.18173 9.857C5.18173 10.6383 5.40311 11.2938 5.84577 11.8232C5.99331 11.9968 6.04111 12.1834 5.98898 12.3832C5.9716 12.4353 5.93694 12.5655 5.88481 12.7737C5.83291 12.9819 5.79802 13.1168 5.78078 13.1774C5.71141 13.4552 5.54636 13.542 5.28594 13.4377C4.61762 13.1602 4.10969 12.6782 3.76258 11.9925C3.41533 11.3067 3.24166 10.5122 3.24166 9.60967C3.24166 9.02805 3.33501 8.44647 3.52168 7.86493C3.70817 7.28317 3.9991 6.7212 4.39396 6.17861C4.78906 5.63589 5.26214 5.15624 5.81339 4.73976C6.36441 4.32313 7.03507 3.98897 7.82502 3.73722C8.61498 3.48547 9.4656 3.3596 10.3771 3.3596C11.61 3.3596 12.7166 3.63301 13.6973 4.17988C14.6784 4.7268 15.427 5.43417 15.9436 6.3023C16.4602 7.17047 16.7183 8.09935 16.7183 9.08893C16.7183 10.391 16.4926 11.5628 16.0414 12.6046C15.5901 13.6462 14.952 14.4644 14.1271 15.0588C13.3024 15.6537 12.365 15.951 11.3143 15.951C10.785 15.951 10.2902 15.8272 9.82991 15.58C9.36996 15.3324 9.05304 15.0396 8.8795 14.701C8.48883 16.2372 8.25441 17.1533 8.17624 17.4483C8.01133 18.0644 7.67283 18.7764 7.16058 19.5836C8.08945 19.8614 9.03557 20 9.99916 20C11.8134 20 13.4867 19.553 15.0188 18.6587C16.5509 17.7647 17.7639 16.5517 18.6579 15.0197C19.5521 13.4873 19.9991 11.8141 19.9991 9.99993C19.9995 8.18578 19.5532 6.51245 18.6593 4.98042Z" fill="white"/>
</g>
<defs>
<clipPath id="clip0_6910_4689">
<rect width="20" height="20" fill="white"/>
</clipPath>
</defs>
</svg>
