<svg width="21" height="21" viewBox="0 0 21 21" fill="none" xmlns="http://www.w3.org/2000/svg">
<path d="M19.1593 5.73042C18.2651 4.19839 17.0521 2.98538 15.52 2.09117C13.988 1.19699 12.3148 0.75 10.5004 0.75C8.6861 0.75 7.01287 1.19699 5.48083 2.09117C3.94858 2.98525 2.73557 4.19826 1.84139 5.73042C0.946994 7.26268 0.5 8.93578 0.5 10.7501C0.5 12.7728 1.05116 14.609 2.15362 16.2579C3.25603 17.9076 4.70137 19.1272 6.48962 19.9171C6.45486 18.9883 6.51133 18.2201 6.65877 17.6125L7.94795 12.1694C7.73086 11.7439 7.62236 11.2148 7.62236 10.5808C7.62236 9.84313 7.80885 9.22679 8.18218 8.73187C8.55552 8.23703 9.01118 7.98966 9.54944 7.98966C9.98334 7.98966 10.3175 8.13286 10.552 8.41928C10.7865 8.70583 10.9034 9.06603 10.9034 9.50016C10.9034 9.76906 10.8533 10.0969 10.7534 10.4832C10.6536 10.8695 10.5235 11.3166 10.3629 11.8244C10.2023 12.3321 10.0872 12.7382 10.0178 13.0418C9.89637 13.5712 9.99611 14.0247 10.3173 14.4026C10.6385 14.7801 11.064 14.9692 11.5935 14.9692C12.5223 14.9692 13.284 14.4527 13.8788 13.4198C14.4734 12.3866 14.7706 11.1322 14.7706 9.65659C14.7706 8.51925 14.4038 7.5947 13.6701 6.8831C12.9365 6.17122 11.9144 5.81512 10.6036 5.81512C9.13679 5.81512 7.94959 6.2861 7.04246 7.22793C6.1353 8.1699 5.68173 9.2963 5.68173 10.607C5.68173 11.3883 5.90311 12.0438 6.34577 12.5732C6.49331 12.7468 6.54111 12.9334 6.48898 13.1332C6.4716 13.1853 6.43694 13.3155 6.38481 13.5237C6.33291 13.7319 6.29802 13.8668 6.28078 13.9274C6.21141 14.2052 6.04636 14.292 5.78595 14.1877C5.11762 13.9102 4.60969 13.4282 4.26258 12.7425C3.91533 12.0567 3.74166 11.2622 3.74166 10.3597C3.74166 9.77805 3.83501 9.19647 4.02168 8.61493C4.20817 8.03317 4.4991 7.4712 4.89396 6.92861C5.28906 6.38589 5.76214 5.90624 6.31339 5.48976C6.86441 5.07313 7.53507 4.73897 8.32503 4.48722C9.11498 4.23547 9.9656 4.1096 10.8771 4.1096C12.11 4.1096 13.2166 4.38301 14.1973 4.92988C15.1784 5.4768 15.927 6.18417 16.4436 7.0523C16.9602 7.92047 17.2183 8.84935 17.2183 9.83893C17.2183 11.141 16.9926 12.3128 16.5414 13.3546C16.0901 14.3962 15.452 15.2144 14.6271 15.8088C13.8024 16.4037 12.865 16.701 11.8143 16.701C11.285 16.701 10.7902 16.5772 10.3299 16.33C9.86996 16.0824 9.55304 15.7896 9.37951 15.451C8.98884 16.9872 8.75442 17.9033 8.67625 18.1983C8.51133 18.8144 8.17284 19.5264 7.66058 20.3336C8.58946 20.6114 9.53557 20.75 10.4992 20.75C12.3135 20.75 13.9867 20.303 15.5188 19.4087C17.0509 18.5147 18.2639 17.3017 19.1579 15.7697C20.0521 14.2373 20.4991 12.5641 20.4991 10.7499C20.4995 8.93578 20.0532 7.26245 19.1593 5.73042Z" fill="#A0A3AA"/>
</svg>
