<svg width="20" height="21" viewBox="0 0 20 21" fill="none" xmlns="http://www.w3.org/2000/svg">
<g clip-path="url(#clip0_6911_6455)">
<path d="M18.6593 5.48042C17.7651 3.94839 16.5521 2.73538 15.02 1.84117C13.488 0.946994 11.8148 0.5 10.0004 0.5C8.1861 0.5 6.51286 0.946994 4.98083 1.84117C3.44857 2.73525 2.23556 3.94826 1.34139 5.48042C0.446994 7.01268 0 8.68578 0 10.5001C0 12.5228 0.551161 14.359 1.65362 16.0079C2.75603 17.6576 4.20136 18.8772 5.98962 19.6671C5.95486 18.7383 6.01132 17.9701 6.15877 17.3625L7.44795 11.9194C7.23086 11.4939 7.12236 10.9648 7.12236 10.3308C7.12236 9.59313 7.30884 8.97679 7.68218 8.48187C8.05552 7.98703 8.51118 7.73966 9.04944 7.73966C9.48334 7.73966 9.8175 7.88286 10.052 8.16928C10.2865 8.45583 10.4034 8.81603 10.4034 9.25016C10.4034 9.51906 10.3532 9.84688 10.2534 10.2332C10.1536 10.6195 10.0235 11.0666 9.86288 11.5744C9.7023 12.0821 9.58719 12.4882 9.51782 12.7918C9.39637 13.3212 9.49611 13.7747 9.81732 14.1526C10.1385 14.5301 10.564 14.7192 11.0935 14.7192C12.0223 14.7192 12.784 14.2027 13.3788 13.1698C13.9734 12.1366 14.2706 10.8822 14.2706 9.40659C14.2706 8.26925 13.9038 7.3447 13.1701 6.6331C12.4365 5.92122 11.4144 5.56512 10.1036 5.56512C8.63678 5.56512 7.44959 6.0361 6.54246 6.97793C5.63529 7.9199 5.18173 9.0463 5.18173 10.357C5.18173 11.1383 5.40311 11.7938 5.84577 12.3232C5.99331 12.4968 6.04111 12.6834 5.98898 12.8832C5.9716 12.9353 5.93694 13.0655 5.88481 13.2737C5.83291 13.4819 5.79802 13.6168 5.78078 13.6774C5.71141 13.9552 5.54636 14.042 5.28594 13.9377C4.61762 13.6602 4.10969 13.1782 3.76258 12.4925C3.41533 11.8067 3.24166 11.0122 3.24166 10.1097C3.24166 9.52805 3.33501 8.94647 3.52168 8.36493C3.70817 7.78317 3.9991 7.2212 4.39396 6.67861C4.78906 6.13589 5.26214 5.65624 5.81339 5.23976C6.36441 4.82313 7.03507 4.48897 7.82502 4.23722C8.61498 3.98547 9.4656 3.8596 10.3771 3.8596C11.61 3.8596 12.7166 4.13301 13.6973 4.67988C14.6784 5.2268 15.427 5.93417 15.9436 6.8023C16.4602 7.67047 16.7183 8.59935 16.7183 9.58893C16.7183 10.891 16.4926 12.0628 16.0414 13.1046C15.5901 14.1462 14.952 14.9644 14.1271 15.5588C13.3024 16.1537 12.365 16.451 11.3143 16.451C10.785 16.451 10.2902 16.3272 9.82991 16.08C9.36996 15.8324 9.05304 15.5396 8.8795 15.201C8.48883 16.7372 8.25441 17.6533 8.17624 17.9483C8.01133 18.5644 7.67283 19.2764 7.16058 20.0836C8.08945 20.3614 9.03557 20.5 9.99916 20.5C11.8134 20.5 13.4867 20.053 15.0188 19.1587C16.5509 18.2647 17.7639 17.0517 18.6579 15.5197C19.5521 13.9873 19.9991 12.3141 19.9991 10.4999C19.9995 8.68578 19.5532 7.01245 18.6593 5.48042Z" fill="#171717"/>
</g>
<defs>
<clipPath id="clip0_6911_6455">
<rect width="20" height="20" fill="white" transform="translate(0 0.5)"/>
</clipPath>
</defs>
</svg>
