<svg width="32" height="32" viewBox="0 0 32 32" fill="none" xmlns="http://www.w3.org/2000/svg">
<path d="M21.7625 5.16016C23.3137 7.19453 24.2363 9.73141 24.2363 12.4802C24.2363 18.9633 19.1056 24.2714 12.6875 24.5683C14.6913 26.2777 17.2044 27.2077 19.8831 27.2077C21.05 27.2077 22.2006 27.0277 23.3012 26.6727C23.48 26.6152 23.6756 26.662 23.8081 26.7945L26.6788 29.6614V25.1345C26.6788 24.9833 26.7469 24.8402 26.865 24.7452C29.4938 22.6245 31.0013 19.4752 31.0013 16.1039C31.0013 10.6464 27.0319 6.05641 21.7625 5.16016Z" fill="white"/>
<path d="M12.1181 1.37598C5.9875 1.37598 1 6.35723 1 12.4797C1 15.8497 2.5075 18.9985 5.13688 21.1197C5.19497 21.1667 5.24185 21.226 5.27407 21.2933C5.30629 21.3607 5.32305 21.4344 5.32312 21.5091V26.036L8.19375 23.1691C8.25877 23.104 8.34053 23.0582 8.42999 23.0366C8.51945 23.0151 8.61312 23.0188 8.70063 23.0472C9.80188 23.4022 10.9519 23.5822 12.1187 23.5822C18.2487 23.5822 23.2356 18.6022 23.2356 12.4804C23.235 6.35723 18.2481 1.37598 12.1181 1.37598Z" fill="white"/>
<path d="M15.7362 15.6697V15.3429L17.4544 16.1085C17.5194 16.1372 17.5888 16.1516 17.6581 16.1516C17.7531 16.1516 17.8481 16.1247 17.9306 16.071C18.0725 15.9785 18.1581 15.821 18.1581 15.6516V9.30535C18.1582 9.22201 18.1374 9.13998 18.0977 9.06671C18.058 8.99345 18.0006 8.93128 17.9307 8.88587C17.8608 8.84047 17.7807 8.81326 17.6976 8.80673C17.6145 8.8002 17.5311 8.81455 17.455 8.84848L15.7369 9.6141V9.28723C15.7369 8.70535 15.2631 8.2316 14.6806 8.2316H7.13312C6.55062 8.2316 6.07688 8.70535 6.07688 9.28723V15.6697C6.07688 16.2529 6.55062 16.7272 7.13312 16.7272H14.68C15.2625 16.7272 15.7362 16.2529 15.7362 15.6697ZM17.1581 10.0754V14.8816L15.7362 14.2479V10.7091L17.1581 10.0754ZM7.07688 15.6697V9.28785C7.07688 9.25785 7.1025 9.23223 7.13312 9.23223H14.68C14.7106 9.23223 14.7362 9.25785 14.7362 9.28785V15.6704C14.7362 15.701 14.71 15.7279 14.68 15.7279H7.13312C7.10312 15.7272 7.07688 15.7004 7.07688 15.6697ZM20.7894 4.03535C18.5875 1.7791 15.5144 0.375977 12.1181 0.375977C5.43625 0.375977 0 5.80598 0 12.4797C0 16.0735 1.5725 19.436 4.3225 21.7447V27.2416C4.32262 27.3742 4.37533 27.5013 4.46907 27.595C4.56282 27.6888 4.68993 27.7415 4.8225 27.7416C4.9525 27.7416 5.08 27.691 5.17625 27.5954L8.6875 24.0891C9.50688 24.3304 10.3488 24.4835 11.2031 24.5472C12.2944 25.6672 13.57 26.5541 14.9994 27.1835C16.5413 27.8629 18.1844 28.2072 19.8825 28.2072C21.0506 28.2072 22.2031 28.0416 23.3137 27.7147L26.825 31.221C26.8714 31.2674 26.9266 31.3043 26.9873 31.3294C27.048 31.3545 27.1131 31.3673 27.1787 31.3672C27.3113 31.3671 27.4384 31.3144 27.5322 31.2207C27.6259 31.1269 27.6786 30.9998 27.6787 30.8672V25.3704C30.4275 23.0616 32 19.6979 32 16.1035C32 9.76723 27.0913 4.50285 20.7894 4.03535ZM8.19312 23.1685L5.3225 26.0354V21.5091C5.3225 21.3579 5.25437 21.2147 5.13625 21.1197C2.5075 18.9985 1 15.8497 1 12.4797C1 6.35723 5.9875 1.37598 12.1181 1.37598C18.2481 1.37598 23.235 6.35723 23.235 12.4797C23.235 18.6016 18.2481 23.5816 12.1181 23.5816C10.9513 23.5816 9.80125 23.4016 8.7 23.0466C8.61247 23.0184 8.51886 23.0149 8.42945 23.0364C8.34003 23.0579 8.25827 23.1036 8.19312 23.1685ZM26.8631 24.7454C26.805 24.7923 26.7582 24.8516 26.7259 24.919C26.6937 24.9863 26.6769 25.06 26.6769 25.1347V29.6616L23.8062 26.7947C23.7412 26.7296 23.6595 26.6838 23.57 26.6623C23.4805 26.6408 23.3869 26.6444 23.2994 26.6729C22.1981 27.0279 21.0481 27.2079 19.8813 27.2079C17.2025 27.2079 14.6894 26.2785 12.6856 24.5685C19.1044 24.271 24.2344 18.9629 24.2344 12.4804C24.2344 9.7316 23.3119 7.19473 21.7606 5.16035C27.0306 6.05598 31 10.646 31 16.1035C31 19.4747 29.4925 22.6241 26.8631 24.7454Z" fill="#3A3B3E"/>
<path opacity="0.6" d="M15.7375 14.2487L17.1594 14.8824V10.0755L15.7375 10.7093V14.2487ZM14.6813 9.23242H7.13437C7.10375 9.23242 7.07812 9.25805 7.07812 9.28805V15.6705C7.07812 15.7012 7.10437 15.728 7.13437 15.728H14.6813C14.7113 15.728 14.7375 15.7012 14.7375 15.6705V9.28805C14.7375 9.25805 14.7119 9.23242 14.6813 9.23242ZM12.6744 12.913L10.4294 14.2068C10.3519 14.2512 10.2662 14.2737 10.18 14.2737C10.0937 14.2737 10.0069 14.2512 9.93 14.2068C9.77562 14.1174 9.68 13.9524 9.68 13.7737V11.1849C9.68 11.0062 9.77562 10.8412 9.93 10.7518C10.006 10.7079 10.0922 10.6848 10.18 10.6848C10.2678 10.6848 10.354 10.7079 10.43 10.7518L12.6744 12.0468C12.8294 12.1362 12.9244 12.3012 12.9244 12.4799C12.9244 12.6587 12.8288 12.8237 12.6744 12.913Z" fill="url(#paint0_linear_6918_8864)"/>
<path d="M10.4297 10.7516L12.6741 12.0466C12.8284 12.136 12.9241 12.301 12.9241 12.4797C12.9241 12.6585 12.8291 12.8235 12.6741 12.9129L10.4291 14.2066C10.3522 14.251 10.2659 14.2735 10.1797 14.2735C10.114 14.2735 10.049 14.2607 9.98827 14.2356C9.92758 14.2105 9.87243 14.1736 9.82599 14.1272C9.77955 14.0807 9.74272 14.0256 9.71761 13.9649C9.69251 13.9042 9.67962 13.8392 9.67969 13.7735V11.1847C9.67969 11.006 9.77531 10.841 9.92969 10.7516C10.0057 10.7077 10.0919 10.6846 10.1797 10.6846C10.2675 10.6846 10.3537 10.7077 10.4297 10.7516Z" fill="white"/>
<path opacity="0.6" d="M10.3984 13.1716L11.5984 12.4643L10.3984 11.7715V13.1716Z" fill="url(#paint1_linear_6918_8864)"/>
<defs>
<linearGradient id="paint0_linear_6918_8864" x1="7.07804" y1="15.728" x2="12.0829" y2="6.48399" gradientUnits="userSpaceOnUse">
<stop stop-color="#52DA98"/>
<stop offset="1" stop-color="#F8FAB5"/>
</linearGradient>
<linearGradient id="paint1_linear_6918_8864" x1="10.3984" y1="13.1716" x2="11.6865" y2="11.8578" gradientUnits="userSpaceOnUse">
<stop stop-color="#52DA98"/>
<stop offset="1" stop-color="#F8FAB5"/>
</linearGradient>
</defs>
</svg>
