<svg width="71" height="71" viewBox="0 0 71 71" fill="none" xmlns="http://www.w3.org/2000/svg">
<g clip-path="url(#clip0_6918_8920)">
<path d="M35.0821 37.2774C36.5998 37.2774 37.8302 36.0471 37.8302 34.5293C37.8302 33.0116 36.5998 31.7812 35.0821 31.7812C33.5643 31.7812 32.334 33.0116 32.334 34.5293C32.334 36.0471 33.5643 37.2774 35.0821 37.2774Z" fill="#3A3B3E"/>
<rect opacity="0.6" x="45.0039" y="43.25" width="14" height="14" rx="7" fill="url(#paint0_linear_6918_8920)"/>
<path d="M57.6375 44.6431C56.3398 43.4217 54.6986 42.6202 52.9047 42.3912V28.4217C52.9047 26.9332 52.294 25.5973 51.3398 24.6049C50.3474 23.6126 49.0115 23.04 47.523 23.04H25.3856C23.897 23.04 22.5612 23.6507 21.5688 24.6049C20.5764 25.5973 20.0039 26.9332 20.0039 28.4217V51.208C20.0039 52.6965 20.6146 54.0324 21.5688 55.0248C22.5612 56.0171 23.897 56.5897 25.3856 56.5897H46.7978C48.21 57.7347 49.9657 58.4599 51.9123 58.4599C54.1642 58.4599 56.1871 57.5439 57.6375 56.0935C59.0879 54.6431 60.0039 52.6202 60.0039 50.3683C60.0039 48.1164 59.0879 46.0935 57.6375 44.6431ZM22.0268 28.4217C22.0268 27.5057 22.4085 26.666 23.0192 26.0935C23.6299 25.4828 24.4696 25.1011 25.3856 25.1011H47.523C48.439 25.1011 49.2787 25.4828 49.8894 26.0935C50.5001 26.7042 50.8818 27.5439 50.8818 28.4599V40.3683L45.2329 34.7194C44.8512 34.3377 44.2024 34.2996 43.7825 34.7194L35.2711 43.269L29.5077 37.4675C29.126 37.0858 28.4772 37.0477 28.0573 37.4675L22.0268 43.5744V28.4217ZM25.3474 54.6431V54.5668C24.4314 54.5668 23.5917 54.1851 22.981 53.5744C22.4085 52.9637 22.0268 52.124 22.0268 51.208V46.4752L28.7825 39.6813L34.5459 45.4446C34.9276 45.8263 35.5764 45.8263 35.9963 45.4446L44.5077 36.895L50.0802 42.5057L49.7367 42.6202C49.5841 42.6584 49.4314 42.6965 49.2405 42.7729C49.0879 42.811 48.9352 42.8874 48.7825 42.9255C48.668 42.9637 48.5917 43.0019 48.4772 43.0782C48.3245 43.1545 48.21 43.1927 48.0955 43.269L47.523 43.6126C47.4085 43.6889 47.3321 43.7271 47.2176 43.8034C47.1413 43.8416 47.1031 43.8797 47.0268 43.9179C46.6833 44.1469 46.378 44.4141 46.1108 44.7194C44.6604 46.1698 43.7444 48.1927 43.7444 50.4446C43.7444 51.0171 43.8207 51.5515 43.9352 52.124C43.9734 52.2767 44.0115 52.3912 44.0497 52.5439C44.1642 52.9255 44.2787 53.3072 44.4314 53.6889V53.7271C44.5841 54.0324 44.7367 54.3759 44.9276 54.6431H25.3474ZM56.1489 54.6431C55.0421 55.75 53.5535 56.3988 51.8741 56.3988C50.2711 56.3988 48.7825 55.75 47.7138 54.7194C47.5612 54.5668 47.4085 54.3759 47.2558 54.2232C47.1413 54.1087 47.0268 53.9561 46.9123 53.8416C46.7596 53.6507 46.6451 53.4217 46.5306 53.1927C46.4543 53.04 46.378 52.9255 46.3016 52.7729C46.2253 52.582 46.1489 52.353 46.1108 52.124C46.0726 51.9713 45.9963 51.7805 45.9581 51.6278C45.8818 51.2461 45.8436 50.8263 45.8436 50.4064C45.8436 48.7271 46.5306 47.2385 47.5993 46.1316C48.668 45.0248 50.1947 44.3759 51.8741 44.3759C53.5535 44.3759 55.0421 45.0629 56.1489 46.1316C57.2558 47.2385 57.9047 48.7271 57.9047 50.4064C57.9047 52.0477 57.2176 53.5362 56.1489 54.6431Z" fill="#3A3B3E"/>
<path d="M52.4333 47.4596C52.3881 47.4072 52.3203 47.3548 52.2299 47.3024C52.1621 47.2762 52.0943 47.25 52.0265 47.25H51.9813C51.9135 47.25 51.8457 47.2762 51.7779 47.3024C51.7101 47.3286 51.6423 47.381 51.5745 47.4596L50.1734 49.0841C49.9474 49.3461 49.9474 49.7915 50.1734 50.0797C50.3994 50.3417 50.7836 50.3417 51.0322 50.0797L51.3937 49.6605V52.5426C51.3937 52.9356 51.6649 53.25 52.0039 53.25C52.3429 53.25 52.6141 52.9356 52.6141 52.5426V49.6605L52.9757 50.0797C53.2016 50.3417 53.5858 50.3417 53.8344 50.0797C54.0604 49.8177 54.0604 49.3723 53.8344 49.0841L52.4333 47.4596Z" fill="white"/>
</g>
<defs>
<linearGradient id="paint0_linear_6918_8920" x1="45.0038" y1="57.25" x2="57.6931" y2="42.1487" gradientUnits="userSpaceOnUse">
<stop stop-color="#52DA98"/>
<stop offset="1" stop-color="#F8FAB5"/>
</linearGradient>
<clipPath id="clip0_6918_8920">
<rect width="40" height="40" fill="white" transform="translate(20.002 20.75)"/>
</clipPath>
</defs>
</svg>
