<svg width="49" height="49" viewBox="0 0 49 49" fill="none" xmlns="http://www.w3.org/2000/svg">
<circle cx="24.4969" cy="24.4998" r="24.4969" fill="#3BBB67"/>
<path d="M35.1008 33.6408H26.9553C26.1595 31.0143 25.7616 28.2922 25.7616 25.4747C25.7616 22.6094 26.4872 20.341 27.9384 18.6696C29.4364 16.9504 31.6366 16.0908 34.539 16.0908V20.1022C32.1984 20.1022 31.0281 21.5588 31.0281 24.4718V25.8329H35.1008V33.6408ZM23.2337 33.6408H15.0883C14.2924 31.0143 13.8945 28.2922 13.8945 25.4747C13.8945 22.6094 14.6201 20.341 16.0713 18.6696C17.5693 16.9504 19.7696 16.0908 22.672 16.0908V20.1022C20.3313 20.1022 19.161 21.5588 19.161 24.4718V25.8329H23.2337V33.6408Z" fill="white"/>
</svg>
