<svg width="52" height="52" viewBox="0 0 52 52" fill="none" xmlns="http://www.w3.org/2000/svg">
<g clip-path="url(#clip0_6830_5018)">
<path d="M37.7944 4.85601C34.6377 1.72159 30.4584 0 26.0128 0C25.9726 0 25.9315 0.000101562 25.8913 0.00040625C21.5511 0.0309766 17.4418 1.73144 14.3202 4.78857C11.1979 7.84631 9.41337 11.9194 9.29545 16.2572C9.17246 20.7777 10.8282 25.059 13.9578 28.3128C16.4222 30.875 17.7794 34.2829 17.7794 37.909V44.8845C17.7794 46.3177 18.7744 47.5221 20.1095 47.8452V48.7753C20.1095 50.5533 21.5561 51.9999 23.3341 51.9999H28.6662C30.4442 51.9999 31.8908 50.5533 31.8908 48.7753V47.8506C33.2376 47.5358 34.2441 46.3259 34.2441 44.8845V37.9092C34.2441 34.3306 35.6385 30.8832 38.1708 28.2024C41.1137 25.0868 42.7344 21.0098 42.7344 16.7226C42.7344 12.2335 40.98 8.01917 37.7944 4.85601ZM29.8596 48.7754C29.8596 49.4334 29.3243 49.9688 28.6663 49.9688H23.3342C22.6762 49.9688 22.1409 49.4334 22.1409 48.7754V47.9311H29.8596V48.7754ZM32.2129 44.8845C32.2129 45.4443 31.7575 45.8998 31.1976 45.8998H20.826C20.2661 45.8998 19.8107 45.4443 19.8107 44.8845V39.1082H32.2129V44.8845ZM24.4164 37.0769V24.2306H27.5805V37.0768H24.4164V37.0769ZM36.6943 26.8075C34.0006 29.6594 32.4349 33.2785 32.2349 37.0768H29.6117V24.2306H30.5246C32.1479 24.2306 33.4688 22.9099 33.4688 21.2864V21.129C33.4688 19.5055 32.1479 18.1848 30.5246 18.1848C28.9012 18.1848 27.5805 19.5055 27.5805 21.129V22.1993H24.4164V21.129C24.4164 19.5055 23.0957 18.1848 21.4723 18.1848H21.2722C19.6488 18.1848 18.3281 19.5055 18.3281 21.129V21.2864C18.3281 22.9098 19.6488 24.2306 21.2722 24.2306H22.3851V37.0768H19.7898C19.5959 33.2354 18.0622 29.6497 15.4218 26.9046C12.6725 24.0462 11.2178 20.2845 11.326 16.3125C11.5387 8.49316 18.079 2.0868 25.9056 2.03155C29.8558 2.00383 33.5648 3.51873 36.3633 6.29738C39.162 9.07634 40.7033 12.7788 40.7033 16.7226C40.7033 20.4891 39.2794 24.0706 36.6943 26.8075ZM29.6117 22.1993V21.129C29.6117 20.6255 30.0212 20.216 30.5246 20.216C31.028 20.216 31.4375 20.6256 31.4375 21.129V21.2864C31.4375 21.7898 31.028 22.1993 30.5246 22.1993H29.6117ZM22.385 21.129V22.1993H21.2721C20.7688 22.1993 20.3593 21.7898 20.3593 21.2864V21.129C20.3593 20.6255 20.7688 20.216 21.2721 20.216H21.4722C21.9755 20.216 22.385 20.6257 22.385 21.129Z" fill="#3BBB67"/>
<path d="M36.8984 12.3256C36.0259 10.1597 34.5421 8.31642 32.6075 6.99509C30.6243 5.64076 28.2998 4.93388 25.891 4.95084C25.3301 4.9548 24.8785 5.41275 24.8825 5.97368C24.8865 6.53217 25.3405 6.98209 25.8979 6.98209H25.9052L25.9761 6.98189C29.9756 6.98189 33.5184 9.37115 35.0144 13.0846C35.0901 13.2725 35.2202 13.4335 35.3882 13.5469C35.5561 13.6603 35.7541 13.721 35.9567 13.721C36.0867 13.7209 36.2154 13.6959 36.3359 13.6471C36.8561 13.4375 37.1081 12.8458 36.8984 12.3256ZM37.4502 16.0038C37.2612 15.8149 36.9992 15.7062 36.7321 15.7062C36.465 15.7062 36.203 15.8149 36.0141 16.0038C35.8239 16.1944 35.7169 16.4526 35.7165 16.7218C35.7165 16.99 35.8241 17.251 36.0141 17.4399C36.203 17.6298 36.464 17.7375 36.7321 17.7375C36.9992 17.7375 37.2612 17.6298 37.4502 17.4399C37.6401 17.2491 37.747 16.991 37.7477 16.7218C37.7477 16.4547 37.6391 16.1927 37.4502 16.0038ZM47.1687 5.05819C46.772 4.66159 46.1291 4.66159 45.7323 5.05819L43.8401 6.9504C43.4435 7.34701 43.4435 7.9901 43.8401 8.3868C44.0384 8.58515 44.2983 8.68428 44.5583 8.68428C44.8183 8.68428 45.0781 8.58515 45.2765 8.3868L47.1687 6.49459C47.5653 6.09799 47.5653 5.4549 47.1687 5.05819ZM47.1686 26.9499L45.2765 25.0577C44.8799 24.6611 44.237 24.6611 43.8401 25.0577C43.4435 25.4543 43.4435 26.0974 43.8401 26.494L45.7323 28.3862C45.9306 28.5845 46.1905 28.6837 46.4504 28.6837C46.7103 28.6837 46.9702 28.5844 47.1686 28.3862C47.5652 27.9896 47.5652 27.3465 47.1686 26.9499ZM50.9844 15.7066H48.3083C47.7475 15.7066 47.2927 16.1613 47.2927 16.7222C47.2927 17.2832 47.7475 17.7379 48.3083 17.7379H50.9844C51.5452 17.7379 52 17.2832 52 16.7222C52 16.1613 51.5452 15.7066 50.9844 15.7066ZM8.15984 6.95051L6.26773 5.0583C5.87102 4.66169 5.22813 4.66169 4.83133 5.0583C4.43473 5.4549 4.43473 6.09799 4.83133 6.49469L6.72354 8.3869C6.81774 8.48136 6.92968 8.55626 7.05293 8.60732C7.17617 8.65837 7.30829 8.68456 7.44169 8.68438C7.57509 8.68456 7.70721 8.65837 7.83045 8.60732C7.95369 8.55626 8.06563 8.48136 8.15984 8.3869C8.55644 7.9902 8.55644 7.34721 8.15984 6.95051ZM8.15984 25.0576C7.76323 24.6609 7.12024 24.6609 6.72354 25.0576L4.83133 26.9499C4.43473 27.3465 4.43473 27.9896 4.83133 28.3862C4.92553 28.4806 5.03747 28.5555 5.16071 28.6066C5.28396 28.6576 5.41608 28.6838 5.54948 28.6837C5.68287 28.6838 5.81499 28.6576 5.93823 28.6066C6.06147 28.5555 6.17341 28.4806 6.26763 28.3862L8.15984 26.494C8.55644 26.0973 8.55644 25.4543 8.15984 25.0576ZM3.6917 15.7066H1.01562C0.454797 15.7066 0 16.1613 0 16.7222C0 17.2832 0.454797 17.7379 1.01562 17.7379H3.6917C4.25252 17.7379 4.70732 17.2832 4.70732 16.7222C4.70732 16.1613 4.25252 15.7066 3.6917 15.7066Z" fill="#3BBB67"/>
</g>
<defs>
<clipPath id="clip0_6830_5018">
<rect width="52" height="52" fill="white"/>
</clipPath>
</defs>
</svg>
