<svg width="53" height="52" viewBox="0 0 53 52" fill="none" xmlns="http://www.w3.org/2000/svg">
<path d="M40.7867 34.5747C44.2956 31.0005 46.4635 26.1056 46.4635 20.7131C46.4634 9.79591 37.5816 0.914062 26.6643 0.914062C15.7471 0.914062 6.86523 9.79591 6.86523 20.7132C6.86523 26.1056 9.03319 31.0005 12.5421 34.5748L7.25138 43.7385C7.18299 43.857 7.15024 43.9927 7.15705 44.1293C7.16387 44.266 7.20997 44.3977 7.28982 44.5088C7.36966 44.6199 7.47987 44.7056 7.6072 44.7556C7.73454 44.8056 7.87361 44.8178 8.00771 44.7908L15.1282 43.3535L17.4439 50.2387C17.4875 50.3684 17.5676 50.4827 17.6746 50.568C17.7816 50.6533 17.9109 50.7059 18.047 50.7195C18.1832 50.7331 18.3204 50.7072 18.4421 50.6447C18.5639 50.5823 18.665 50.4861 18.7334 50.3676L24.4924 40.3925C25.2059 40.4707 25.9303 40.5122 26.6643 40.5122C27.3983 40.5122 28.1227 40.4707 28.8361 40.3925L34.8047 50.7305C34.8731 50.849 34.9742 50.9452 35.096 51.0076C35.2177 51.07 35.3549 51.096 35.4911 51.0824C35.6272 51.0688 35.7565 51.0162 35.8635 50.9309C35.9705 50.8456 36.0506 50.7313 36.0942 50.6016L38.4098 43.7164L45.5304 45.1536C45.6645 45.1806 45.8036 45.1684 45.9309 45.1184C46.0582 45.0684 46.1684 44.9827 46.2483 44.8716C46.3281 44.7605 46.3742 44.6287 46.381 44.4921C46.3879 44.3555 46.3551 44.2198 46.2867 44.1013L40.7867 34.5747ZM18.2895 48.2928L16.276 42.306C16.2207 42.1419 16.1075 42.0036 15.9576 41.917C15.8076 41.8305 15.6312 41.8015 15.4615 41.8357L9.27023 43.0855L13.6036 35.58C16.214 37.876 19.4313 39.4966 22.9807 40.1673L18.2895 48.2928ZM8.28711 20.7132C8.28711 10.5799 16.5311 2.33594 26.6643 2.33594C36.7975 2.33594 45.0416 10.5799 45.0416 20.7132C45.0416 30.8465 36.7975 39.0904 26.6643 39.0904C16.5311 39.0904 8.28711 30.8464 8.28711 20.7132ZM38.0765 42.1986C37.9068 42.1644 37.7304 42.1933 37.5804 42.2798C37.4304 42.3664 37.3172 42.5047 37.262 42.6688L35.2486 48.6555L30.3478 40.1672C33.8972 39.4965 37.1147 37.8759 39.7251 35.5799L44.268 43.4482L38.0765 42.1986ZM26.6643 6.0063C18.555 6.0063 11.9575 12.6037 11.9575 20.7132C11.9575 28.8226 18.555 35.4199 26.6643 35.4199C34.7737 35.4199 41.3712 28.8225 41.3712 20.7131C41.3712 12.6036 34.7737 6.0063 26.6643 6.0063ZM26.6643 33.998C19.3389 33.998 13.3794 28.0385 13.3794 20.7131C13.3794 13.3877 19.3389 7.42818 26.6643 7.42818C33.9897 7.42818 39.9493 13.3878 39.9493 20.7132C39.9493 28.0386 33.9897 33.998 26.6643 33.998ZM36.2272 18.4983C36.183 18.3626 36.0991 18.2433 35.9862 18.1559C35.8734 18.0685 35.7369 18.0171 35.5944 18.0084L29.5461 17.639L27.3259 12.0008C27.2736 11.868 27.1825 11.7541 27.0645 11.6738C26.9465 11.5935 26.8071 11.5505 26.6643 11.5505C26.5216 11.5505 26.3822 11.5935 26.2642 11.6738C26.1462 11.7541 26.0551 11.868 26.0028 12.0008L23.7826 17.639L17.7342 18.0084C17.5918 18.0171 17.4552 18.0684 17.3424 18.1558C17.2295 18.2432 17.1455 18.3625 17.1014 18.4983C17.0573 18.6341 17.0551 18.7799 17.0951 18.917C17.135 19.054 17.2153 19.1758 17.3255 19.2666L22.0015 23.1205L20.4839 28.9869C20.4481 29.125 20.4548 29.2708 20.503 29.4051C20.5512 29.5394 20.6388 29.6562 20.7542 29.7401C20.8697 29.824 21.0077 29.8712 21.1504 29.8755C21.2931 29.8799 21.4337 29.8412 21.5541 29.7645L26.6643 26.5081L31.7746 29.7644C31.8949 29.8412 32.0356 29.88 32.1783 29.8756C32.321 29.8713 32.459 29.824 32.5745 29.74C32.69 29.6562 32.7775 29.5394 32.8257 29.4051C32.874 29.2707 32.8806 29.1249 32.8448 28.9867L31.3272 23.1204L36.0032 19.2665C36.1134 19.1758 36.1937 19.0539 36.2336 18.9169C36.2736 18.7799 36.2713 18.634 36.2272 18.4983ZM30.0732 22.3114C29.9687 22.3974 29.891 22.5115 29.8492 22.6403C29.8074 22.769 29.8031 22.907 29.837 23.038L31.0161 27.5952L27.0464 25.0656C26.9323 24.9928 26.7997 24.9541 26.6643 24.9541C26.5289 24.9541 26.3964 24.9928 26.2823 25.0656L22.3125 27.5952L23.4915 23.038C23.5254 22.907 23.5212 22.769 23.4793 22.6403C23.4375 22.5116 23.3598 22.3974 23.2554 22.3114L19.6228 19.3175L24.3214 19.0306C24.4565 19.0223 24.5864 18.9757 24.696 18.8961C24.8055 18.8166 24.89 18.7074 24.9396 18.5815L26.6643 14.2017L28.389 18.5816C28.4386 18.7075 28.5231 18.8167 28.6326 18.8962C28.7421 18.9758 28.8721 19.0224 29.0072 19.0307L33.7058 19.3176L30.0732 22.3114Z" fill="#3BBB67"/>
</svg>
