<svg width="42" height="69" viewBox="0 0 42 69" fill="none" xmlns="http://www.w3.org/2000/svg">
<g clip-path="url(#clip0_7208_1252)">
<g clip-path="url(#clip1_7208_1252)">
<path d="M20.3617 42.0642C19.7943 42.0642 19.3301 41.6 19.3301 41.0326V28.0082C19.3301 27.4408 19.7943 26.9766 20.3617 26.9766C20.9291 26.9766 21.3933 27.4408 21.3933 28.0082V41.0455C21.3933 41.6 20.9291 42.0642 20.3617 42.0642Z" fill="#C8F27C"/>
<path d="M20.3617 42.3076C19.7943 42.3076 19.3301 41.8433 19.3301 41.2759V38.1037C19.3301 35.5633 21.3418 33.5 23.8177 33.5C26.2936 33.5 28.3053 35.5633 28.3053 38.1037C28.3053 38.6711 27.8411 39.1353 27.2737 39.1353C26.7063 39.1353 26.242 38.6711 26.242 38.1037C26.242 36.6981 25.1588 35.5633 23.8177 35.5633C22.4766 35.5633 21.3933 36.6981 21.3933 38.1037V41.2759C21.3933 41.8433 20.9291 42.3076 20.3617 42.3076Z" fill="#C8F27C"/>
<path d="M14.4944 32.6622H12.4312V21.2755C12.4312 18.7351 14.4428 16.6719 16.9188 16.6719C19.3947 16.6719 21.4064 18.7351 21.4064 21.2755H19.3431C19.3431 19.8699 18.2599 18.7351 16.9188 18.7351C15.5776 18.7351 14.4944 19.8699 14.4944 21.2755V32.6622Z" fill="#C8F27C"/>
<path d="M21.3933 21.2891H19.3301V32.3791H21.3933V21.2891Z" fill="#C8F27C"/>
<path d="M34.1726 42.3076C33.6052 42.3076 33.141 41.8433 33.141 41.2759V38.1037C33.141 36.6981 32.0577 35.5633 30.7166 35.5633C29.3755 35.5633 28.2923 36.6981 28.2923 38.1037V41.2759C28.2923 41.8433 27.828 42.3076 27.2606 42.3076C26.6932 42.3076 26.229 41.8433 26.229 41.2759V38.1037C26.229 35.5633 28.2407 33.5 30.7166 33.5C33.1925 33.5 35.2042 35.5633 35.2042 38.1037V41.2759C35.2042 41.8433 34.74 42.3076 34.1726 42.3076Z" fill="#C8F27C"/>
<path d="M42.1031 39.547H40.0399C40.0399 38.1414 38.9567 37.0066 37.6155 37.0066C36.2744 37.0066 35.1912 38.1414 35.1912 39.547H33.1279C33.1279 37.0066 35.1396 34.9434 37.6155 34.9434C40.1044 34.9434 42.1031 37.0066 42.1031 39.547Z" fill="#C8F27C"/>
<path d="M13.1918 68.4977C12.9468 68.4977 12.7018 68.4075 12.5213 68.2527C12.2891 68.0593 12.1602 67.7756 12.1602 67.4661C12.1602 65.5189 11.438 63.6361 10.1485 62.179L8.11102 59.8965C7.25993 58.9551 6.61516 57.859 6.17671 56.6726L0.141651 40.1536C0.0513834 39.857 -0.593388 37.6648 0.657468 36.2463C1.45698 35.3436 2.74653 35.0341 4.47451 35.3565C7.93049 35.9884 10.8062 40.2438 12.4181 43.2227L12.431 32.6484H14.4943L14.4814 44.1512C14.4814 44.5251 14.3653 44.8991 14.1461 45.2086C13.7721 45.7373 13.1531 46.0339 12.5213 45.9823C11.8765 45.9307 11.3091 45.5697 11.0254 44.9894C8.79448 40.6049 6.2154 37.755 4.11344 37.3811C3.15918 37.2134 2.48862 37.2908 2.20492 37.6003C1.81806 38.0387 1.95991 39.0704 2.08886 39.4701L8.11102 55.9376C8.4592 56.8918 8.97502 57.7429 9.64558 58.5038L11.6831 60.7863C13.0887 62.3595 13.9527 64.3196 14.1719 66.3958C17.5763 66.37 27.9958 66.3829 37.216 66.4087C37.3321 65.0675 37.6802 63.4943 38.2863 62.3208L39.1503 60.6444C39.7306 59.5225 40.0401 58.2588 40.0401 56.995V39.5475H42.1034V57.0208C42.1034 58.6198 41.7165 60.206 40.9815 61.6245L40.1175 63.3009C39.5888 64.3067 39.2277 66.0347 39.2277 67.479C39.2277 67.7498 39.1245 68.0206 38.9182 68.214C38.7248 68.4075 38.4669 68.5106 38.1961 68.5106C28.6276 68.4848 14.1332 68.459 13.295 68.5106C13.2563 68.4977 13.2305 68.4977 13.1918 68.4977Z" fill="#C8F27C"/>
<path d="M24.3852 22.4631L22.6185 21.4057C23.2246 20.3869 23.547 19.2006 23.547 18.0013C23.547 14.339 20.5682 11.3601 16.9059 11.3601C13.2436 11.3601 10.2647 14.339 10.2647 18.0013C10.2647 19.0458 10.4968 20.0388 10.9611 20.9543L9.11704 21.8699C8.51095 20.6577 8.21436 19.3553 8.21436 18.0013C8.21436 13.2042 12.1217 9.29688 16.9188 9.29688C21.7159 9.29688 25.6232 13.2042 25.6232 18.0013C25.6103 19.5745 25.1847 21.122 24.3852 22.4631Z" fill="#C8F27C"/>
<path d="M8.57536 27.9697C5.46756 25.4422 3.68799 21.7025 3.68799 17.7049C3.68799 10.4319 9.61988 4.5 16.9058 4.5C24.1917 4.5 30.1236 10.4319 30.1236 17.7178C30.1236 21.7154 28.344 25.4551 25.2362 27.9826L23.9338 26.3835C26.5516 24.2558 28.0603 21.0964 28.0603 17.7178C28.0603 11.5667 23.0569 6.56327 16.9058 6.56327C10.7547 6.56327 5.75126 11.5667 5.75126 17.7178C5.75126 21.0964 7.26002 24.2429 9.87779 26.3706L8.57536 27.9697Z" fill="#C8F27C"/>
</g>
</g>
<defs>
<clipPath id="clip0_7208_1252">
<rect width="42" height="68" fill="white" transform="translate(0 0.5)"/>
</clipPath>
<clipPath id="clip1_7208_1252">
<rect width="42.2067" height="64" fill="white" transform="translate(-0.103516 4.5)"/>
</clipPath>
</defs>
</svg>
