<svg width="53" height="52" viewBox="0 0 53 52" fill="none" xmlns="http://www.w3.org/2000/svg">
<g clip-path="url(#clip0_6830_5033)">
<path d="M51.3552 35.1975C38.7669 13.4008 32.9386 2.39414 31.7469 3.58581C30.6198 2.90001 29.3653 2.45009 28.0593 2.26328C26.7533 2.07647 25.4229 2.15665 24.1488 2.49899C22.8747 2.84132 21.6833 3.43867 20.6468 4.25488C19.6102 5.07109 18.7501 6.08917 18.1186 7.24747C16.4719 10.0641 24.0336 -3.02253 2.06355 35.0458C1.14477 36.5651 0.66132 38.3078 0.66605 40.0833C0.66605 50.0391 13.9044 53.5383 18.8552 44.9583C19.6244 43.615 16.0819 49.7683 26.6661 31.4166L34.4661 44.9583C35.759 47.1979 37.8887 48.8322 40.3866 49.5017C42.8845 50.1711 45.546 49.8208 47.7856 48.5279C50.0253 47.235 51.6596 45.1053 52.329 42.6074C52.9984 40.1095 52.6481 37.448 51.3552 35.2083V35.1975ZM10.416 47.6666C9.08418 47.6681 7.77541 47.3188 6.62141 46.6538C5.46742 45.9889 4.50891 45.0317 3.84233 43.8786C3.17575 42.7256 2.82461 41.4173 2.82424 40.0854C2.82387 38.7536 3.17428 37.4451 3.84022 36.2916C3.86812 36.2462 3.89344 36.1991 3.91605 36.1508C8.47688 28.6216 20.3286 33.7458 17.6094 42.3691C17.1255 43.8999 16.1683 45.2376 14.8756 46.1896C13.5829 47.1416 12.0214 47.6587 10.416 47.6666ZM20.0469 38.5666C19.8207 37.1308 19.2763 35.7637 18.4536 34.5654C17.6309 33.3671 16.5507 32.3679 15.292 31.6409C14.0333 30.914 12.628 30.4776 11.1789 30.3638C9.72981 30.2501 8.27362 30.4617 6.91688 30.9833L17.0352 13.455C17.4361 15.99 18.1944 16.77 25.4094 29.2825L20.0469 38.5666ZM42.916 47.6666C41.5853 47.6662 40.2781 47.3156 39.1257 46.6501C37.9734 45.9845 37.0164 45.0274 36.351 43.875C18.411 12.805 19.0827 14.6466 19.0827 11.9166C19.0835 10.5975 19.4285 9.30138 20.0834 8.1563C20.7384 7.01123 21.6807 6.05681 22.8173 5.3873C23.9539 4.7178 25.2455 4.35637 26.5646 4.33872C27.8836 4.32106 29.1844 4.6478 30.3386 5.28664C32.6352 6.30497 32.2885 6.49997 49.416 36.1508C50.1143 37.302 50.4934 38.6184 50.5145 39.9646C50.5355 41.3108 50.1978 42.6384 49.536 43.8109C48.8742 44.9834 47.9122 45.9585 46.7487 46.6362C45.5853 47.3138 44.2624 47.6695 42.916 47.6666Z" fill="#3BBB67"/>
</g>
<defs>
<clipPath id="clip0_6830_5033">
<rect width="52" height="52" fill="white" transform="translate(0.666016)"/>
</clipPath>
</defs>
</svg>
