<svg width="64" height="57" viewBox="0 0 64 57" fill="none" xmlns="http://www.w3.org/2000/svg">
<path d="M11.4075 46.7066C11.2668 46.7066 11.1121 46.6785 10.9714 46.6222C10.5495 46.4534 10.2822 46.0314 10.2822 45.5813V37.1699H6.58286C2.95385 37.1558 0 34.202 0 30.587V7.08286C0 3.45385 2.95385 0.5 6.58286 0.5H37.7248C41.3539 0.5 44.3077 3.45385 44.3077 7.08286V30.587C44.3077 34.216 41.3539 37.1699 37.7248 37.1699H21.4084L12.1952 46.3831C11.9842 46.5941 11.6888 46.7066 11.4075 46.7066ZM6.58286 2.75055C4.19165 2.75055 2.25055 4.69165 2.25055 7.08286V30.587C2.25055 32.9782 4.19165 34.9193 6.58286 34.9193H11.4075C12.0264 34.9193 12.5327 35.4257 12.5327 36.0446V42.8666L20.1565 35.2429C20.3675 35.0319 20.6488 34.9193 20.9582 34.9193H37.7389C40.1301 34.9193 42.0712 32.9782 42.0712 30.587V7.08286C42.0712 4.69165 40.1301 2.75055 37.7389 2.75055H6.58286Z" fill="#C8F27C"/>
<path d="M52.5925 56.1164C52.2971 56.1164 52.0158 56.0038 51.7908 55.7928L42.5776 46.5797H26.2611C22.6321 46.5797 19.6782 43.6258 19.6782 39.9968H21.9288C21.9288 42.388 23.8699 44.3291 26.2611 44.3291H43.0417C43.3371 44.3291 43.6325 44.4416 43.8435 44.6526L51.4672 52.2764V45.4544C51.4672 44.8355 51.9736 44.3291 52.5925 44.3291H57.4171C59.8083 44.3291 61.7494 42.388 61.7494 39.9968V16.4926C61.7494 14.1014 59.8083 12.1603 57.4171 12.1603H47.3459V9.92383H57.4171C61.0461 9.92383 64 12.8777 64 16.4926V39.9968C64 43.6258 61.0461 46.5797 57.4171 46.5797H53.7178V54.9911C53.7178 55.4412 53.4505 55.8632 53.0286 56.032C52.8879 56.0882 52.7332 56.1164 52.5925 56.1164Z" fill="#C8F27C"/>
<path d="M11.9701 21.5428C9.9587 21.5428 8.31299 19.8971 8.31299 17.8857C8.31299 15.8742 9.9587 14.2285 11.9701 14.2285C13.9816 14.2285 15.6273 15.8742 15.6273 17.8857C15.6273 19.8971 13.9816 21.5428 11.9701 21.5428ZM11.9701 16.4791C11.1965 16.4791 10.5635 17.112 10.5635 17.8857C10.5635 18.6593 11.1965 19.2923 11.9701 19.2923C12.7438 19.2923 13.3767 18.6593 13.3767 17.8857C13.3767 17.112 12.7438 16.4791 11.9701 16.4791Z" fill="#C8F27C"/>
<path d="M22.1537 21.5428C20.1423 21.5428 18.4966 19.8971 18.4966 17.8857C18.4966 15.8742 20.1423 14.2285 22.1537 14.2285C24.1652 14.2285 25.8109 15.8742 25.8109 17.8857C25.7968 19.8971 24.1652 21.5428 22.1537 21.5428ZM22.1537 16.4791C21.3801 16.4791 20.7471 17.112 20.7471 17.8857C20.7471 18.6593 21.3801 19.2923 22.1537 19.2923C22.9274 19.2923 23.5603 18.6593 23.5603 17.8857C23.5603 17.112 22.9274 16.4791 22.1537 16.4791Z" fill="#C8F27C"/>
<path d="M32.3378 21.5428C30.3264 21.5428 28.6807 19.8971 28.6807 17.8857C28.6807 15.8742 30.3264 14.2285 32.3378 14.2285C34.3492 14.2285 35.995 15.8742 35.995 17.8857C35.9809 19.8971 34.3492 21.5428 32.3378 21.5428ZM32.3378 16.4791C31.5642 16.4791 30.9312 17.112 30.9312 17.8857C30.9312 18.6593 31.5642 19.2923 32.3378 19.2923C33.1114 19.2923 33.7444 18.6593 33.7444 17.8857C33.7444 17.112 33.1114 16.4791 32.3378 16.4791Z" fill="#C8F27C"/>
</svg>
