<svg width="60" height="64" viewBox="0 0 60 64" fill="none" xmlns="http://www.w3.org/2000/svg">
<g clip-path="url(#clip0_7336_7611)">
<path d="M19.955 53.6213H17.6128V50.1812C17.6128 49.6688 17.4664 49.1565 17.2029 48.7173L13.9971 43.4182C12.8846 41.5883 13.0309 39.2315 14.3484 37.5334L16.471 34.7375C16.8663 34.2251 17.0858 33.5956 17.0858 32.9662V30.6094H19.428V32.9662C19.428 34.1226 19.0328 35.2498 18.3301 36.1574L16.2075 38.9534C15.4756 39.8903 15.3878 41.1931 16.0026 42.1885L19.2084 47.4877C19.6915 48.2928 19.955 49.2297 19.955 50.1666V53.6213Z" fill="#5EDDA0"/>
<path d="M7.71683 34.0633C6.38472 34.0633 5.05261 33.5656 4.05718 32.5556L2.02242 30.5208C1.04163 29.54 0.5 28.2372 0.5 26.8465V25.3534C0.5 23.9627 1.04163 22.6599 2.02242 21.6937L16.0316 7.68457L17.6857 9.33873L3.67658 23.3479C3.14959 23.8749 2.84218 24.6068 2.84218 25.3534V26.8465C2.84218 27.6077 3.13495 28.325 3.67658 28.852L5.71134 30.8868C6.80924 31.9847 8.60979 31.9993 9.70769 30.9014C10.6885 29.9499 11.9767 29.4229 13.3381 29.4229H22.5604C26.4982 29.4229 27.5229 23.5382 27.5229 23.4796L29.8358 23.8602C29.7772 24.1823 28.489 31.7651 22.5604 31.7651H13.3381C12.5915 31.7651 11.8888 32.0579 11.3472 32.5702C10.3518 33.5656 9.03431 34.0633 7.71683 34.0633Z" fill="#5EDDA0"/>
<path d="M45.573 21.8552H43.2309V19.5715C43.2309 19.4398 43.2162 19.308 43.2016 19.1909C43.0113 17.8442 41.9134 12.9402 35.7505 6.77739C29.3388 0.36568 16.1348 1.65388 10.9088 5.8698C10.8649 5.89907 10.8649 5.94299 10.8649 5.95763C10.8649 6.00154 10.8795 6.01618 10.8942 6.03082L15.1101 10.2467L13.4559 11.9009L9.25465 7.68498C8.77158 7.20191 8.50808 6.52853 8.53736 5.82588C8.56664 5.12323 8.90333 4.47913 9.44495 4.03997C15.2858 -0.6883 29.939 -2.37174 37.4047 5.10859C44.0799 11.7838 45.2949 17.3172 45.5145 18.8542C45.5438 19.0885 45.5584 19.3227 45.5584 19.5569V21.8552H45.573Z" fill="#5EDDA0"/>
<path d="M37.594 17.9763C36.2618 15.4877 34.3735 12.9845 31.9581 10.5692C30.1429 8.75397 27.7422 7.46577 24.8145 6.74848L25.3707 4.47949C28.7083 5.29925 31.4897 6.79239 33.6123 8.91499C36.1887 11.4914 38.2234 14.1703 39.658 16.8784L37.594 17.9763Z" fill="#5EDDA0"/>
<path d="M15.6078 58.2617H13.2656V56.1538C13.2656 54.119 14.9198 52.4648 16.9546 52.4648H34.6526V54.807H16.9546C16.208 54.807 15.6078 55.4072 15.6078 56.1538V58.2617Z" fill="#5EDDA0"/>
<path d="M11.4945 63.9407H9.15234V60.7788C9.15234 58.744 11.1432 57.0898 13.5878 57.0898H32.8669V59.432H13.5878C12.3582 59.432 11.4945 60.1493 11.4945 60.7788V63.9407Z" fill="#5EDDA0"/>
<path d="M55.393 59.7841C51.1624 46.0092 51.5284 40.9588 51.543 40.7539L53.8706 40.9442L52.6995 40.8417L53.8706 40.9296C53.8706 40.9735 53.5632 45.8774 57.6181 59.0814L55.393 59.7841Z" fill="#5EDDA0"/>
<path d="M59.9611 64.0001H57.619V61.6286C57.619 61.0431 57.2969 60.6039 57.0188 60.6039H45.7031V58.2617H57.0188C58.6437 58.2617 59.9611 59.7695 59.9611 61.6286V64.0001Z" fill="#5EDDA0"/>
<path d="M38.7358 59.7841L36.4961 59.0961C40.5949 45.7457 40.2582 40.9881 40.2436 40.9442L42.5711 40.7539C42.6004 40.9588 42.9664 46.0092 38.7358 59.7841Z" fill="#5EDDA0"/>
<path d="M36.5101 64.0001H34.168V61.6286C34.168 59.7695 35.4854 58.2617 37.1103 58.2617H45.6886V60.6039H37.1103C36.8322 60.6039 36.5101 61.0577 36.5101 61.6286V64.0001Z" fill="#5EDDA0"/>
<path d="M54.5142 42.0123H39.6121C37.8408 42.0123 36.4062 40.5777 36.4062 38.8064C36.4062 37.0352 37.8408 35.6006 39.6121 35.6006H54.5142C56.2855 35.6006 57.7201 37.0352 57.7201 38.8064C57.7347 40.5777 56.2855 42.0123 54.5142 42.0123ZM39.6121 37.9428C39.129 37.9428 38.7484 38.338 38.7484 38.8064C38.7484 39.2895 39.1437 39.6701 39.6121 39.6701H54.5142C54.9973 39.6701 55.3779 39.2749 55.3779 38.8064C55.3779 38.3234 54.9826 37.9428 54.5142 37.9428H39.6121Z" fill="#5EDDA0"/>
<path d="M52.642 37.6503L51.0757 35.9083C52.3639 34.7665 53.0958 33.127 53.0958 31.3996C53.0958 28.062 50.3877 25.3539 47.0501 25.3539C43.7125 25.3539 41.0043 28.062 41.0043 31.3996C41.0043 33.1124 41.7362 34.7665 43.0244 35.9083L41.4874 37.6503C39.7015 36.0547 38.6914 33.7857 38.6914 31.3996C38.6914 26.7738 42.4535 23.0117 47.0793 23.0117C51.7051 23.0117 55.4673 26.7738 55.4673 31.3996C55.4526 33.7711 54.4279 36.0547 52.642 37.6503Z" fill="#5EDDA0"/>
</g>
<defs>
<clipPath id="clip0_7336_7611">
<rect width="59.462" height="64" fill="white" transform="translate(0.5)"/>
</clipPath>
</defs>
</svg>
