<svg width="64" height="59" viewBox="0 0 64 59" fill="none" xmlns="http://www.w3.org/2000/svg">
    <g clip-path="url(#clip0_7208_1146)">
        <path
            d="M5.58634 31.5125C2.50474 31.5125 0 29.0078 0 25.9262C0 22.8446 2.50474 20.3398 5.58634 20.3398C8.66793 20.3398 11.1727 22.8446 11.1727 25.9262C11.1727 29.0078 8.66793 31.5125 5.58634 31.5125ZM5.58634 22.7687C3.84061 22.7687 2.42884 24.1805 2.42884 25.9262C2.42884 27.6719 3.84061 29.0837 5.58634 29.0837C7.33207 29.0837 8.74383 27.6719 8.74383 25.9262C8.74383 24.1805 7.33207 22.7687 5.58634 22.7687Z"
            fill="#C8F27C" />
        <path
            d="M23.1952 19.7332C20.1136 19.7332 17.6089 17.2285 17.6089 14.1469C17.6089 11.0653 20.1136 8.56055 23.1952 8.56055C26.2768 8.56055 28.7816 11.0653 28.7816 14.1469C28.7816 17.2285 26.2768 19.7332 23.1952 19.7332ZM23.1952 10.9894C21.4495 10.9894 20.0377 12.4012 20.0377 14.1469C20.0377 15.8926 21.4495 17.3044 23.1952 17.3044C24.941 17.3044 26.3527 15.8926 26.3527 14.1469C26.3527 12.4012 24.941 10.9894 23.1952 10.9894Z"
            fill="#C8F27C" />
        <path
            d="M40.2431 24.241C37.1615 24.241 34.6567 21.7363 34.6567 18.6547C34.6567 15.5731 37.1615 13.0684 40.2431 13.0684C43.3247 13.0684 45.8294 15.5731 45.8294 18.6547C45.8294 21.7363 43.3247 24.241 40.2431 24.241ZM40.2431 15.4972C38.4973 15.4972 37.0856 16.909 37.0856 18.6547C37.0856 20.4004 38.4973 21.8122 40.2431 21.8122C41.9888 21.8122 43.4006 20.4004 43.4006 18.6547C43.4006 16.909 41.9888 15.4972 40.2431 15.4972Z"
            fill="#C8F27C" />
        <path
            d="M58.4135 11.6727C55.3319 11.6727 52.8271 9.16793 52.8271 6.08634C52.8271 3.00474 55.3319 0.5 58.4135 0.5C61.4951 0.5 63.9998 3.00474 63.9998 6.08634C63.9998 9.16793 61.4799 11.6727 58.4135 11.6727ZM58.4135 2.92884C56.6678 2.92884 55.256 4.34061 55.256 6.08634C55.256 7.83207 56.6678 9.24383 58.4135 9.24383C60.1592 9.24383 61.571 7.83207 61.571 6.08634C61.571 4.34061 60.144 2.92884 58.4135 2.92884Z"
            fill="#C8F27C" />
        <path d="M19.1826 15.3699L8.57227 22.4707L9.92319 24.4893L20.5335 17.3885L19.1826 15.3699Z" fill="#C8F27C" />
        <path d="M27.726 14.0915L27.1045 16.4395L35.5572 18.677L36.1787 16.329L27.726 14.0915Z" fill="#C8F27C" />
        <path d="M54.1242 7.57421L43.1519 15.168L44.5341 17.1652L55.5064 9.57145L54.1242 7.57421Z" fill="#C8F27C" />
        <path d="M6.80091 44.3398H4.37207V58.7307H6.80091V44.3398Z" fill="#C8F27C" />
        <path d="M15.6056 38.2832H13.1768V58.7158H15.6056V38.2832Z" fill="#C8F27C" />
        <path d="M24.4098 27.293H21.981V58.7161H24.4098V27.293Z" fill="#C8F27C" />
        <path d="M33.2145 32.3945H30.7856V58.7323H33.2145V32.3945Z" fill="#C8F27C" />
        <path d="M42.0192 39.2695H39.5903V58.7306H42.0192V39.2695Z" fill="#C8F27C" />
        <path d="M50.8234 30.2988H48.3945V58.7315H50.8234V30.2988Z" fill="#C8F27C" />
        <path d="M59.6281 19.9316H57.1992V58.7172H59.6281V19.9316Z" fill="#C8F27C" />
    </g>
    <defs>
        <clipPath id="clip0_7208_1146">
            <rect width="64" height="58.2163" fill="white" transform="translate(0 0.5)" />
        </clipPath>
    </defs>
</svg>