<svg width="52" height="52" viewBox="0 0 52 52" fill="none" xmlns="http://www.w3.org/2000/svg">
<path d="M21.9395 21.8235C27.7343 21.9015 32.2071 16.1888 30.7633 10.5866C28.3501 1.17702 14.9707 1.49471 13.0296 11.014C11.8824 16.5203 16.3154 21.8868 21.9395 21.8235ZM17.5959 6.68009C20.7671 4.29784 25.6421 5.07784 27.9358 8.30346C27.1493 8.04265 25.8419 6.98721 25.1367 7.78508C23.6246 9.81958 20.3405 9.84802 18.7919 7.84683C18.5871 7.5974 18.1923 7.48771 17.8981 7.59171C17.1441 7.84683 16.4486 8.1954 15.7556 8.57077C16.2518 7.83595 16.8753 7.19567 17.5967 6.68009H17.5959ZM14.5758 11.5803C15.5037 10.5809 16.6623 9.82283 17.9282 9.3134C20.0537 11.5315 23.948 11.4966 26.0272 9.23215C27.2159 9.67658 28.3184 10.3404 29.2398 11.213C30.2433 15.7622 26.6049 20.2529 21.9395 20.1985C17.4163 20.2415 13.8226 16.0368 14.5758 11.5803Z" fill="#3BBB67"/>
<path d="M28.691 23.0368C27.4633 22.5769 26.1723 22.3438 24.8544 22.3438H24.2775C24.0814 22.3439 23.8919 22.4149 23.7441 22.5438C23.5962 22.6727 23.5 22.8507 23.4731 23.0449C23.429 23.3429 23.2791 23.615 23.0508 23.8115C22.8226 24.008 22.5312 24.1157 22.23 24.115H21.645C21.3438 24.1157 21.0524 24.008 20.8242 23.8115C20.5959 23.615 20.446 23.3429 20.4019 23.0449C20.375 22.8507 20.2788 22.6727 20.1309 22.5438C19.9831 22.4149 19.7936 22.3439 19.5975 22.3438C13.5143 21.9651 8.03156 27.1318 8.125 33.2394V35.3438H7.3125C7.09701 35.3438 6.89035 35.2581 6.73798 35.1058C6.5856 34.9534 6.5 34.7467 6.5 34.5312V14.2188C6.5 13.7711 6.864 13.4062 7.3125 13.4062H11.2369C12.3077 13.3916 12.3012 11.7959 11.2369 11.7812H7.3125C5.96862 11.7812 4.875 12.8749 4.875 14.2188V34.5312C4.875 35.8751 5.96862 36.9688 7.3125 36.9688H41.4375C42.7814 36.9688 43.875 35.8751 43.875 34.5312V23.1562C43.8482 22.0854 42.2736 22.0878 42.25 23.1562V34.5312C42.25 34.7467 42.1644 34.9534 42.012 35.1058C41.8597 35.2581 41.653 35.3438 41.4375 35.3438H35.75V33.2394C35.75 28.73 32.9136 24.6301 28.691 23.0368ZM21.125 35.3438H9.75V33.2394C9.75 29.7294 11.7674 26.5224 14.859 24.9665C15.5545 27.8501 18.1683 30.1462 21.125 30.4208V35.3438ZM17.9156 27.183C17.1464 26.4065 16.6139 25.4273 16.38 24.3596C17.2234 24.1036 18.1025 23.9777 18.9841 23.9688C19.9046 26.3681 23.9728 26.3672 24.8909 23.9688C25.7733 23.9777 26.6541 24.1036 27.4991 24.3571C26.6784 28.6796 20.9917 30.368 17.9156 27.183ZM34.125 35.3438H22.75V30.42C24.2283 30.2619 25.6223 29.6535 26.7435 28.6773C27.8648 27.7011 28.6592 26.404 29.0192 24.9616C32.1068 26.5249 34.125 29.7342 34.125 33.2394V35.3438Z" fill="#3BBB67"/>
<path d="M6.5 40.2188H19.5V42.6562C15.4838 42.3516 15.0719 48.1447 19.0938 48.3438H29.6562C30.4078 48.3438 31.1415 48.0407 31.668 47.5134C33.5855 45.5601 31.9508 42.3638 29.25 42.6562V40.2188H42.25C44.9386 40.2188 47.125 38.0323 47.125 35.3438V23.1075C47.0966 22.035 45.5244 22.0399 45.5 23.1075V35.3438C45.5 37.1361 44.0424 38.5938 42.25 38.5938H6.5C4.70762 38.5938 3.25 37.1361 3.25 35.3438V13.4062C3.25 11.6139 4.70762 10.1562 6.5 10.1562H11.7894C12.8562 10.1432 12.8562 8.54587 11.7894 8.53125H6.5C3.81144 8.53125 1.625 10.7177 1.625 13.4062V35.3438C1.625 38.0323 3.81144 40.2188 6.5 40.2188ZM21.125 40.2188H27.625V42.6562C27.625 43.5524 26.8962 44.2812 26 44.2812H22.75C21.8538 44.2812 21.125 43.5524 21.125 42.6562V40.2188ZM22.75 45.9062H26C27.1976 45.9062 28.2344 45.2481 28.7983 44.2812H29.6562C31.2569 44.3081 31.2585 46.6944 29.6562 46.7188H19.0938C17.4956 46.6911 17.4891 44.3097 19.0938 44.2812H19.9517C20.5156 45.2481 21.5524 45.9062 22.75 45.9062Z" fill="#3BBB67"/>
<path d="M45.5 3.65625H36.5625C33.8739 3.65625 31.6875 5.84269 31.6875 8.53125V16.6562C31.6892 17.8558 32.1323 19.0127 32.9324 19.9064C33.7324 20.8001 34.8334 21.3681 36.0254 21.502C35.6878 22.2314 35.1549 22.8531 34.4858 23.2984C34.3464 23.3914 34.2393 23.5251 34.1791 23.6814C34.1189 23.8376 34.1085 24.0087 34.1494 24.1711C34.2907 24.7983 34.9838 24.8276 35.5111 24.8146C37.8658 24.8178 40.1749 23.5771 41.3774 21.5312H45.5C48.1886 21.5312 50.375 19.3448 50.375 16.6562V8.53125C50.375 5.84269 48.1886 3.65625 45.5 3.65625ZM48.75 16.6562C48.75 18.4486 47.2924 19.9062 45.5 19.9062H40.9004C40.7509 19.9062 40.6042 19.9474 40.4766 20.0254C40.349 20.1034 40.2454 20.2151 40.1773 20.3483C39.8649 20.9715 39.4282 21.5241 38.8941 21.9723C38.3601 22.4204 37.7399 22.7545 37.0719 22.9539C37.7439 21.8611 38.7936 19.6617 36.5625 19.9062C34.7701 19.9062 33.3125 18.4486 33.3125 16.6562V8.53125C33.3125 6.73887 34.7701 5.28125 36.5625 5.28125H45.5C47.2924 5.28125 48.75 6.73887 48.75 8.53125V16.6562Z" fill="#3BBB67"/>
<path d="M45.4999 10.1562H36.5624C35.4973 10.1733 35.4924 11.7634 36.5624 11.7812H45.4999C46.5651 11.7642 46.57 10.1741 45.4999 10.1562ZM43.8749 15.0312H38.1874C37.1214 15.0483 37.1182 16.6384 38.1874 16.6562H43.8749C44.9409 16.6384 44.9442 15.0491 43.8749 15.0312Z" fill="#3BBB67"/>
</svg>
