<svg width="52" height="52" viewBox="0 0 52 52" fill="none" xmlns="http://www.w3.org/2000/svg">
<path d="M16.2945 35.1866H10.8781C9.74007 35.1954 8.61149 34.9789 7.5575 34.5495C6.5035 34.1201 5.54492 33.4863 4.73704 32.6846C3.92915 31.883 3.28794 30.9294 2.85036 29.8787C2.41278 28.8281 2.1875 27.7012 2.1875 26.5631C2.1875 25.425 2.41278 24.2982 2.85036 23.2475C3.28794 22.1969 3.92915 21.2433 4.73704 20.4416C5.54492 19.64 6.5035 19.0062 7.5575 18.5768C8.61149 18.1474 9.74007 17.9309 10.8781 17.9397H16.2945C16.5703 17.9397 16.8348 18.0493 17.0299 18.2443C17.2249 18.4394 17.3345 18.7039 17.3345 18.9797V34.1466C17.3345 34.4224 17.2249 34.6869 17.0299 34.8819C16.8348 35.077 16.5703 35.1866 16.2945 35.1866ZM10.8781 20.0197C10.0139 20.012 9.15677 20.1756 8.35613 20.501C7.55549 20.8263 6.82723 21.3071 6.2134 21.9155C5.59958 22.5239 5.11234 23.2478 4.77984 24.0455C4.44733 24.8432 4.27613 25.6989 4.27613 26.5631C4.27613 27.4274 4.44733 28.283 4.77984 29.0808C5.11234 29.8785 5.59958 30.6024 6.2134 31.2108C6.82723 31.8192 7.55549 32.2999 8.35613 32.6253C9.15677 32.9507 10.0139 33.1143 10.8781 33.1066H15.2545V20.0197H10.8781Z" fill="#3BBB67"/>
<path d="M29.9042 47.1898C29.6508 47.1899 29.4062 47.0974 29.2162 46.9298L15.6094 34.9267L16.9858 33.3667L28.8642 43.8452V9.82785L16.9645 19.778L15.6307 18.1816L29.237 6.80665C29.3888 6.67972 29.5736 6.59873 29.7698 6.57317C29.966 6.54761 30.1654 6.57855 30.3447 6.66235C30.5239 6.74615 30.6755 6.87934 30.7817 7.04628C30.8879 7.21322 30.9442 7.40699 30.9442 7.60485V46.1498C30.9442 46.4257 30.8346 46.6902 30.6396 46.8852C30.4445 47.0803 30.18 47.1898 29.9042 47.1898ZM42.6504 38.0446L41.1799 36.574C43.8303 33.9169 45.3187 30.3171 45.3187 26.564C45.3187 22.811 43.8303 19.2112 41.1799 16.554L42.6504 15.0798C45.6916 18.1271 47.3995 22.2563 47.3995 26.5614C47.3995 30.8666 45.6916 34.9958 42.6504 38.043V38.0446Z" fill="#3BBB67"/>
<path d="M40.0034 35.4025L38.5312 33.932C40.4824 31.9762 41.5782 29.3264 41.5782 26.5638C41.5782 23.8012 40.4824 21.1514 38.5312 19.1957L40.0018 17.7246C42.3428 20.0705 43.6577 23.2491 43.658 26.5632C43.6583 29.8774 42.3439 33.0562 40.0034 35.4025Z" fill="#3BBB67"/>
<path d="M37.3617 32.7597L35.8911 31.2891C37.1417 30.0347 37.8438 28.3356 37.8438 26.5643C37.8437 24.793 37.1413 23.094 35.8906 21.8397L37.3612 20.3691C39.0014 22.0137 39.9226 24.2416 39.9227 26.5643C39.9228 28.887 39.0018 31.115 37.3617 32.7597Z" fill="#3BBB67"/>
<path d="M34.7211 30.1176L33.25 28.6471C33.5237 28.3735 33.7407 28.0487 33.8888 27.6913C34.037 27.3338 34.1132 26.9506 34.1132 26.5637C34.1132 26.1768 34.037 25.7936 33.8888 25.4361C33.7407 25.0787 33.5237 24.7539 33.25 24.4803L34.7211 23.0098C35.1878 23.4765 35.5581 24.0305 35.8107 24.6403C36.0633 25.2501 36.1933 25.9037 36.1933 26.5637C36.1933 27.2237 36.0633 27.8773 35.8107 28.4871C35.5581 29.0969 35.1878 29.651 34.7211 30.1176Z" fill="#3BBB67"/>
</svg>
