<svg width="52" height="52" viewBox="0 0 52 52" fill="none" xmlns="http://www.w3.org/2000/svg">
<path d="M38.1875 34.6255V43.875C38.1875 44.9524 37.7595 45.9858 36.9976 46.7476C36.2358 47.5095 35.2024 47.9375 34.125 47.9375H14.625C14.4989 47.9375 14.3745 47.9081 14.2616 47.8517C14.1488 47.7953 14.0507 47.7134 13.975 47.6125L4.225 34.6125C4.11952 34.4719 4.0625 34.3008 4.0625 34.125V8.125C4.0625 7.04756 4.49051 6.01425 5.25238 5.25238C6.01425 4.49051 7.04756 4.0625 8.125 4.0625H34.125C35.2024 4.0625 36.2358 4.49051 36.9976 5.25238C37.7595 6.01425 38.1875 7.04756 38.1875 8.125V23.1351L41.4781 19.8429C41.9354 19.3863 42.5552 19.1299 43.2014 19.1299C43.8476 19.1299 44.4674 19.3863 44.9248 19.8429L47.2241 22.1423C47.6807 22.5996 47.9371 23.2194 47.9371 23.8656C47.9371 24.5118 47.6807 25.1316 47.2241 25.5889L38.1875 34.6255ZM36.5641 24.7569L36.5625 24.7032V8.125C36.5612 7.47893 36.304 6.85969 35.8471 6.40285C35.3903 5.94601 34.7711 5.68879 34.125 5.6875H8.125C7.47893 5.68879 6.85969 5.94601 6.40285 6.40285C5.94601 6.85969 5.68879 7.47893 5.6875 8.125V33.3125H11.375C12.4524 33.3125 13.4858 33.7405 14.2476 34.5024C15.0095 35.2642 15.4375 36.2976 15.4375 37.375V46.3125H34.125C34.7715 46.3125 35.3915 46.0557 35.8486 45.5986C36.3057 45.1415 36.5625 44.5215 36.5625 43.875V36.2505L31.1366 41.6748C31.0235 41.7883 30.8793 41.8657 30.7222 41.8974L24.9762 43.0462C24.8451 43.0732 24.7092 43.0672 24.5809 43.0287C24.4527 42.9902 24.3359 42.9205 24.2412 42.8258C24.1465 42.7311 24.0768 42.6143 24.0383 42.4861C23.9998 42.3578 23.9938 42.2219 24.0208 42.0908L25.1696 36.3447C25.2013 36.1877 25.2787 36.0435 25.3923 35.9304L36.5641 24.7569ZM13.8125 44.6875V37.375C13.8112 36.7289 13.554 36.1097 13.0972 35.6529C12.6403 35.196 12.0211 34.9388 11.375 34.9375H6.5L13.8125 44.6875ZM25.8521 41.2149L28.9136 40.6022L26.4647 38.1534L25.8521 41.2149ZM27.1148 36.504L30.563 39.9523L43.2023 27.313L39.754 23.8647L27.1148 36.504ZM29.25 25.1875H13C12.7845 25.1875 12.5778 25.2731 12.4255 25.4255C12.2731 25.5778 12.1875 25.7845 12.1875 26C12.1875 26.2155 12.2731 26.4222 12.4255 26.5745C12.5778 26.7269 12.7845 26.8125 13 26.8125H29.25C29.4655 26.8125 29.6722 26.7269 29.8245 26.5745C29.9769 26.4222 30.0625 26.2155 30.0625 26C30.0625 25.7845 29.9769 25.5778 29.8245 25.4255C29.6722 25.2731 29.4655 25.1875 29.25 25.1875ZM44.3511 26.1641L46.0752 24.44C46.2276 24.2876 46.3131 24.081 46.3131 23.8656C46.3131 23.6501 46.2276 23.4435 46.0752 23.2911L43.7759 20.9934C43.7005 20.9178 43.611 20.8578 43.5124 20.8168C43.4139 20.7759 43.3082 20.7548 43.2014 20.7548C43.0947 20.7548 42.989 20.7759 42.8904 20.8168C42.7919 20.8578 42.7023 20.9178 42.627 20.9934L40.9045 22.7159L44.3511 26.1641ZM29.25 18.6875H13C12.7845 18.6875 12.5778 18.7731 12.4255 18.9255C12.2731 19.0778 12.1875 19.2845 12.1875 19.5C12.1875 19.7155 12.2731 19.9222 12.4255 20.0745C12.5778 20.2269 12.7845 20.3125 13 20.3125H29.25C29.4655 20.3125 29.6722 20.2269 29.8245 20.0745C29.9769 19.9222 30.0625 19.7155 30.0625 19.5C30.0625 19.2845 29.9769 19.0778 29.8245 18.9255C29.6722 18.7731 29.4655 18.6875 29.25 18.6875ZM24.375 12.1875H13C12.7845 12.1875 12.5778 12.2731 12.4255 12.4255C12.2731 12.5778 12.1875 12.7845 12.1875 13C12.1875 13.2155 12.2731 13.4222 12.4255 13.5745C12.5778 13.7269 12.7845 13.8125 13 13.8125H24.375C24.5905 13.8125 24.7972 13.7269 24.9495 13.5745C25.1019 13.4222 25.1875 13.2155 25.1875 13C25.1875 12.7845 25.1019 12.5778 24.9495 12.4255C24.7972 12.2731 24.5905 12.1875 24.375 12.1875Z" fill="#3BBB67"/>
</svg>
