<svg width="14" height="11" viewBox="0 0 14 11" fill="none" xmlns="http://www.w3.org/2000/svg">
<path d="M13.5603 1.55804C13.1864 2.10491 12.7344 2.57087 12.2042 2.95591C12.2098 3.03404 12.2126 3.15123 12.2126 3.30748C12.2126 4.03292 12.1066 4.75837 11.8945 5.48382C11.6825 6.20368 11.3588 6.89565 10.9235 7.55971C10.4939 8.22377 9.98047 8.8125 9.38337 9.32589C8.78627 9.83371 8.06641 10.2411 7.22377 10.548C6.38114 10.8493 5.47991 11 4.52009 11C3.00781 11 1.62388 10.5954 0.368304 9.78627C0.563616 9.80859 0.78125 9.81975 1.02121 9.81975C2.27679 9.81975 3.39565 9.43471 4.37779 8.66462C3.79185 8.65346 3.2673 8.47489 2.80413 8.12891C2.34096 7.77734 2.02288 7.33091 1.84989 6.78962C2.03404 6.81752 2.20424 6.83147 2.36049 6.83147C2.60045 6.83147 2.83761 6.80078 3.07199 6.7394C2.44699 6.61105 1.92801 6.30134 1.51507 5.81027C1.1077 5.31362 0.904018 4.73884 0.904018 4.08594V4.05246C1.28348 4.26451 1.69085 4.37891 2.12612 4.39565C1.75781 4.15011 1.46484 3.82924 1.24721 3.43304C1.02958 3.03683 0.920759 2.60714 0.920759 2.14397C0.920759 1.6529 1.04353 1.1981 1.28906 0.779576C1.96429 1.61105 2.7846 2.2779 3.75 2.78013C4.72098 3.27679 5.75893 3.55301 6.86384 3.60882C6.8192 3.39676 6.79688 3.19029 6.79688 2.9894C6.79688 2.24163 7.05915 1.60547 7.58371 1.08091C8.11384 0.550781 8.75279 0.285714 9.50056 0.285714C10.2818 0.285714 10.9403 0.570312 11.476 1.13951C12.0843 1.02232 12.6563 0.804687 13.192 0.486607C12.9855 1.12835 12.5893 1.625 12.0033 1.97656C12.5223 1.92076 13.0413 1.78125 13.5603 1.55804Z" fill="black"/>
</svg>
