<svg width="17" height="15" viewBox="0 0 17 15" fill="none" xmlns="http://www.w3.org/2000/svg">
<path d="M14.8695 2.90078C15.5837 2.45396 16.1181 1.7504 16.373 0.921453C15.7018 1.33816 14.9675 1.63171 14.2018 1.78939C13.1402 0.614238 11.4581 0.32826 10.0956 1.09125C8.73303 1.85424 8.02727 3.47731 8.37266 5.05352C5.62352 4.90909 3.06222 3.5502 1.3261 1.31498C0.420055 2.95032 0.883064 5.04083 2.3842 6.09238C1.84137 6.07412 1.31059 5.92032 0.836092 5.64382C0.836092 5.65883 0.836092 5.67383 0.836092 5.68884C0.836406 7.39232 1.98373 8.85966 3.57934 9.19726C3.07584 9.34061 2.5477 9.36171 2.03522 9.25896C2.48396 10.7158 3.76702 11.7138 5.22944 11.7435C4.01823 12.7383 2.52242 13.2778 0.982697 13.2751C0.709782 13.2756 0.437082 13.2591 0.166016 13.2259C1.72957 14.2773 3.54936 14.8354 5.40791 14.8334C7.9936 14.852 10.4785 13.7853 12.3069 11.872C14.1352 9.95859 15.1543 7.35822 15.1364 4.65249C15.1364 4.49741 15.1329 4.34317 15.126 4.18976C15.7957 3.68334 16.3736 3.05598 16.8327 2.33716C16.2088 2.62653 15.5471 2.8165 14.8695 2.90078Z" fill="#A0A3AA"/>
</svg>
