<svg width="21" height="21" viewBox="0 0 21 21" fill="none" xmlns="http://www.w3.org/2000/svg">
<path d="M16.8714 5.65078C17.5857 5.20396 18.1201 4.5004 18.3749 3.67145C17.7038 4.08816 16.9694 4.38171 16.2037 4.53939C15.1421 3.36424 13.4601 3.07826 12.0975 3.84125C10.735 4.60424 10.0292 6.22731 10.3746 7.80352C7.62548 7.65909 5.06417 6.3002 3.32805 4.06498C2.42201 5.70032 2.88502 7.79083 4.38615 8.84238C3.84333 8.82412 3.31254 8.67032 2.83805 8.39382C2.83805 8.40883 2.83805 8.42383 2.83805 8.43884C2.83836 10.1423 3.98568 11.6097 5.5813 11.9473C5.07779 12.0906 4.54965 12.1117 4.03717 12.009C4.48591 13.4658 5.76898 14.4638 7.23139 14.4935C6.02018 15.4883 4.52437 16.0278 2.98465 16.0251C2.71174 16.0256 2.43904 16.0091 2.16797 15.9759C3.73153 17.0273 5.55131 17.5854 7.40987 17.5834C9.99556 17.602 12.4805 16.5353 14.3088 14.622C16.1371 12.7086 17.1563 10.1082 17.1383 7.40249C17.1383 7.24741 17.1349 7.09317 17.128 6.93976C17.7976 6.43334 18.3756 5.80598 18.8346 5.08716C18.2108 5.37653 17.549 5.5665 16.8714 5.65078Z" fill="white"/>
</svg>
