<svg width="21" height="18" viewBox="0 0 21 18" fill="none" xmlns="http://www.w3.org/2000/svg">
<path d="M20.5 2.79875C19.7563 3.125 18.9637 3.34125 18.1375 3.44625C18.9875 2.93875 19.6363 2.14125 19.9412 1.18C19.1488 1.6525 18.2738 1.98625 17.3412 2.1725C16.5887 1.37125 15.5162 0.875 14.3462 0.875C12.0763 0.875 10.2487 2.7175 10.2487 4.97625C10.2487 5.30125 10.2762 5.61375 10.3438 5.91125C6.935 5.745 3.91875 4.11125 1.8925 1.6225C1.53875 2.23625 1.33125 2.93875 1.33125 3.695C1.33125 5.115 2.0625 6.37375 3.1525 7.1025C2.49375 7.09 1.8475 6.89875 1.3 6.5975V6.6425C1.3 8.635 2.72125 10.29 4.585 10.6712C4.25125 10.7625 3.8875 10.8062 3.51 10.8062C3.2475 10.8062 2.9825 10.7913 2.73375 10.7362C3.265 12.36 4.7725 13.5538 6.565 13.5925C5.17 14.6838 3.39875 15.3412 1.48125 15.3412C1.145 15.3412 0.8225 15.3263 0.5 15.285C2.31625 16.4563 4.46875 17.125 6.79 17.125C14.335 17.125 18.46 10.875 18.46 5.4575C18.46 5.27625 18.4538 5.10125 18.445 4.9275C19.2588 4.35 19.9425 3.62875 20.5 2.79875Z" fill="#171717"/>
</svg>
