<svg width="20" height="21" viewBox="0 0 20 21" fill="none" xmlns="http://www.w3.org/2000/svg">
<path d="M16.3714 5.6498C17.0857 5.20298 17.6201 4.49942 17.8749 3.67048C17.2038 4.08719 16.4694 4.38073 15.7037 4.53841C14.6421 3.36326 12.9601 3.07728 11.5975 3.84027C10.235 4.60326 9.52922 6.22633 9.87462 7.80255C7.12548 7.65812 4.56417 6.29922 2.82805 4.06401C1.92201 5.69934 2.38502 7.78986 3.88615 8.8414C3.34333 8.82314 2.81254 8.66935 2.33805 8.39284C2.33805 8.40785 2.33805 8.42286 2.33805 8.43786C2.33836 10.1413 3.48568 11.6087 5.0813 11.9463C4.57779 12.0896 4.04965 12.1107 3.53717 12.008C3.98591 13.4648 5.26898 14.4628 6.73139 14.4926C5.52018 15.4873 4.02437 16.0268 2.48465 16.0242C2.21174 16.0246 1.93904 16.0082 1.66797 15.975C3.23153 17.0264 5.05131 17.5844 6.90987 17.5824C9.49556 17.601 11.9805 16.5343 13.8088 14.621C15.6371 12.7076 16.6563 10.1072 16.6383 7.40151C16.6383 7.24643 16.6349 7.09219 16.628 6.93878C17.2976 6.43236 17.8756 5.805 18.3346 5.08619C17.7108 5.37555 17.049 5.56553 16.3714 5.6498Z" fill="#171717"/>
</svg>
