<svg width="20" height="20" viewBox="0 0 20 20" fill="none" xmlns="http://www.w3.org/2000/svg">
<path d="M16.3701 5.15078C17.0844 4.70396 17.6188 4.0004 17.8736 3.17145C17.2025 3.58816 16.4682 3.88171 15.7024 4.03939C14.6408 2.86424 12.9588 2.57826 11.5963 3.34125C10.2337 4.10424 9.52794 5.72731 9.87334 7.30352C7.1242 7.15909 4.56289 5.8002 2.82677 3.56498C1.92073 5.20032 2.38374 7.29083 3.88487 8.34238C3.34205 8.32412 2.81126 8.17032 2.33676 7.89382C2.33676 7.90883 2.33676 7.92383 2.33676 7.93884C2.33708 9.64232 3.4844 11.1097 5.08002 11.4473C4.57651 11.5906 4.04837 11.6117 3.53589 11.509C3.98463 12.9658 5.26769 13.9638 6.73011 13.9935C5.5189 14.9883 4.02309 15.5278 2.48337 15.5251C2.21045 15.5256 1.93775 15.5091 1.66669 15.4759C3.23024 16.5273 5.05003 17.0854 6.90858 17.0834C9.49428 17.102 11.9792 16.0353 13.8075 14.122C15.6359 12.2086 16.655 9.60822 16.637 6.90249C16.637 6.74741 16.6336 6.59317 16.6267 6.43976C17.2963 5.93334 17.8743 5.30598 18.3334 4.58716C17.7095 4.87653 17.0478 5.0665 16.3701 5.15078Z" fill="white"/>
</svg>
