<svg width="20" height="18" viewBox="0 0 20 18" fill="none" xmlns="http://www.w3.org/2000/svg">
<path d="M17.0808 0.254511C14.3075 0.153677 12.4342 1.74368 11.4458 4.99951C11.9104 4.78566 12.4153 4.67344 12.9267 4.67034C16.4425 4.67034 12.1175 11.4662 11.0408 11.4662C9.7725 11.4662 9.01 5.39618 8.75167 3.73868C8.3925 1.43451 7.435 0.357011 5.87917 0.507844C5.22167 0.570344 4.23333 1.17368 2.9175 2.32534C1.95156 3.21036 0.979034 4.08817 0 4.95868L0.940833 6.18534C1.83667 5.55034 2.35917 5.23201 2.50833 5.23201C5.085 5.23201 4.915 17.7503 8.99417 17.7503C12.9125 17.7503 19.8092 8.14951 19.9808 4.30118L19.9917 4.29284C20.1033 1.65534 19.1408 0.305344 17.0808 0.254511Z" fill="#171717"/>
</svg>
