<svg width="21" height="20" viewBox="0 0 21 20" fill="none" xmlns="http://www.w3.org/2000/svg">
<g clip-path="url(#clip0_7336_3911)">
<path d="M20.0839 5.42142C19.9706 5.01745 19.75 4.65171 19.4455 4.36309C19.1324 4.06559 18.7487 3.85279 18.3305 3.74476C16.7655 3.33226 10.4955 3.33226 10.4955 3.33226C7.88163 3.30252 5.26837 3.43332 2.67052 3.72392C2.25234 3.83993 1.86932 4.0575 1.55551 4.35726C1.24718 4.65392 1.02385 5.01976 0.907181 5.42059C0.626925 6.93038 0.490758 8.46338 0.500514 9.99892C0.490514 11.5331 0.626348 13.0656 0.907181 14.5773C1.02135 14.9764 1.24385 15.3406 1.55301 15.6348C1.86218 15.9289 2.24718 16.1414 2.67052 16.2539C4.25635 16.6656 10.4955 16.6656 10.4955 16.6656C13.1127 16.6954 15.7293 16.5646 18.3305 16.2739C18.7487 16.1659 19.1324 15.9531 19.4455 15.6556C19.7499 15.367 19.9702 15.0012 20.083 14.5973C20.3706 13.088 20.5104 11.5544 20.5005 10.0181C20.5222 8.47526 20.3825 6.93439 20.0839 5.42059V5.42142ZM8.50218 12.8523V7.14642L13.7189 9.99976L8.50218 12.8523Z" fill="#A0A3AA"/>
</g>
<defs>
<clipPath id="clip0_7336_3911">
<rect width="20" height="20" fill="white" transform="translate(0.5)"/>
</clipPath>
</defs>
</svg>
